{
.appVersion = "1359";
copyright = "(c) 2023, Camille Wisniewski.";
date = "2023-03-28 14:24:51 +0000";
designer = "Camille Wisniewski";
designerURL = www.camillewisniewski.fr;
familyName = "IOTA-Outline";
fontMaster = (
{
ascender = 790;
capHeight = 700;
descender = -290;
id = "D49323DB-BA12-4E81-A595-966915BD3B05";
userData = {
GSOffsetHorizontal = 15;
GSOffsetKeepCompatible = 1;
GSOffsetMakeStroke = 1;
GSOffsetProportional = 1;
GSOffsetVertical = 10;
};
xHeight = 500;
}
);
glyphs = (
{
glyphname = A;
lastChange = "2023-04-26 08:19:03 +0000";
layers = (
{
background = {
paths = (
{
closed = 1;
nodes = (
"560 32 OFFCURVE",
"546 47 OFFCURVE",
"533 75 CURVE SMOOTH",
"496 152 OFFCURVE",
"505 234 OFFCURVE",
"514 320 CURVE SMOOTH",
"519 373 OFFCURVE",
"525 427 OFFCURVE",
"520 481 CURVE SMOOTH",
"508 601 OFFCURVE",
"408 700 OFFCURVE",
"298 700 CURVE SMOOTH",
"188 700 OFFCURVE",
"95 608 OFFCURVE",
"76 482 CURVE SMOOTH",
"67 424 OFFCURVE",
"72 364 OFFCURVE",
"77 307 CURVE SMOOTH",
"84 225 OFFCURVE",
"90 148 OFFCURVE",
"59 75 CURVE SMOOTH",
"49 51 OFFCURVE",
"34 33 OFFCURVE",
"15 24 CURVE",
"28 -3 LINE",
"54 10 OFFCURVE",
"74 33 OFFCURVE",
"87 63 CURVE SMOOTH",
"144 198 OFFCURVE",
"85 344 OFFCURVE",
"106 477 CURVE SMOOTH",
"123 589 OFFCURVE",
"203 670 OFFCURVE",
"298 670 CURVE SMOOTH",
"392 670 OFFCURVE",
"479 583 OFFCURVE",
"490 478 CURVE SMOOTH",
"503 344 OFFCURVE",
"441 198 OFFCURVE",
"505 62 CURVE SMOOTH",
"522 27 OFFCURVE",
"542 6 OFFCURVE",
"569 -2 CURVE",
"579 26 LINE"
);
},
{
closed = 1;
nodes = (
"105 295 LINE",
"105 265 LINE",
"491 265 LINE",
"491 295 LINE"
);
}
);
};
layerId = "D49323DB-BA12-4E81-A595-966915BD3B05";
paths = (
{
closed = 1;
nodes = (
"560 32 OFFCURVE",
"546 47 OFFCURVE",
"533 75 CURVE SMOOTH",
"496 152 OFFCURVE",
"505 234 OFFCURVE",
"514 320 CURVE SMOOTH",
"519 373 OFFCURVE",
"525 427 OFFCURVE",
"520 481 CURVE SMOOTH",
"508 601 OFFCURVE",
"408 700 OFFCURVE",
"298 700 CURVE SMOOTH",
"188 700 OFFCURVE",
"95 608 OFFCURVE",
"76 482 CURVE SMOOTH",
"67 424 OFFCURVE",
"72 364 OFFCURVE",
"77 307 CURVE SMOOTH",
"84 225 OFFCURVE",
"90 148 OFFCURVE",
"59 75 CURVE SMOOTH",
"49 51 OFFCURVE",
"34 33 OFFCURVE",
"15 24 CURVE",
"28 -3 LINE",
"54 10 OFFCURVE",
"74 33 OFFCURVE",
"87 63 CURVE SMOOTH",
"144 198 OFFCURVE",
"85 344 OFFCURVE",
"106 477 CURVE SMOOTH",
"123 589 OFFCURVE",
"203 670 OFFCURVE",
"298 670 CURVE SMOOTH",
"392 670 OFFCURVE",
"479 583 OFFCURVE",
"490 478 CURVE SMOOTH",
"503 344 OFFCURVE",
"441 198 OFFCURVE",
"505 62 CURVE SMOOTH",
"522 27 OFFCURVE",
"542 6 OFFCURVE",
"569 -2 CURVE",
"579 26 LINE"
);
},
{
closed = 1;
nodes = (
"105 295 LINE",
"105 265 LINE",
"491 265 LINE",
"491 295 LINE"
);
}
);
width = 594;
}
);
unicode = 0041;
},
{
glyphname = AE;
lastChange = "2023-05-02 12:01:24 +0000";
layers = (
{
layerId = "D49323DB-BA12-4E81-A595-966915BD3B05";
paths = (
{
closed = 1;
nodes = (
"847 672 OFFCURVE",
"803 700 OFFCURVE",
"750 700 CURVE SMOOTH",
"473 700 LINE",
"334 700 LINE SMOOTH",
"209 700 OFFCURVE",
"97 606 OFFCURVE",
"76 482 CURVE SMOOTH",
"66 421 OFFCURVE",
"73 360 OFFCURVE",
"79 301 CURVE SMOOTH",
"88 221 OFFCURVE",
"96 146 OFFCURVE",
"64 75 CURVE SMOOTH",
"54 53 OFFCURVE",
"36 34 OFFCURVE",
"15 24 CURVE",
"28 -3 LINE",
"55 10 OFFCURVE",
"78 35 OFFCURVE",
"91 63 CURVE SMOOTH",
"151 197 OFFCURVE",
"83 344 OFFCURVE",
"106 477 CURVE SMOOTH",
"125 587 OFFCURVE",
"223 670 OFFCURVE",
"334 670 CURVE SMOOTH",
"473 670 LINE",
"750 670 LINE SMOOTH",
"792 670 OFFCURVE",
"824 650 OFFCURVE",
"841 614 CURVE",
"868 626 LINE"
);
},
{
closed = 1;
nodes = (
"820 54 OFFCURVE",
"782 30 OFFCURVE",
"750 30 CURVE SMOOTH",
"488 30 LINE",
"488 700 LINE",
"458 700 LINE",
"458 0 LINE",
"750 0 LINE SMOOTH",
"792 0 OFFCURVE",
"840 30 OFFCURVE",
"867 72 CURVE",
"842 88 LINE"
);
},
{
closed = 1;
nodes = (
"97 295 LINE",
"97 265 LINE",
"473 265 LINE",
"473 295 LINE"
);
},
{
closed = 1;
nodes = (
"473 365 LINE",
"473 335 LINE",
"785 335 LINE",
"785 365 LINE"
);
}
);
width = 885;
}
);
leftMetricsKey = A;
rightMetricsKey = E;
unicode = 00C6;
},
{
glyphname = B;
lastChange = "2023-04-26 08:19:20 +0000";
layers = (
{
layerId = "D49323DB-BA12-4E81-A595-966915BD3B05";
paths = (
{
closed = 1;
nodes = (
"80 -2 OFFCURVE",
"114 34 OFFCURVE",
"118 84 CURVE",
"111 626 LINE",
"97 667 OFFCURVE",
"71 695 OFFCURVE",
"42 702 CURVE",
"35 673 LINE",
"53 669 OFFCURVE",
"70 650 OFFCURVE",
"82 621 CURVE",
"88 85 LINE",
"85 52 OFFCURVE",
"64 29 OFFCURVE",
"39 29 CURVE",
"38 -1 LINE"
);
},
{
closed = 1;
nodes = (
"153 22 OFFCURVE",
"242 -11 OFFCURVE",
"327 0 CURVE SMOOTH",
"453 16 OFFCURVE",
"540 109 OFFCURVE",
"533 218 CURVE SMOOTH",
"526 324 OFFCURVE",
"433 401 OFFCURVE",
"313 400 CURVE SMOOTH",
"103 399 LINE",
"103 369 LINE",
"314 369 LINE SMOOTH",
"407 369 OFFCURVE",
"483 443 OFFCURVE",
"480 531 CURVE SMOOTH",
"478 638 OFFCURVE",
"369 715 OFFCURVE",
"243 700 CURVE SMOOTH",
"183 693 OFFCURVE",
"128 666 OFFCURVE",
"86 624 CURVE",
"107 603 LINE",
"144 640 OFFCURVE",
"193 664 OFFCURVE",
"246 670 CURVE SMOOTH",
"355 683 OFFCURVE",
"448 620 OFFCURVE",
"450 531 CURVE SMOOTH",
"452 459 OFFCURVE",
"390 400 OFFCURVE",
"313 400 CURVE SMOOTH",
"103 399 LINE",
"104 369 LINE",
"314 369 LINE SMOOTH",
"419 369 OFFCURVE",
"497 306 OFFCURVE",
"503 216 CURVE SMOOTH",
"509 123 OFFCURVE",
"433 44 OFFCURVE",
"323 30 CURVE SMOOTH",
"247 20 OFFCURVE",
"169 49 OFFCURVE",
"117 106 CURVE",
"95 86 LINE"
);
}
);
width = 550;
}
);
leftMetricsKey = H;
unicode = 0042;
},
{
glyphname = C;
lastChange = "2023-04-26 08:19:50 +0000";
layers = (
{
layerId = "D49323DB-BA12-4E81-A595-966915BD3B05";
paths = (
{
closed = 1;
nodes = (
"475 37 OFFCURVE",
"403 15 OFFCURVE",
"332 20 CURVE SMOOTH",
"185 31 OFFCURVE",
"70 173 OFFCURVE",
"70 350 CURVE SMOOTH",
"70 526 OFFCURVE",
"182 663 OFFCURVE",
"332 680 CURVE SMOOTH",
"407 688 OFFCURVE",
"477 666 OFFCURVE",
"528 619 CURVE",
"548 641 LINE",
"492 694 OFFCURVE",
"412 719 OFFCURVE",
"329 710 CURVE SMOOTH",
"163 691 OFFCURVE",
"40 542 OFFCURVE",
"40 350 CURVE SMOOTH",
"40 158 OFFCURVE",
"167 2 OFFCURVE",
"329 -10 CURVE SMOOTH",
"408 -16 OFFCURVE",
"489 9 OFFCURVE",
"547 58 CURVE",
"528 81 LINE"
);
}
);
width = 565;
}
);
leftMetricsKey = O;
unicode = 0043;
},
{
glyphname = D;
lastChange = "2023-04-26 08:19:58 +0000";
layers = (
{
layerId = "D49323DB-BA12-4E81-A595-966915BD3B05";
paths = (
{
closed = 1;
nodes = (
"94 9 OFFCURVE",
"125 50 OFFCURVE",
"125 105 CURVE SMOOTH",
"125 596 LINE",
"119 643 OFFCURVE",
"91 682 OFFCURVE",
"48 703 CURVE",
"35 676 LINE",
"68 660 OFFCURVE",
"90 630 OFFCURVE",
"95 594 CURVE",
"95 105 LINE SMOOTH",
"95 64 OFFCURVE",
"74 35 OFFCURVE",
"39 28 CURVE",
"45 -1 LINE"
);
},
{
closed = 1;
nodes = (
"152 29 OFFCURVE",
"250 -11 OFFCURVE",
"354 0 CURVE SMOOTH",
"501 16 OFFCURVE",
"608 165 OFFCURVE",
"608 350 CURVE SMOOTH",
"608 530 OFFCURVE",
"500 682 OFFCURVE",
"354 701 CURVE SMOOTH",
"260 714 OFFCURVE",
"156 671 OFFCURVE",
"98 594 CURVE",
"122 576 LINE",
"174 644 OFFCURVE",
"265 682 OFFCURVE",
"350 671 CURVE SMOOTH",
"480 654 OFFCURVE",
"578 516 OFFCURVE",
"578 350 CURVE SMOOTH",
"578 181 OFFCURVE",
"482 44 OFFCURVE",
"351 30 CURVE SMOOTH",
"257 20 OFFCURVE",
"171 55 OFFCURVE",
"122 124 CURVE",
"98 106 LINE"
);
}
);
width = 648;
}
);
leftMetricsKey = H;
rightMetricsKey = O;
unicode = 0044;
},
{
glyphname = E;
lastChange = "2023-04-26 08:20:06 +0000";
layers = (
{
layerId = "D49323DB-BA12-4E81-A595-966915BD3B05";
paths = (
{
closed = 1;
nodes = (
"436 52 OFFCURVE",
"401 30 OFFCURVE",
"359 30 CURVE SMOOTH",
"65 30 LINE",
"65 670 LINE",
"359 670 LINE SMOOTH",
"406 670 OFFCURVE",
"437 651 OFFCURVE",
"448 616 CURVE",
"477 625 LINE",
"462 673 OFFCURVE",
"419 700 OFFCURVE",
"359 700 CURVE SMOOTH",
"35 700 LINE",
"35 0 LINE",
"359 0 LINE SMOOTH",
"413 0 OFFCURVE",
"461 30 OFFCURVE",
"476 75 CURVE",
"448 85 LINE"
);
},
{
closed = 1;
nodes = (
"50 365 LINE",
"50 335 LINE",
"394 335 LINE",
"394 365 LINE"
);
}
);
width = 494;
}
);
leftMetricsKey = H;
unicode = 0045;
},
{
glyphname = F;
lastChange = "2023-04-26 08:20:12 +0000";
layers = (
{
layerId = "D49323DB-BA12-4E81-A595-966915BD3B05";
paths = (
{
closed = 1;
nodes = (
"65 670 LINE",
"324 670 LINE SMOOTH",
"366 670 OFFCURVE",
"401 648 OFFCURVE",
"413 615 CURVE",
"441 625 LINE",
"426 670 OFFCURVE",
"378 700 OFFCURVE",
"324 700 CURVE SMOOTH",
"35 700 LINE",
"35 0 LINE",
"65 0 LINE"
);
},
{
closed = 1;
nodes = (
"50 365 LINE",
"50 335 LINE",
"359 335 LINE",
"359 365 LINE"
);
}
);
width = 458;
}
);
leftMetricsKey = H;
unicode = 0046;
},
{
glyphname = G;
lastChange = "2023-04-26 08:20:26 +0000";
layers = (
{
layerId = "D49323DB-BA12-4E81-A595-966915BD3B05";
paths = (
{
closed = 1;
nodes = (
"557 345 LINE",
"557 157 LINE",
"522 82 OFFCURVE",
"443 30 OFFCURVE",
"365 30 CURVE SMOOTH",
"200 30 OFFCURVE",
"70 171 OFFCURVE",
"70 350 CURVE SMOOTH",
"70 517 OFFCURVE",
"181 653 OFFCURVE",
"332 671 CURVE SMOOTH",
"408 679 OFFCURVE",
"478 657 OFFCURVE",
"528 610 CURVE",
"548 632 LINE",
"492 684 OFFCURVE",
"412 709 OFFCURVE",
"329 700 CURVE SMOOTH",
"163 681 OFFCURVE",
"40 532 OFFCURVE",
"40 350 CURVE SMOOTH",
"40 155 OFFCURVE",
"183 0 OFFCURVE",
"365 0 CURVE SMOOTH",
"456 0 OFFCURVE",
"549 62 OFFCURVE",
"587 150 CURVE",
"587 375 LINE",
"365 375 LINE",
"365 345 LINE"
);
}
);
width = 617;
}
);
leftMetricsKey = O;
unicode = 0047;
},
{
glyphname = H;
lastChange = "2023-04-26 08:18:04 +0000";
layers = (
{
layerId = "D49323DB-BA12-4E81-A595-966915BD3B05";
paths = (
{
closed = 1;
nodes = (
"176 31 OFFCURVE",
"160 51 OFFCURVE",
"149 76 CURVE SMOOTH",
"113 159 OFFCURVE",
"122 249 OFFCURVE",
"131 343 CURVE SMOOTH",
"138 415 OFFCURVE",
"145 490 OFFCURVE",
"130 563 CURVE SMOOTH",
"118 620 OFFCURVE",
"93 666 OFFCURVE",
"56 701 CURVE",
"35 679 LINE",
"68 648 OFFCURVE",
"89 608 OFFCURVE",
"100 557 CURVE SMOOTH",
"133 402 OFFCURVE",
"53 222 OFFCURVE",
"122 64 CURVE SMOOTH",
"135 33 OFFCURVE",
"156 8 OFFCURVE",
"177 -3 CURVE",
"191 24 LINE"
);
},
{
closed = 1;
nodes = (
"660 31 OFFCURVE",
"645 51 OFFCURVE",
"633 76 CURVE SMOOTH",
"597 159 OFFCURVE",
"606 249 OFFCURVE",
"615 342 CURVE SMOOTH",
"622 415 OFFCURVE",
"629 490 OFFCURVE",
"613 563 CURVE SMOOTH",
"602 620 OFFCURVE",
"577 666 OFFCURVE",
"540 701 CURVE",
"519 679 LINE",
"552 648 OFFCURVE",
"574 608 OFFCURVE",
"584 557 CURVE SMOOTH",
"617 402 OFFCURVE",
"537 222 OFFCURVE",
"606 64 CURVE SMOOTH",
"620 33 OFFCURVE",
"641 7 OFFCURVE",
"661 -3 CURVE",
"675 24 LINE"
);
},
{
closed = 1;
nodes = (
"115 365 LINE",
"115 335 LINE",
"599 335 LINE",
"599 365 LINE"
);
}
);
width = 710;
}
);
unicode = 0048;
},
{
glyphname = Hbar;
lastChange = "2023-05-01 17:29:18 +0000";
layers = (
{
components = (
{
name = H;
}
);
layerId = "D49323DB-BA12-4E81-A595-966915BD3B05";
paths = (
{
closed = 1;
nodes = (
"35 500 LINE",
"675 500 LINE",
"675 530 LINE",
"35 530 LINE"
);
}
);
width = 710;
}
);
unicode = 0126;
},
{
glyphname = I;
lastChange = "2023-04-26 08:20:37 +0000";
layers = (
{
layerId = "D49323DB-BA12-4E81-A595-966915BD3B05";
paths = (
{
closed = 1;
nodes = (
"343 0 LINE",
"314 32 OFFCURVE",
"283 54 OFFCURVE",
"266 89 CURVE SMOOTH",
"227 169 OFFCURVE",
"238 255 OFFCURVE",
"250 346 CURVE SMOOTH",
"259 414 OFFCURVE",
"268 485 OFFCURVE",
"254 554 CURVE SMOOTH",
"241 614 OFFCURVE",
"214 666 OFFCURVE",
"177 700 CURVE",
"35 700 LINE",
"35 670 LINE",
"165 670 LINE",
"193 640 OFFCURVE",
"214 598 OFFCURVE",
"224 548 CURVE SMOOTH",
"255 402 OFFCURVE",
"165 226 OFFCURVE",
"239 75 CURVE SMOOTH",
"248 58 OFFCURVE",
"259 43 OFFCURVE",
"271 30 CURVE",
"69 30 LINE",
"69 0 LINE"
);
}
);
width = 378;
}
);
leftMetricsKey = H;
rightMetricsKey = H;
unicode = 0049;
},
{
glyphname = J;
lastChange = "2023-04-26 08:20:49 +0000";
layers = (
{
layerId = "D49323DB-BA12-4E81-A595-966915BD3B05";
paths = (
{
closed = 1;
nodes = (
"174 -49 OFFCURVE",
"328 73 OFFCURVE",
"328 243 CURVE SMOOTH",
"328 700 LINE",
"19 700 LINE",
"19 670 LINE",
"298 670 LINE",
"298 243 LINE SMOOTH",
"298 93 OFFCURVE",
"163 -14 OFFCURVE",
"23 26 CURVE",
"15 -3 LINE"
);
}
);
width = 363;
}
);
rightMetricsKey = H;
unicode = 004A;
},
{
glyphname = K;
lastChange = "2023-04-26 09:47:41 +0000";
layers = (
{
layerId = "D49323DB-BA12-4E81-A595-966915BD3B05";
paths = (
{
closed = 1;
nodes = (
"169 34 OFFCURVE",
"152 53 OFFCURVE",
"140 77 CURVE SMOOTH",
"99 161 OFFCURVE",
"110 253 OFFCURVE",
"123 349 CURVE SMOOTH",
"132 419 OFFCURVE",
"141 492 OFFCURVE",
"128 563 CURVE SMOOTH",
"116 625 OFFCURVE",
"88 677 OFFCURVE",
"52 702 CURVE",
"35 677 LINE",
"64 657 OFFCURVE",
"88 613 OFFCURVE",
"98 557 CURVE SMOOTH",
"127 404 OFFCURVE",
"36 221 OFFCURVE",
"113 63 CURVE SMOOTH",
"127 34 OFFCURVE",
"150 10 OFFCURVE",
"175 -3 CURVE",
"189 24 LINE"
);
},
{
closed = 1;
nodes = (
"446 523 OFFCURVE",
"294 385 OFFCURVE",
"102 329 CURVE",
"110 301 LINE",
"310 359 OFFCURVE",
"471 504 OFFCURVE",
"541 690 CURVE",
"513 700 LINE"
);
},
{
closed = 1;
nodes = (
"290 401 LINE",
"267 383 LINE",
"571 0 LINE",
"594 19 LINE"
);
}
);
width = 609;
}
);
leftMetricsKey = H;
unicode = 004B;
},
{
glyphname = L;
lastChange = "2023-04-26 08:21:05 +0000";
layers = (
{
layerId = "D49323DB-BA12-4E81-A595-966915BD3B05";
paths = (
{
closed = 1;
nodes = (
"507 52 OFFCURVE",
"483 30 OFFCURVE",
"453 30 CURVE SMOOTH",
"124 30 LINE",
"124 553 LINE SMOOTH",
"124 623 OFFCURVE",
"93 686 OFFCURVE",
"44 701 CURVE",
"35 673 LINE",
"71 662 OFFCURVE",
"94 610 OFFCURVE",
"94 553 CURVE SMOOTH",
"94 0 LINE",
"453 0 LINE SMOOTH",
"500 0 OFFCURVE",
"537 36 OFFCURVE",
"537 80 CURVE",
"507 80 LINE"
);
}
);
width = 552;
}
);
leftMetricsKey = H;
unicode = 004C;
},
{
glyphname = Lslash;
lastChange = "2023-05-02 08:10:15 +0000";
layers = (
{
layerId = "D49323DB-BA12-4E81-A595-966915BD3B05";
paths = (
{
closed = 1;
nodes = (
"517 50 OFFCURVE",
"496 30 OFFCURVE",
"466 30 CURVE SMOOTH",
"137 30 LINE",
"137 564 LINE SMOOTH",
"137 629 OFFCURVE",
"104 685 OFFCURVE",
"55 701 CURVE",
"46 673 LINE",
"82 661 OFFCURVE",
"107 617 OFFCURVE",
"107 564 CURVE SMOOTH",
"107 0 LINE",
"466 0 LINE SMOOTH",
"512 0 OFFCURVE",
"547 34 OFFCURVE",
"547 77 CURVE",
"517 77 LINE"
);
},
{
closed = 1;
nodes = (
"35 292 LINE",
"47 264 LINE",
"288 370 LINE",
"276 397 LINE"
);
}
);
width = 562;
}
);
leftMetricsKey = H;
unicode = 0141;
},
{
glyphname = M;
lastChange = "2023-04-26 08:21:14 +0000";
layers = (
{
layerId = "D49323DB-BA12-4E81-A595-966915BD3B05";
paths = (
{
closed = 1;
nodes = (
"664 718 OFFCURVE",
"610 696 OFFCURVE",
"575 638 CURVE SMOOTH",
"380 309 LINE",
"185 638 LINE SMOOTH",
"146 703 OFFCURVE",
"104 720 OFFCURVE",
"30 700 CURVE",
"38 671 LINE",
"99 687 OFFCURVE",
"127 676 OFFCURVE",
"159 622 CURVE SMOOTH",
"380 251 LINE",
"601 622 LINE SMOOTH",
"629 670 OFFCURVE",
"668 685 OFFCURVE",
"722 671 CURVE",
"730 700 LINE"
);
},
{
closed = 1;
nodes = (
"143 34 OFFCURVE",
"118 67 OFFCURVE",
"118 105 CURVE SMOOTH",
"118 693 LINE",
"88 693 LINE",
"88 105 LINE SMOOTH",
"88 53 OFFCURVE",
"123 7 OFFCURVE",
"170 -1 CURVE",
"175 28 LINE"
);
},
{
closed = 1;
nodes = (
"697 34 OFFCURVE",
"672 67 OFFCURVE",
"672 105 CURVE SMOOTH",
"672 689 LINE",
"642 689 LINE",
"642 105 LINE SMOOTH",
"642 53 OFFCURVE",
"677 7 OFFCURVE",
"724 -1 CURVE",
"729 28 LINE"
);
}
);
width = 765;
}
);
rightMetricsKey = H;
unicode = 004D;
},
{
glyphname = N;
lastChange = "2023-04-26 08:21:22 +0000";
layers = (
{
layerId = "D49323DB-BA12-4E81-A595-966915BD3B05";
paths = (
{
closed = 1;
nodes = (
"547 33 LINE",
"507 42 OFFCURVE",
"466 63 OFFCURVE",
"435 93 CURVE SMOOTH",
"362 160 OFFCURVE",
"341 254 OFFCURVE",
"318 353 CURVE SMOOTH",
"295 452 OFFCURVE",
"272 556 OFFCURVE",
"193 629 CURVE SMOOTH",
"144 674 OFFCURVE",
"91 698 OFFCURVE",
"30 702 CURVE",
"30 0 LINE",
"60 0 LINE",
"60 668 LINE",
"101 659 OFFCURVE",
"137 640 OFFCURVE",
"173 607 CURVE SMOOTH",
"317 472 OFFCURVE",
"257 217 OFFCURVE",
"414 71 CURVE SMOOTH",
"459 29 OFFCURVE",
"520 2 OFFCURVE",
"577 -2 CURVE",
"577 700 LINE",
"547 700 LINE"
);
}
);
width = 607;
}
);
unicode = 004E;
},
{
glyphname = Eng;
lastChange = "2023-05-02 11:44:46 +0000";
layers = (
{
layerId = "D49323DB-BA12-4E81-A595-966915BD3B05";
paths = (
{
closed = 1;
nodes = (
"547 33 LINE",
"505 42 OFFCURVE",
"467 62 OFFCURVE",
"434 93 CURVE SMOOTH",
"363 160 OFFCURVE",
"341 255 OFFCURVE",
"318 354 CURVE SMOOTH",
"295 452 OFFCURVE",
"271 556 OFFCURVE",
"193 629 CURVE SMOOTH",
"155 665 OFFCURVE",
"102 689 OFFCURVE",
"30 704 CURVE",
"30 0 LINE",
"60 0 LINE",
"60 666 LINE",
"108 652 OFFCURVE",
"146 633 OFFCURVE",
"172 607 CURVE SMOOTH",
"317 472 OFFCURVE",
"258 217 OFFCURVE",
"414 71 CURVE SMOOTH",
"460 28 OFFCURVE",
"516 3 OFFCURVE",
"577 -2 CURVE",
"577 700 LINE",
"547 700 LINE"
);
},
{
closed = 1;
nodes = (
"346 -361 OFFCURVE",
"563 -221 OFFCURVE",
"577 0 CURVE",
"547 2 LINE",
"534 -199 OFFCURVE",
"338 -325 OFFCURVE",
"154 -252 CURVE",
"143 -280 LINE"
);
}
);
width = 612;
}
);
leftMetricsKey = N;
rightMetricsKey = J;
unicode = 014A;
},
{
glyphname = O;
lastChange = "2023-04-26 08:18:25 +0000";
layers = (
{
layerId = "D49323DB-BA12-4E81-A595-966915BD3B05";
paths = (
{
closed = 1;
nodes = (
"167 710 OFFCURVE",
"40 556 OFFCURVE",
"40 350 CURVE SMOOTH",
"40 145 OFFCURVE",
"167 -10 OFFCURVE",
"331 -10 CURVE SMOOTH",
"495 -10 OFFCURVE",
"622 145 OFFCURVE",
"622 350 CURVE SMOOTH",
"622 556 OFFCURVE",
"495 710 OFFCURVE",
"331 710 CURVE SMOOTH"
);
},
{
closed = 1;
nodes = (
"478 680 OFFCURVE",
"592 539 OFFCURVE",
"592 350 CURVE SMOOTH",
"592 161 OFFCURVE",
"478 20 OFFCURVE",
"331 20 CURVE SMOOTH",
"184 20 OFFCURVE",
"70 161 OFFCURVE",
"70 350 CURVE SMOOTH",
"70 539 OFFCURVE",
"184 680 OFFCURVE",
"331 680 CURVE SMOOTH"
);
}
);
width = 662;
}
);
unicode = 004F;
},
{
glyphname = OE;
lastChange = "2023-05-02 09:19:53 +0000";
layers = (
{
layerId = "D49323DB-BA12-4E81-A595-966915BD3B05";
paths = (
{
closed = 1;
nodes = (
"167 710 OFFCURVE",
"40 556 OFFCURVE",
"40 350 CURVE SMOOTH",
"40 145 OFFCURVE",
"167 -10 OFFCURVE",
"331 -10 CURVE SMOOTH",
"495 -10 OFFCURVE",
"622 145 OFFCURVE",
"622 350 CURVE SMOOTH",
"622 556 OFFCURVE",
"495 710 OFFCURVE",
"331 710 CURVE SMOOTH"
);
},
{
closed = 1;
nodes = (
"478 680 OFFCURVE",
"592 539 OFFCURVE",
"592 350 CURVE SMOOTH",
"592 161 OFFCURVE",
"478 20 OFFCURVE",
"331 20 CURVE SMOOTH",
"184 20 OFFCURVE",
"70 161 OFFCURVE",
"70 350 CURVE SMOOTH",
"70 539 OFFCURVE",
"184 680 OFFCURVE",
"331 680 CURVE SMOOTH"
);
},
{
closed = 1;
nodes = (
"993 52 OFFCURVE",
"958 30 OFFCURVE",
"916 30 CURVE SMOOTH",
"622 30 LINE",
"622 670 LINE",
"916 670 LINE SMOOTH",
"963 670 OFFCURVE",
"994 651 OFFCURVE",
"1005 616 CURVE",
"1034 625 LINE",
"1019 673 OFFCURVE",
"976 700 OFFCURVE",
"916 700 CURVE SMOOTH",
"592 700 LINE",
"592 0 LINE",
"916 0 LINE SMOOTH",
"970 0 OFFCURVE",
"1018 30 OFFCURVE",
"1033 75 CURVE",
"1005 85 LINE"
);
},
{
closed = 1;
nodes = (
"607 365 LINE",
"607 335 LINE",
"951 335 LINE",
"951 365 LINE"
);
}
);
width = 1051;
}
);
leftMetricsKey = O;
rightMetricsKey = E;
unicode = 0152;
},
{
glyphname = P;
lastChange = "2023-04-26 08:21:29 +0000";
layers = (
{
layerId = "D49323DB-BA12-4E81-A595-966915BD3B05";
paths = (
{
closed = 1;
nodes = (
"113 280 OFFCURVE",
"185 256 OFFCURVE",
"257 256 CURVE SMOOTH",
"419 256 OFFCURVE",
"547 360 OFFCURVE",
"547 492 CURVE SMOOTH",
"547 609 OFFCURVE",
"434 700 OFFCURVE",
"291 700 CURVE SMOOTH",
"35 700 LINE",
"35 103 LINE SMOOTH",
"35 52 OFFCURVE",
"70 7 OFFCURVE",
"116 -1 CURVE",
"121 28 LINE",
"89 34 OFFCURVE",
"65 66 OFFCURVE",
"65 103 CURVE SMOOTH",
"65 670 LINE",
"291 670 LINE SMOOTH",
"418 670 OFFCURVE",
"517 592 OFFCURVE",
"517 492 CURVE SMOOTH",
"517 377 OFFCURVE",
"402 286 OFFCURVE",
"257 286 CURVE SMOOTH",
"191 286 OFFCURVE",
"125 308 OFFCURVE",
"58 353 CURVE",
"41 328 LINE"
);
}
);
width = 587;
}
);
leftMetricsKey = H;
rightMetricsKey = O;
unicode = 0050;
},
{
glyphname = Thorn;
lastChange = "2023-05-01 17:57:20 +0000";
layers = (
{
layerId = "D49323DB-BA12-4E81-A595-966915BD3B05";
paths = (
{
closed = 1;
nodes = (
"89 34 OFFCURVE",
"65 67 OFFCURVE",
"65 105 CURVE SMOOTH",
"65 700 LINE",
"35 700 LINE",
"35 105 LINE SMOOTH",
"35 53 OFFCURVE",
"70 7 OFFCURVE",
"116 -1 CURVE",
"121 28 LINE"
);
},
{
closed = 1;
nodes = (
"105 154 OFFCURVE",
"176 130 OFFCURVE",
"256 125 CURVE SMOOTH",
"412 115 OFFCURVE",
"547 225 OFFCURVE",
"547 364 CURVE SMOOTH",
"547 483 OFFCURVE",
"434 575 OFFCURVE",
"291 575 CURVE SMOOTH",
"50 575 LINE",
"50 545 LINE",
"291 545 LINE SMOOTH",
"418 545 OFFCURVE",
"517 466 OFFCURVE",
"517 364 CURVE SMOOTH",
"517 242 OFFCURVE",
"397 146 OFFCURVE",
"257 155 CURVE SMOOTH",
"184 160 OFFCURVE",
"117 182 OFFCURVE",
"58 222 CURVE",
"41 198 LINE"
);
}
);
width = 587;
}
);
leftMetricsKey = H;
rightMetricsKey = O;
unicode = 00DE;
},
{
glyphname = Q;
lastChange = "2023-04-26 08:21:34 +0000";
layers = (
{
layerId = "D49323DB-BA12-4E81-A595-966915BD3B05";
paths = (
{
closed = 1;
nodes = (
"169 710 OFFCURVE",
"40 552 OFFCURVE",
"40 350 CURVE SMOOTH",
"40 145 OFFCURVE",
"167 -10 OFFCURVE",
"331 -10 CURVE SMOOTH",
"495 -10 OFFCURVE",
"622 144 OFFCURVE",
"622 350 CURVE SMOOTH",
"622 553 OFFCURVE",
"493 710 OFFCURVE",
"331 710 CURVE SMOOTH"
);
},
{
closed = 1;
nodes = (
"476 680 OFFCURVE",
"592 536 OFFCURVE",
"592 350 CURVE SMOOTH",
"592 161 OFFCURVE",
"478 20 OFFCURVE",
"331 20 CURVE SMOOTH",
"184 20 OFFCURVE",
"70 161 OFFCURVE",
"70 350 CURVE SMOOTH",
"70 536 OFFCURVE",
"187 680 OFFCURVE",
"331 680 CURVE SMOOTH"
);
},
{
closed = 1;
nodes = (
"612 -119 OFFCURVE",
"568 -61 OFFCURVE",
"553 38 CURVE SMOOTH",
"536 149 OFFCURVE",
"485 213 OFFCURVE",
"403 225 CURVE",
"398 196 LINE",
"467 185 OFFCURVE",
"508 132 OFFCURVE",
"524 34 CURVE SMOOTH",
"540 -77 OFFCURVE",
"593 -147 OFFCURVE",
"674 -160 CURVE",
"679 -131 LINE"
);
}
);
width = 719;
}
);
leftMetricsKey = O;
rightMetricsKey = O;
unicode = 0051;
},
{
glyphname = R;
lastChange = "2023-04-26 08:21:47 +0000";
layers = (
{
layerId = "D49323DB-BA12-4E81-A595-966915BD3B05";
paths = (
{
closed = 1;
nodes = (
"113 280 OFFCURVE",
"185 256 OFFCURVE",
"257 256 CURVE SMOOTH",
"419 256 OFFCURVE",
"547 360 OFFCURVE",
"547 492 CURVE SMOOTH",
"547 609 OFFCURVE",
"434 700 OFFCURVE",
"291 700 CURVE SMOOTH",
"35 700 LINE",
"35 103 LINE SMOOTH",
"35 52 OFFCURVE",
"70 7 OFFCURVE",
"116 -1 CURVE",
"121 28 LINE",
"89 34 OFFCURVE",
"65 66 OFFCURVE",
"65 103 CURVE SMOOTH",
"65 670 LINE",
"291 670 LINE SMOOTH",
"418 670 OFFCURVE",
"517 592 OFFCURVE",
"517 492 CURVE SMOOTH",
"517 377 OFFCURVE",
"402 286 OFFCURVE",
"257 286 CURVE SMOOTH",
"191 286 OFFCURVE",
"125 308 OFFCURVE",
"58 353 CURVE",
"41 328 LINE"
);
},
{
closed = 1;
nodes = (
"420 61 OFFCURVE",
"319 159 OFFCURVE",
"271 285 CURVE",
"243 275 LINE",
"294 141 OFFCURVE",
"404 35 OFFCURVE",
"528 0 CURVE",
"536 28 LINE"
);
}
);
width = 562;
}
);
leftMetricsKey = H;
unicode = 0052;
},
{
glyphname = S;
lastChange = "2023-04-26 08:22:12 +0000";
layers = (
{
layerId = "D49323DB-BA12-4E81-A595-966915BD3B05";
paths = (
{
closed = 1;
nodes = (
"127 67 OFFCURVE",
"220 21 OFFCURVE",
"321 0 CURVE SMOOTH",
"512 -36 OFFCURVE",
"673 59 OFFCURVE",
"653 200 CURVE SMOOTH",
"635 334 OFFCURVE",
"466 351 OFFCURVE",
"326 369 CURVE SMOOTH",
"176 390 OFFCURVE",
"105 432 OFFCURVE",
"95 505 CURVE SMOOTH",
"83 601 OFFCURVE",
"186 678 OFFCURVE",
"324 678 CURVE SMOOTH",
"419 678 OFFCURVE",
"514 644 OFFCURVE",
"594 580 CURVE",
"612 603 LINE",
"527 671 OFFCURVE",
"425 708 OFFCURVE",
"324 708 CURVE SMOOTH",
"168 708 OFFCURVE",
"51 616 OFFCURVE",
"65 501 CURVE SMOOTH",
"77 412 OFFCURVE",
"159 362 OFFCURVE",
"322 340 CURVE SMOOTH",
"463 321 OFFCURVE",
"608 307 OFFCURVE",
"624 196 CURVE SMOOTH",
"640 77 OFFCURVE",
"498 -3 OFFCURVE",
"327 30 CURVE SMOOTH",
"230 49 OFFCURVE",
"142 93 OFFCURVE",
"54 164 CURVE",
"35 140 LINE"
);
}
);
width = 695;
}
);
unicode = 0053;
},
{
glyphname = Germandbls;
lastChange = "2023-05-02 11:37:41 +0000";
layers = (
{
layerId = "D49323DB-BA12-4E81-A595-966915BD3B05";
paths = (
{
closed = 1;
nodes = (
"369 412 OFFCURVE",
"466 344 OFFCURVE",
"482 247 CURVE SMOOTH",
"502 135 OFFCURVE",
"426 30 OFFCURVE",
"325 30 CURVE SMOOTH",
"277 30 OFFCURVE",
"233 51 OFFCURVE",
"198 90 CURVE",
"176 70 LINE",
"215 25 OFFCURVE",
"269 0 OFFCURVE",
"325 0 CURVE SMOOTH",
"446 0 OFFCURVE",
"535 122 OFFCURVE",
"512 252 CURVE SMOOTH",
"494 354 OFFCURVE",
"402 429 OFFCURVE",
"294 433 CURVE",
"484 618 LINE",
"429 678 OFFCURVE",
"347 708 OFFCURVE",
"255 700 CURVE SMOOTH",
"135 690 OFFCURVE",
"35 591 OFFCURVE",
"35 480 CURVE SMOOTH",
"35 103 LINE SMOOTH",
"35 44 OFFCURVE",
"71 -1 OFFCURVE",
"118 -1 CURVE",
"118 29 LINE",
"88 29 OFFCURVE",
"65 60 OFFCURVE",
"65 103 CURVE SMOOTH",
"65 480 LINE SMOOTH",
"65 575 OFFCURVE",
"152 661 OFFCURVE",
"257 670 CURVE SMOOTH",
"330 676 OFFCURVE",
"393 658 OFFCURVE",
"441 618 CURVE",
"246 428 LINE",
"263 402 LINE"
);
}
);
width = 533;
}
);
leftMetricsKey = H;
rightMetricsKey = B;
unicode = 1E9E;
},
{
glyphname = T;
lastChange = "2023-04-26 08:22:53 +0000";
layers = (
{
layerId = "D49323DB-BA12-4E81-A595-966915BD3B05";
paths = (
{
closed = 1;
nodes = (
"571 671 OFFCURVE",
"524 700 OFFCURVE",
"478 700 CURVE SMOOTH",
"305 700 LINE",
"132 700 LINE SMOOTH",
"78 700 OFFCURVE",
"31 670 OFFCURVE",
"15 625 CURVE",
"43 615 LINE",
"55 648 OFFCURVE",
"90 670 OFFCURVE",
"132 670 CURVE SMOOTH",
"305 670 LINE",
"478 670 LINE SMOOTH",
"514 670 OFFCURVE",
"550 648 OFFCURVE",
"568 613 CURVE",
"595 627 LINE"
);
},
{
closed = 1;
nodes = (
"320 700 LINE",
"290 700 LINE",
"290 0 LINE",
"320 0 LINE"
);
}
);
width = 610;
}
);
unicode = 0054;
},
{
glyphname = Tbar;
lastChange = "2023-05-01 17:37:18 +0000";
layers = (
{
components = (
{
name = T;
}
);
layerId = "D49323DB-BA12-4E81-A595-966915BD3B05";
paths = (
{
closed = 1;
nodes = (
"135 400 LINE",
"135 370 LINE",
"480 370 LINE",
"480 400 LINE"
);
}
);
width = 610;
}
);
unicode = 0166;
},
{
glyphname = U;
lastChange = "2023-04-26 08:22:59 +0000";
layers = (
{
layerId = "D49323DB-BA12-4E81-A595-966915BD3B05";
paths = (
{
closed = 1;
nodes = (
"630 644 OFFCURVE",
"651 586 OFFCURVE",
"652 495 CURVE SMOOTH",
"652 287 LINE SMOOTH",
"651 146 OFFCURVE",
"534 30 OFFCURVE",
"392 30 CURVE SMOOTH",
"272 30 OFFCURVE",
"163 113 OFFCURVE",
"140 222 CURVE SMOOTH",
"129 278 OFFCURVE",
"132 333 OFFCURVE",
"135 389 CURVE SMOOTH",
"138 448 OFFCURVE",
"142 508 OFFCURVE",
"127 567 CURVE SMOOTH",
"111 632 OFFCURVE",
"86 678 OFFCURVE",
"52 702 CURVE",
"35 677 LINE",
"62 658 OFFCURVE",
"84 619 OFFCURVE",
"98 560 CURVE SMOOTH",
"125 453 OFFCURVE",
"86 338 OFFCURVE",
"111 216 CURVE SMOOTH",
"137 93 OFFCURVE",
"258 0 OFFCURVE",
"392 0 CURVE SMOOTH",
"550 0 OFFCURVE",
"681 130 OFFCURVE",
"682 287 CURVE SMOOTH",
"682 496 LINE SMOOTH",
"681 593 OFFCURVE",
"657 661 OFFCURVE",
"607 701 CURVE",
"588 678 LINE"
);
}
);
width = 712;
}
);
leftMetricsKey = H;
unicode = 0055;
},
{
glyphname = V;
lastChange = "2023-04-26 08:23:05 +0000";
layers = (
{
layerId = "D49323DB-BA12-4E81-A595-966915BD3B05";
paths = (
{
closed = 1;
nodes = (
"543 668 OFFCURVE",
"513 624 OFFCURVE",
"499 567 CURVE SMOOTH",
"485 512 OFFCURVE",
"482 454 OFFCURVE",
"479 398 CURVE SMOOTH",
"475 312 OFFCURVE",
"471 231 OFFCURVE",
"431 159 CURVE SMOOTH",
"388 82 OFFCURVE",
"306 34 OFFCURVE",
"214 30 CURVE",
"44 700 LINE",
"15 693 LINE",
"191 0 LINE",
"302 -4 OFFCURVE",
"406 52 OFFCURVE",
"457 145 CURVE SMOOTH",
"529 272 OFFCURVE",
"495 428 OFFCURVE",
"528 559 CURVE SMOOTH",
"539 603 OFFCURVE",
"560 642 OFFCURVE",
"594 682 CURVE",
"571 701 LINE"
);
}
);
width = 609;
}
);
unicode = 0056;
},
{
glyphname = W;
lastChange = "2023-04-26 08:23:12 +0000";
layers = (
{
layerId = "D49323DB-BA12-4E81-A595-966915BD3B05";
paths = (
{
closed = 1;
nodes = (
"437 411 OFFCURVE",
"427 351 OFFCURVE",
"416 290 CURVE SMOOTH",
"410 258 OFFCURVE",
"405 225 OFFCURVE",
"397 191 CURVE SMOOTH",
"376 103 OFFCURVE",
"319 42 OFFCURVE",
"249 31 CURVE",
"44 700 LINE",
"15 691 LINE",
"227 -1 LINE",
"322 0 OFFCURVE",
"401 75 OFFCURVE",
"426 185 CURVE SMOOTH",
"449 282 OFFCURVE",
"454 371 OFFCURVE",
"488 460 CURVE",
"460 470 LINE"
);
},
{
closed = 1;
nodes = (
"852 669 OFFCURVE",
"829 627 OFFCURVE",
"813 567 CURVE SMOOTH",
"795 507 OFFCURVE",
"793 444 OFFCURVE",
"790 383 CURVE SMOOTH",
"787 302 OFFCURVE",
"783 226 OFFCURVE",
"746 159 CURVE SMOOTH",
"710 100 OFFCURVE",
"657 56 OFFCURVE",
"596 34 CURVE",
"426 700 LINE",
"397 693 LINE",
"574 -4 LINE",
"655 15 OFFCURVE",
"726 69 OFFCURVE",
"771 144 CURVE SMOOTH",
"844 272 OFFCURVE",
"802 425 OFFCURVE",
"842 559 CURVE SMOOTH",
"856 614 OFFCURVE",
"877 651 OFFCURVE",
"907 679 CURVE",
"887 702 LINE"
);
}
);
width = 922;
}
);
unicode = 0057;
},
{
glyphname = X;
lastChange = "2023-04-26 08:23:31 +0000";
layers = (
{
layerId = "D49323DB-BA12-4E81-A595-966915BD3B05";
paths = (
{
closed = 1;
nodes = (
"446 74 OFFCURVE",
"343 199 OFFCURVE",
"316 353 CURVE SMOOTH",
"287 519 OFFCURVE",
"180 650 OFFCURVE",
"30 701 CURVE",
"20 672 LINE",
"160 625 OFFCURVE",
"259 503 OFFCURVE",
"286 347 CURVE SMOOTH",
"316 184 OFFCURVE",
"426 49 OFFCURVE",
"572 0 CURVE",
"582 28 LINE"
);
},
{
closed = 1;
nodes = (
"197 28 OFFCURVE",
"316 172 OFFCURVE",
"316 350 CURVE SMOOTH",
"316 513 OFFCURVE",
"430 651 OFFCURVE",
"579 671 CURVE",
"575 700 LINE",
"411 679 OFFCURVE",
"286 528 OFFCURVE",
"286 350 CURVE SMOOTH",
"286 186 OFFCURVE",
"178 55 OFFCURVE",
"22 29 CURVE",
"27 0 LINE"
);
}
);
width = 602;
}
);
unicode = 0058;
},
{
glyphname = Y;
lastChange = "2023-04-26 08:23:45 +0000";
layers = (
{
layerId = "D49323DB-BA12-4E81-A595-966915BD3B05";
paths = (
{
closed = 1;
nodes = (
"464 678 OFFCURVE",
"440 632 OFFCURVE",
"423 564 CURVE SMOOTH",
"413 525 OFFCURVE",
"412 486 OFFCURVE",
"410 448 CURVE SMOOTH",
"409 416 OFFCURVE",
"408 385 OFFCURVE",
"402 353 CURVE SMOOTH",
"389 279 OFFCURVE",
"330 225 OFFCURVE",
"265 225 CURVE SMOOTH",
"200 225 OFFCURVE",
"141 279 OFFCURVE",
"128 353 CURVE SMOOTH",
"122 385 OFFCURVE",
"121 416 OFFCURVE",
"120 448 CURVE SMOOTH",
"118 486 OFFCURVE",
"117 525 OFFCURVE",
"107 564 CURVE SMOOTH",
"90 632 OFFCURVE",
"66 678 OFFCURVE",
"32 702 CURVE",
"15 677 LINE",
"42 658 OFFCURVE",
"63 619 OFFCURVE",
"78 556 CURVE SMOOTH",
"94 490 OFFCURVE",
"85 421 OFFCURVE",
"99 347 CURVE SMOOTH",
"114 260 OFFCURVE",
"185 195 OFFCURVE",
"265 195 CURVE SMOOTH",
"345 195 OFFCURVE",
"416 260 OFFCURVE",
"431 347 CURVE SMOOTH",
"445 421 OFFCURVE",
"436 490 OFFCURVE",
"452 556 CURVE SMOOTH",
"467 619 OFFCURVE",
"488 658 OFFCURVE",
"515 677 CURVE",
"498 702 LINE"
);
},
{
closed = 1;
nodes = (
"280 210 LINE",
"250 210 LINE",
"250 0 LINE",
"280 0 LINE"
);
}
);
width = 530;
}
);
unicode = 0059;
},
{
glyphname = Z;
lastChange = "2023-04-26 08:23:54 +0000";
layers = (
{
layerId = "D49323DB-BA12-4E81-A595-966915BD3B05";
paths = (
{
closed = 1;
nodes = (
"570 84 OFFCURVE",
"516 30 OFFCURVE",
"454 30 CURVE SMOOTH",
"64 30 LINE",
"123 150 OFFCURVE",
"218 246 OFFCURVE",
"325 338 CURVE SMOOTH",
"448 443 OFFCURVE",
"547 564 OFFCURVE",
"577 700 CURVE",
"100 700 LINE",
"26 557 LINE",
"53 543 LINE",
"118 670 LINE",
"538 670 LINE",
"503 555 OFFCURVE",
"413 454 OFFCURVE",
"307 362 CURVE SMOOTH",
"185 256 OFFCURVE",
"78 142 OFFCURVE",
"17 0 CURVE",
"454 0 LINE SMOOTH",
"532 0 OFFCURVE",
"599 66 OFFCURVE",
"607 148 CURVE",
"577 151 LINE"
);
}
);
width = 627;
}
);
unicode = 005A;
},
{
glyphname = a;
lastChange = "2023-04-26 08:13:50 +0000";
layers = (
{
layerId = "D49323DB-BA12-4E81-A595-966915BD3B05";
paths = (
{
closed = 1;
nodes = (
"517 30 OFFCURVE",
"502 47 OFFCURVE",
"489 75 CURVE SMOOTH",
"472 117 OFFCURVE",
"476 162 OFFCURVE",
"481 211 CURVE SMOOTH",
"486 257 OFFCURVE",
"491 305 OFFCURVE",
"476 351 CURVE SMOOTH",
"447 440 OFFCURVE",
"357 500 OFFCURVE",
"250 500 CURVE SMOOTH",
"183 500 OFFCURVE",
"116 474 OFFCURVE",
"65 429 CURVE",
"85 407 LINE",
"130 448 OFFCURVE",
"189 470 OFFCURVE",
"250 470 CURVE SMOOTH",
"344 470 OFFCURVE",
"423 419 OFFCURVE",
"447 342 CURVE SMOOTH",
"474 259 OFFCURVE",
"424 156 OFFCURVE",
"462 63 CURVE SMOOTH",
"478 26 OFFCURVE",
"502 3 OFFCURVE",
"530 -2 CURVE",
"535 27 LINE"
);
},
{
closed = 1;
nodes = (
"403 55 OFFCURVE",
"328 33 OFFCURVE",
"249 30 CURVE SMOOTH",
"139 25 OFFCURVE",
"55 78 OFFCURVE",
"55 154 CURVE SMOOTH",
"55 231 OFFCURVE",
"139 285 OFFCURVE",
"249 279 CURVE SMOOTH",
"321 275 OFFCURVE",
"392 252 OFFCURVE",
"453 211 CURVE",
"470 236 LINE",
"404 279 OFFCURVE",
"328 305 OFFCURVE",
"251 309 CURVE SMOOTH",
"124 316 OFFCURVE",
"25 249 OFFCURVE",
"25 154 CURVE SMOOTH",
"25 60 OFFCURVE",
"123 -6 OFFCURVE",
"251 0 CURVE SMOOTH",
"334 3 OFFCURVE",
"414 26 OFFCURVE",
"483 68 CURVE",
"468 94 LINE"
);
}
);
width = 555;
}
);
unicode = 0061;
},
{
glyphname = ae;
lastChange = "2023-05-02 11:01:30 +0000";
layers = (
{
layerId = "D49323DB-BA12-4E81-A595-966915BD3B05";
paths = (
{
closed = 1;
nodes = (
"824 29 OFFCURVE",
"730 4 OFFCURVE",
"644 29 CURVE SMOOTH",
"545 58 OFFCURVE",
"478 147 OFFCURVE",
"478 249 CURVE SMOOTH",
"478 261 OFFCURVE",
"479 272 OFFCURVE",
"479 284 CURVE SMOOTH",
"481 306 OFFCURVE",
"482 329 OFFCURVE",
"478 353 CURVE SMOOTH",
"463 439 OFFCURVE",
"368 500 OFFCURVE",
"252 500 CURVE SMOOTH",
"188 500 OFFCURVE",
"121 475 OFFCURVE",
"65 430 CURVE",
"84 407 LINE",
"135 447 OFFCURVE",
"194 470 OFFCURVE",
"252 470 CURVE SMOOTH",
"354 470 OFFCURVE",
"436 419 OFFCURVE",
"449 348 CURVE SMOOTH",
"454 316 OFFCURVE",
"448 284 OFFCURVE",
"448 249 CURVE SMOOTH",
"448 134 OFFCURVE",
"524 33 OFFCURVE",
"636 0 CURVE SMOOTH",
"733 -28 OFFCURVE",
"840 1 OFFCURVE",
"899 72 CURVE",
"876 91 LINE"
);
},
{
closed = 1;
nodes = (
"431 65 OFFCURVE",
"347 30 OFFCURVE",
"252 30 CURVE SMOOTH",
"137 30 OFFCURVE",
"49 98 OFFCURVE",
"55 182 CURVE SMOOTH",
"60 254 OFFCURVE",
"148 308 OFFCURVE",
"251 302 CURVE SMOOTH",
"315 298 OFFCURVE",
"380 277 OFFCURVE",
"456 237 CURVE SMOOTH",
"527 203 OFFCURVE",
"601 174 OFFCURVE",
"675 168 CURVE SMOOTH",
"792 160 OFFCURVE",
"891 224 OFFCURVE",
"903 315 CURVE SMOOTH",
"917 424 OFFCURVE",
"804 514 OFFCURVE",
"674 500 CURVE SMOOTH",
"546 485 OFFCURVE",
"448 373 OFFCURVE",
"448 240 CURVE",
"478 240 LINE",
"478 357 OFFCURVE",
"565 457 OFFCURVE",
"678 470 CURVE SMOOTH",
"789 482 OFFCURVE",
"885 408 OFFCURVE",
"873 319 CURVE SMOOTH",
"864 244 OFFCURVE",
"779 191 OFFCURVE",
"677 198 CURVE SMOOTH",
"608 203 OFFCURVE",
"539 231 OFFCURVE",
"470 263 CURVE SMOOTH",
"406 297 OFFCURVE",
"333 327 OFFCURVE",
"252 332 CURVE SMOOTH",
"134 338 OFFCURVE",
"31 273 OFFCURVE",
"25 184 CURVE SMOOTH",
"18 82 OFFCURVE",
"120 0 OFFCURVE",
"252 0 CURVE SMOOTH",
"355 0 OFFCURVE",
"448 39 OFFCURVE",
"514 109 CURVE",
"492 129 LINE"
);
}
);
width = 929;
}
);
leftMetricsKey = a;
rightMetricsKey = e;
unicode = 00E6;
},
{
glyphname = b;
lastChange = "2023-04-26 08:05:25 +0000";
layers = (
{
layerId = "D49323DB-BA12-4E81-A595-966915BD3B05";
paths = (
{
closed = 1;
nodes = (
"127 385 OFFCURVE",
"230 464 OFFCURVE",
"350 471 CURVE SMOOTH",
"497 477 OFFCURVE",
"619 377 OFFCURVE",
"617 251 CURVE SMOOTH",
"614 128 OFFCURVE",
"496 31 OFFCURVE",
"349 30 CURVE SMOOTH",
"258 28 OFFCURVE",
"179 64 OFFCURVE",
"134 128 CURVE SMOOTH",
"75 214 OFFCURVE",
"91 313 OFFCURVE",
"107 421 CURVE SMOOTH",
"119 496 OFFCURVE",
"131 575 OFFCURVE",
"115 650 CURVE SMOOTH",
"103 707 OFFCURVE",
"75 758 OFFCURVE",
"39 788 CURVE",
"20 765 LINE",
"51 739 OFFCURVE",
"75 695 OFFCURVE",
"86 644 CURVE SMOOTH",
"121 476 OFFCURVE",
"0 269 OFFCURVE",
"110 111 CURVE SMOOTH",
"160 39 OFFCURVE",
"249 -2 OFFCURVE",
"349 0 CURVE SMOOTH",
"512 1 OFFCURVE",
"643 111 OFFCURVE",
"646 250 CURVE SMOOTH",
"650 393 OFFCURVE",
"513 508 OFFCURVE",
"348 500 CURVE SMOOTH",
"216 494 OFFCURVE",
"102 405 OFFCURVE",
"66 280 CURVE",
"95 272 LINE"
);
}
);
width = 676;
}
);
leftMetricsKey = n;
rightMetricsKey = o;
unicode = 0062;
},
{
glyphname = c;
lastChange = "2023-04-26 08:05:36 +0000";
layers = (
{
layerId = "D49323DB-BA12-4E81-A595-966915BD3B05";
paths = (
{
closed = 1;
nodes = (
"422 40 OFFCURVE",
"338 17 OFFCURVE",
"255 35 CURVE SMOOTH",
"131 60 OFFCURVE",
"58 166 OFFCURVE",
"60 261 CURVE SMOOTH",
"63 370 OFFCURVE",
"153 446 OFFCURVE",
"255 465 CURVE SMOOTH",
"337 477 OFFCURVE",
"422 454 OFFCURVE",
"483 404 CURVE",
"502 427 LINE",
"435 482 OFFCURVE",
"340 508 OFFCURVE",
"250 495 CURVE SMOOTH",
"136 473 OFFCURVE",
"35 387 OFFCURVE",
"30 265 CURVE SMOOTH",
"26 153 OFFCURVE",
"110 34 OFFCURVE",
"249 6 CURVE SMOOTH",
"340 -14 OFFCURVE",
"436 12 OFFCURVE",
"503 75 CURVE",
"482 97 LINE"
);
}
);
width = 528;
}
);
leftMetricsKey = o;
unicode = 0063;
},
{
glyphname = d;
lastChange = "2023-04-26 08:06:45 +0000";
layers = (
{
layerId = "D49323DB-BA12-4E81-A595-966915BD3B05";
paths = (
{
closed = 1;
nodes = (
"640 29 OFFCURVE",
"631 40 OFFCURVE",
"615 66 CURVE SMOOTH",
"612 71 OFFCURVE",
"609 75 OFFCURVE",
"607 79 CURVE SMOOTH",
"562 175 OFFCURVE",
"574 279 OFFCURVE",
"586 388 CURVE SMOOTH",
"596 473 OFFCURVE",
"606 561 OFFCURVE",
"587 645 CURVE SMOOTH",
"570 713 OFFCURVE",
"547 761 OFFCURVE",
"513 795 CURVE",
"492 774 LINE",
"522 744 OFFCURVE",
"542 702 OFFCURVE",
"558 638 CURVE SMOOTH",
"599 461 OFFCURVE",
"495 247 OFFCURVE",
"580 65 CURVE SMOOTH",
"581 63 LINE SMOOTH",
"595 43 OFFCURVE",
"611 10 OFFCURVE",
"636 -3 CURVE",
"650 24 LINE"
);
},
{
closed = 1;
nodes = (
"498 72 OFFCURVE",
"409 30 OFFCURVE",
"327 30 CURVE SMOOTH",
"181 30 OFFCURVE",
"60 130 OFFCURVE",
"60 250 CURVE SMOOTH",
"60 372 OFFCURVE",
"169 470 OFFCURVE",
"306 470 CURVE",
"404 476 OFFCURVE",
"499 426 OFFCURVE",
"553 338 CURVE",
"578 354 LINE",
"519 450 OFFCURVE",
"413 507 OFFCURVE",
"305 500 CURVE",
"153 500 OFFCURVE",
"30 389 OFFCURVE",
"30 250 CURVE SMOOTH",
"30 113 OFFCURVE",
"165 0 OFFCURVE",
"327 0 CURVE SMOOTH",
"417 0 OFFCURVE",
"515 46 OFFCURVE",
"583 122 CURVE",
"561 142 LINE"
);
}
);
width = 675;
}
);
leftMetricsKey = o;
rightMetricsKey = n;
unicode = 0064;
},
{
glyphname = e;
lastChange = "2023-04-26 08:06:57 +0000";
layers = (
{
layerId = "D49323DB-BA12-4E81-A595-966915BD3B05";
paths = (
{
closed = 1;
nodes = (
"112 226 OFFCURVE",
"192 202 OFFCURVE",
"275 194 CURVE SMOOTH",
"404 184 OFFCURVE",
"504 240 OFFCURVE",
"514 332 CURVE SMOOTH",
"521 425 OFFCURVE",
"420 500 OFFCURVE",
"301 500 CURVE SMOOTH",
"159 499 OFFCURVE",
"52 409 OFFCURVE",
"33 287 CURVE SMOOTH",
"12 156 OFFCURVE",
"108 33 OFFCURVE",
"253 6 CURVE SMOOTH",
"343 -13 OFFCURVE",
"439 13 OFFCURVE",
"509 74 CURVE",
"489 96 LINE",
"426 41 OFFCURVE",
"341 19 OFFCURVE",
"259 35 CURVE SMOOTH",
"130 59 OFFCURVE",
"44 168 OFFCURVE",
"62 282 CURVE SMOOTH",
"79 390 OFFCURVE",
"174 469 OFFCURVE",
"301 470 CURVE SMOOTH",
"402 470 OFFCURVE",
"490 409 OFFCURVE",
"484 335 CURVE SMOOTH",
"476 261 OFFCURVE",
"390 215 OFFCURVE",
"277 224 CURVE SMOOTH",
"199 231 OFFCURVE",
"122 254 OFFCURVE",
"55 290 CURVE",
"41 264 LINE"
);
}
);
width = 539;
}
);
leftMetricsKey = o;
unicode = 0065;
},
{
glyphname = f;
lastChange = "2023-04-26 08:14:03 +0000";
layers = (
{
layerId = "D49323DB-BA12-4E81-A595-966915BD3B05";
paths = (
{
closed = 1;
nodes = (
"68 -276 OFFCURVE",
"94 -248 OFFCURVE",
"112 -216 CURVE SMOOTH",
"200 -66 OFFCURVE",
"175 106 OFFCURVE",
"151 273 CURVE SMOOTH",
"139 357 OFFCURVE",
"127 440 OFFCURVE",
"128 520 CURVE",
"137 634 OFFCURVE",
"196 723 OFFCURVE",
"280 750 CURVE SMOOTH",
"360 774 OFFCURVE",
"448 760 OFFCURVE",
"509 715 CURVE",
"527 740 LINE",
"459 789 OFFCURVE",
"360 805 OFFCURVE",
"272 779 CURVE SMOOTH",
"174 748 OFFCURVE",
"107 648 OFFCURVE",
"99 522 CURVE",
"94 273 OFFCURVE",
"211 13 OFFCURVE",
"86 -202 CURVE SMOOTH",
"71 -229 OFFCURVE",
"48 -253 OFFCURVE",
"25 -266 CURVE",
"40 -292 LINE"
);
},
{
closed = 1;
nodes = (
"378 372 OFFCURVE",
"306 372 OFFCURVE",
"238 384 CURVE SMOOTH",
"172 396 OFFCURVE",
"97 408 OFFCURVE",
"28 383 CURVE",
"38 355 LINE",
"100 378 OFFCURVE",
"167 366 OFFCURVE",
"233 354 CURVE SMOOTH",
"304 341 OFFCURVE",
"380 341 OFFCURVE",
"440 354 CURVE",
"433 384 LINE"
);
}
);
width = 502;
}
);
unicode = 0066;
},
{
glyphname = g;
lastChange = "2023-04-26 08:15:18 +0000";
layers = (
{
layerId = "D49323DB-BA12-4E81-A595-966915BD3B05";
paths = (
{
closed = 1;
nodes = (
"146 500 OFFCURVE",
"36 436 OFFCURVE",
"36 322 CURVE SMOOTH",
"36 208 OFFCURVE",
"146 127 OFFCURVE",
"297 127 CURVE SMOOTH",
"447 127 OFFCURVE",
"562 210 OFFCURVE",
"562 322 CURVE SMOOTH",
"562 434 OFFCURVE",
"447 500 OFFCURVE",
"297 500 CURVE SMOOTH"
);
},
{
closed = 1;
nodes = (
"430 470 OFFCURVE",
"532 416 OFFCURVE",
"532 322 CURVE SMOOTH",
"532 228 OFFCURVE",
"430 157 OFFCURVE",
"297 157 CURVE SMOOTH",
"163 157 OFFCURVE",
"66 225 OFFCURVE",
"66 322 CURVE SMOOTH",
"66 419 OFFCURVE",
"163 470 OFFCURVE",
"297 470 CURVE SMOOTH"
);
},
{
closed = 1;
nodes = (
"526 520 OFFCURVE",
"490 480 OFFCURVE",
"446 473 CURVE",
"451 443 LINE",
"508 453 OFFCURVE",
"554 503 OFFCURVE",
"562 564 CURVE",
"532 568 LINE"
);
},
{
closed = 1;
nodes = (
"62 22 OFFCURVE",
"13 -63 OFFCURVE",
"36 -152 CURVE SMOOTH",
"60 -241 OFFCURVE",
"151 -288 OFFCURVE",
"297 -289 CURVE SMOOTH",
"480 -290 OFFCURVE",
"591 -229 OFFCURVE",
"596 -119 CURVE SMOOTH",
"604 -8 OFFCURVE",
"488 64 OFFCURVE",
"323 59 CURVE SMOOTH",
"160 54 OFFCURVE",
"66 42 OFFCURVE",
"66 113 CURVE SMOOTH",
"66 169 OFFCURVE",
"128 203 OFFCURVE",
"199 247 CURVE",
"184 273 LINE",
"113 229 OFFCURVE",
"36 187 OFFCURVE",
"36 112 CURVE SMOOTH",
"36 -7 OFFCURVE",
"208 28 OFFCURVE",
"324 29 CURVE SMOOTH",
"472 30 OFFCURVE",
"573 -22 OFFCURVE",
"566 -118 CURVE SMOOTH",
"559 -209 OFFCURVE",
"460 -261 OFFCURVE",
"297 -259 CURVE SMOOTH",
"194 -258 OFFCURVE",
"89 -235 OFFCURVE",
"65 -144 CURVE SMOOTH",
"46 -71 OFFCURVE",
"86 -2 OFFCURVE",
"160 25 CURVE",
"152 54 LINE"
);
}
);
width = 616;
}
);
unicode = 0067;
},
{
glyphname = h;
lastChange = "2023-04-26 08:07:30 +0000";
layers = (
{
layerId = "D49323DB-BA12-4E81-A595-966915BD3B05";
paths = (
{
closed = 1;
nodes = (
"168 29 OFFCURVE",
"153 44 OFFCURVE",
"135 82 CURVE SMOOTH",
"93 172 OFFCURVE",
"102 255 OFFCURVE",
"117 381 CURVE SMOOTH",
"128 469 OFFCURVE",
"139 560 OFFCURVE",
"116 646 CURVE SMOOTH",
"100 708 OFFCURVE",
"77 753 OFFCURVE",
"41 786 CURVE",
"20 765 LINE",
"52 735 OFFCURVE",
"73 696 OFFCURVE",
"87 639 CURVE SMOOTH",
"133 463 OFFCURVE",
"20 244 OFFCURVE",
"110 63 CURVE SMOOTH",
"121 41 OFFCURVE",
"139 10 OFFCURVE",
"165 -3 CURVE",
"178 24 LINE"
);
},
{
closed = 1;
nodes = (
"586 31 OFFCURVE",
"574 46 OFFCURVE",
"559 76 CURVE SMOOTH",
"543 117 OFFCURVE",
"546 160 OFFCURVE",
"549 207 CURVE SMOOTH",
"553 253 OFFCURVE",
"557 303 OFFCURVE",
"538 351 CURVE SMOOTH",
"509 443 OFFCURVE",
"422 500 OFFCURVE",
"312 500 CURVE SMOOTH",
"219 500 OFFCURVE",
"134 445 OFFCURVE",
"88 354 CURVE",
"112 340 LINE",
"156 422 OFFCURVE",
"230 470 OFFCURVE",
"313 470 CURVE SMOOTH",
"408 470 OFFCURVE",
"480 420 OFFCURVE",
"510 341 CURVE SMOOTH",
"542 255 OFFCURVE",
"492 162 OFFCURVE",
"532 63 CURVE SMOOTH",
"550 27 OFFCURVE",
"566 8 OFFCURVE",
"588 -3 CURVE",
"601 24 LINE"
);
}
);
width = 626;
}
);
leftMetricsKey = n;
rightMetricsKey = n;
unicode = 0068;
},
{
glyphname = i;
lastChange = "2023-04-26 08:14:40 +0000";
layers = (
{
layerId = "D49323DB-BA12-4E81-A595-966915BD3B05";
paths = (
{
closed = 1;
nodes = (
"223 34 OFFCURVE",
"205 52 OFFCURVE",
"194 76 CURVE SMOOTH",
"156 161 OFFCURVE",
"182 277 OFFCURVE",
"182 348 CURVE SMOOTH",
"182 437 OFFCURVE",
"152 488 OFFCURVE",
"90 505 CURVE",
"15 355 LINE",
"42 342 LINE",
"105 467 LINE",
"137 448 OFFCURVE",
"152 411 OFFCURVE",
"152 348 CURVE SMOOTH",
"152 259 OFFCURVE",
"124 158 OFFCURVE",
"167 63 CURVE SMOOTH",
"180 34 OFFCURVE",
"204 10 OFFCURVE",
"229 -3 CURVE",
"243 24 LINE"
);
},
{
closed = 1;
nodes = (
"152 732 OFFCURVE",
"142 689 OFFCURVE",
"120 655 CURVE",
"145 639 LINE",
"170 678 OFFCURVE",
"182 726 OFFCURVE",
"182 790 CURVE",
"152 790 LINE"
);
}
);
width = 268;
}
);
rightMetricsKey = n;
unicode = 0069;
},
{
glyphname = idotless;
lastChange = "2023-05-01 14:02:26 +0000";
layers = (
{
layerId = "D49323DB-BA12-4E81-A595-966915BD3B05";
paths = (
{
closed = 1;
nodes = (
"223 34 OFFCURVE",
"205 52 OFFCURVE",
"194 76 CURVE SMOOTH",
"156 161 OFFCURVE",
"182 277 OFFCURVE",
"182 348 CURVE SMOOTH",
"182 437 OFFCURVE",
"152 488 OFFCURVE",
"90 505 CURVE",
"15 355 LINE",
"42 342 LINE",
"105 467 LINE",
"137 448 OFFCURVE",
"152 411 OFFCURVE",
"152 348 CURVE SMOOTH",
"152 259 OFFCURVE",
"124 158 OFFCURVE",
"167 63 CURVE SMOOTH",
"180 34 OFFCURVE",
"204 10 OFFCURVE",
"229 -3 CURVE",
"243 24 LINE"
);
}
);
width = 268;
}
);
rightMetricsKey = n;
unicode = 0131;
},
{
glyphname = j;
lastChange = "2023-04-26 08:08:25 +0000";
layers = (
{
layerId = "D49323DB-BA12-4E81-A595-966915BD3B05";
paths = (
{
closed = 1;
nodes = (
"104 -246 OFFCURVE",
"148 -174 OFFCURVE",
"171 -82 CURVE SMOOTH",
"206 55 OFFCURVE",
"192 206 OFFCURVE",
"185 347 CURVE SMOOTH",
"181 427 OFFCURVE",
"150 484 OFFCURVE",
"95 508 CURVE",
"20 355 LINE",
"47 341 LINE",
"108 465 LINE",
"136 441 OFFCURVE",
"153 400 OFFCURVE",
"155 345 CURVE SMOOTH",
"162 204 OFFCURVE",
"176 58 OFFCURVE",
"142 -74 CURVE SMOOTH",
"120 -160 OFFCURVE",
"80 -226 OFFCURVE",
"25 -267 CURVE",
"43 -291 LINE"
);
},
{
closed = 1;
nodes = (
"146 732 OFFCURVE",
"136 689 OFFCURVE",
"114 654 CURVE",
"140 638 LINE",
"164 678 OFFCURVE",
"176 727 OFFCURVE",
"176 790 CURVE",
"146 790 LINE"
);
}
);
width = 219;
}
);
leftMetricsKey = n;
rightMetricsKey = n;
unicode = 006A;
},
{
glyphname = k;
lastChange = "2023-04-26 08:08:36 +0000";
layers = (
{
layerId = "D49323DB-BA12-4E81-A595-966915BD3B05";
paths = (
{
closed = 1;
nodes = (
"160 34 OFFCURVE",
"141 54 OFFCURVE",
"129 78 CURVE SMOOTH",
"81 176 OFFCURVE",
"95 283 OFFCURVE",
"111 395 CURVE SMOOTH",
"122 480 OFFCURVE",
"134 567 OFFCURVE",
"116 650 CURVE SMOOTH",
"104 708 OFFCURVE",
"79 756 OFFCURVE",
"41 792 CURVE",
"20 770 LINE",
"54 738 OFFCURVE",
"76 696 OFFCURVE",
"87 644 CURVE SMOOTH",
"125 465 OFFCURVE",
"12 248 OFFCURVE",
"102 65 CURVE SMOOTH",
"117 35 OFFCURVE",
"140 10 OFFCURVE",
"166 -3 CURVE",
"179 24 LINE"
);
},
{
closed = 1;
nodes = (
"178 435 OFFCURVE",
"248 462 OFFCURVE",
"319 474 CURVE SMOOTH",
"423 492 OFFCURVE",
"553 459 OFFCURVE",
"548 360 CURVE SMOOTH",
"543 263 OFFCURVE",
"414 217 OFFCURVE",
"284 266 CURVE SMOOTH",
"234 284 OFFCURVE",
"180 314 OFFCURVE",
"116 362 CURVE"
);
},
{
closed = 1;
nodes = (
"85 347 LINE",
"143 304 OFFCURVE",
"207 261 OFFCURVE",
"274 237 CURVE SMOOTH",
"423 182 OFFCURVE",
"572 239 OFFCURVE",
"578 358 CURVE SMOOTH",
"584 479 OFFCURVE",
"436 525 OFFCURVE",
"312 503 CURVE SMOOTH",
"233 489 OFFCURVE",
"149 452 OFFCURVE",
"83 369 CURVE"
);
},
{
closed = 1;
nodes = (
"467 29 OFFCURVE",
"342 121 OFFCURVE",
"293 256 CURVE",
"264 246 LINE",
"318 100 OFFCURVE",
"455 -1 OFFCURVE",
"598 0 CURVE",
"598 30 LINE"
);
}
);
width = 608;
}
);
leftMetricsKey = n;
unicode = 006B;
},
{
glyphname = l;
lastChange = "2023-04-26 08:08:44 +0000";
layers = (
{
layerId = "D49323DB-BA12-4E81-A595-966915BD3B05";
paths = (
{
closed = 1;
nodes = (
"168 29 OFFCURVE",
"160 40 OFFCURVE",
"143 66 CURVE SMOOTH",
"141 70 OFFCURVE",
"138 75 OFFCURVE",
"135 79 CURVE",
"91 172 OFFCURVE",
"104 274 OFFCURVE",
"117 381 CURVE SMOOTH",
"128 469 OFFCURVE",
"139 560 OFFCURVE",
"116 646 CURVE SMOOTH",
"100 708 OFFCURVE",
"77 753 OFFCURVE",
"41 786 CURVE",
"20 765 LINE",
"52 735 OFFCURVE",
"73 696 OFFCURVE",
"87 639 CURVE SMOOTH",
"134 461 OFFCURVE",
"23 247 OFFCURVE",
"109 65 CURVE SMOOTH",
"110 63 LINE SMOOTH",
"123 42 OFFCURVE",
"139 10 OFFCURVE",
"165 -3 CURVE",
"178 24 LINE"
);
}
);
width = 203;
}
);
leftMetricsKey = n;
rightMetricsKey = n;
unicode = 006C;
},
{
glyphname = lslash;
lastChange = "2023-05-02 08:10:59 +0000";
layers = (
{
components = (
{
name = l;
}
);
layerId = "D49323DB-BA12-4E81-A595-966915BD3B05";
paths = (
{
closed = 1;
nodes = (
"-18 343 LINE",
"-6 315 LINE",
"235 421 LINE",
"223 448 LINE"
);
}
);
width = 203;
}
);
unicode = 0142;
},
{
glyphname = m;
lastChange = "2023-04-26 08:08:51 +0000";
layers = (
{
layerId = "D49323DB-BA12-4E81-A595-966915BD3B05";
paths = (
{
closed = 1;
nodes = (
"157 34 OFFCURVE",
"136 52 OFFCURVE",
"126 77 CURVE SMOOTH",
"106 129 OFFCURVE",
"111 182 OFFCURVE",
"114 239 CURVE SMOOTH",
"117 278 OFFCURVE",
"119 319 OFFCURVE",
"113 359 CURVE SMOOTH",
"105 427 OFFCURVE",
"78 477 OFFCURVE",
"35 501 CURVE",
"20 475 LINE",
"55 456 OFFCURVE",
"76 415 OFFCURVE",
"84 355 CURVE SMOOTH",
"97 265 OFFCURVE",
"61 163 OFFCURVE",
"99 65 CURVE SMOOTH",
"111 34 OFFCURVE",
"137 10 OFFCURVE",
"163 -3 CURVE",
"176 24 LINE"
);
},
{
closed = 1;
nodes = (
"546 34 OFFCURVE",
"526 51 OFFCURVE",
"516 76 CURVE SMOOTH",
"498 119 OFFCURVE",
"503 164 OFFCURVE",
"508 213 CURVE SMOOTH",
"512 257 OFFCURVE",
"517 305 OFFCURVE",
"502 351 CURVE SMOOTH",
"472 447 OFFCURVE",
"380 507 OFFCURVE",
"274 500 CURVE SMOOTH",
"191 492 OFFCURVE",
"115 433 OFFCURVE",
"85 352 CURVE",
"113 342 LINE",
"139 412 OFFCURVE",
"205 463 OFFCURVE",
"277 470 CURVE SMOOTH",
"369 476 OFFCURVE",
"447 425 OFFCURVE",
"474 342 CURVE SMOOTH",
"500 257 OFFCURVE",
"449 160 OFFCURVE",
"489 63 CURVE SMOOTH",
"501 33 OFFCURVE",
"527 10 OFFCURVE",
"552 -3 CURVE",
"565 24 LINE"
);
},
{
closed = 1;
nodes = (
"935 34 OFFCURVE",
"915 51 OFFCURVE",
"905 76 CURVE SMOOTH",
"887 119 OFFCURVE",
"893 164 OFFCURVE",
"897 213 CURVE SMOOTH",
"902 257 OFFCURVE",
"906 305 OFFCURVE",
"892 351 CURVE SMOOTH",
"861 447 OFFCURVE",
"770 507 OFFCURVE",
"664 500 CURVE SMOOTH",
"580 492 OFFCURVE",
"504 433 OFFCURVE",
"474 352 CURVE",
"502 342 LINE",
"528 412 OFFCURVE",
"594 463 OFFCURVE",
"666 470 CURVE SMOOTH",
"758 476 OFFCURVE",
"837 425 OFFCURVE",
"863 342 CURVE SMOOTH",
"889 258 OFFCURVE",
"839 158 OFFCURVE",
"878 63 CURVE SMOOTH",
"890 33 OFFCURVE",
"916 10 OFFCURVE",
"942 -3 CURVE",
"955 24 LINE"
);
}
);
width = 980;
}
);
leftMetricsKey = n;
rightMetricsKey = n;
unicode = 006D;
},
{
glyphname = n;
lastChange = "2023-04-26 08:02:06 +0000";
layers = (
{
layerId = "D49323DB-BA12-4E81-A595-966915BD3B05";
paths = (
{
closed = 1;
nodes = (
"156 34 OFFCURVE",
"138 53 OFFCURVE",
"126 77 CURVE SMOOTH",
"107 129 OFFCURVE",
"110 182 OFFCURVE",
"114 239 CURVE SMOOTH",
"116 278 OFFCURVE",
"119 319 OFFCURVE",
"113 359 CURVE SMOOTH",
"105 427 OFFCURVE",
"78 477 OFFCURVE",
"35 501 CURVE",
"20 475 LINE",
"54 456 OFFCURVE",
"76 415 OFFCURVE",
"83 355 CURVE SMOOTH",
"97 265 OFFCURVE",
"61 163 OFFCURVE",
"98 66 CURVE",
"99 65 LINE SMOOTH",
"114 35 OFFCURVE",
"137 10 OFFCURVE",
"162 -3 CURVE",
"176 24 LINE"
);
},
{
closed = 1;
nodes = (
"579 34 OFFCURVE",
"561 52 OFFCURVE",
"549 76 CURVE SMOOTH",
"532 119 OFFCURVE",
"536 164 OFFCURVE",
"541 213 CURVE SMOOTH",
"545 257 OFFCURVE",
"550 305 OFFCURVE",
"535 351 CURVE SMOOTH",
"506 443 OFFCURVE",
"419 500 OFFCURVE",
"310 500 CURVE SMOOTH",
"216 500 OFFCURVE",
"131 445 OFFCURVE",
"85 354 CURVE",
"112 340 LINE",
"153 422 OFFCURVE",
"227 470 OFFCURVE",
"310 470 CURVE SMOOTH",
"407 470 OFFCURVE",
"482 421 OFFCURVE",
"507 342 CURVE SMOOTH",
"533 258 OFFCURVE",
"484 158 OFFCURVE",
"521 64 CURVE",
"522 63 LINE SMOOTH",
"536 34 OFFCURVE",
"559 10 OFFCURVE",
"585 -3 CURVE",
"598 24 LINE"
);
}
);
width = 623;
}
);
unicode = 006E;
},
{
glyphname = eng;
lastChange = "2023-05-02 11:10:58 +0000";
layers = (
{
layerId = "D49323DB-BA12-4E81-A595-966915BD3B05";
paths = (
{
closed = 1;
nodes = (
"156 28 OFFCURVE",
"136 51 OFFCURVE",
"127 76 CURVE SMOOTH",
"112 122 OFFCURVE",
"114 173 OFFCURVE",
"117 228 CURVE SMOOTH",
"118 270 OFFCURVE",
"120 315 OFFCURVE",
"114 359 CURVE SMOOTH",
"105 420 OFFCURVE",
"78 470 OFFCURVE",
"38 501 CURVE",
"20 478 LINE",
"54 451 OFFCURVE",
"77 408 OFFCURVE",
"84 355 CURVE SMOOTH",
"98 257 OFFCURVE",
"70 156 OFFCURVE",
"99 67 CURVE SMOOTH",
"111 30 OFFCURVE",
"141 0 OFFCURVE",
"168 -3 CURVE",
"171 27 LINE"
);
},
{
closed = 1;
nodes = (
"455 -241 OFFCURVE",
"501 -168 OFFCURVE",
"522 -79 CURVE SMOOTH",
"551 42 OFFCURVE",
"544 177 OFFCURVE",
"537 311 CURVE SMOOTH",
"531 420 OFFCURVE",
"435 500 OFFCURVE",
"310 500 CURVE SMOOTH",
"222 500 OFFCURVE",
"136 444 OFFCURVE",
"86 354 CURVE",
"112 340 LINE",
"157 420 OFFCURVE",
"233 470 OFFCURVE",
"310 470 CURVE SMOOTH",
"419 470 OFFCURVE",
"502 402 OFFCURVE",
"507 309 CURVE SMOOTH",
"514 176 OFFCURVE",
"521 45 OFFCURVE",
"493 -72 CURVE SMOOTH",
"473 -155 OFFCURVE",
"432 -220 OFFCURVE",
"372 -263 CURVE",
"390 -287 LINE"
);
}
);
width = 568;
}
);
leftMetricsKey = n;
rightMetricsKey = j;
unicode = 014B;
},
{
glyphname = o;
lastChange = "2023-04-26 08:02:15 +0000";
layers = (
{
layerId = "D49323DB-BA12-4E81-A595-966915BD3B05";
paths = (
{
closed = 1;
nodes = (
"435 470 OFFCURVE",
"543 352 OFFCURVE",
"523 218 CURVE SMOOTH",
"507 111 OFFCURVE",
"408 30 OFFCURVE",
"292 30 CURVE SMOOTH",
"175 30 OFFCURVE",
"76 111 OFFCURVE",
"62 218 CURVE SMOOTH",
"44 351 OFFCURVE",
"153 470 OFFCURVE",
"292 470 CURVE SMOOTH"
);
},
{
closed = 1;
nodes = (
"135 500 OFFCURVE",
"12 365 OFFCURVE",
"32 214 CURVE SMOOTH",
"48 91 OFFCURVE",
"160 0 OFFCURVE",
"292 0 CURVE SMOOTH",
"422 0 OFFCURVE",
"534 92 OFFCURVE",
"553 214 CURVE SMOOTH",
"575 366 OFFCURVE",
"453 500 OFFCURVE",
"292 500 CURVE SMOOTH"
);
}
);
width = 586;
}
);
unicode = 006F;
},
{
glyphname = oe;
lastChange = "2023-05-01 18:13:09 +0000";
layers = (
{
layerId = "D49323DB-BA12-4E81-A595-966915BD3B05";
paths = (
{
closed = 1;
nodes = (
"418 470 OFFCURVE",
"519 354 OFFCURVE",
"498 224 CURVE SMOOTH",
"479 108 OFFCURVE",
"393 30 OFFCURVE",
"283 30 CURVE SMOOTH",
"170 30 OFFCURVE",
"76 112 OFFCURVE",
"62 223 CURVE SMOOTH",
"44 355 OFFCURVE",
"148 470 OFFCURVE",
"283 470 CURVE SMOOTH"
);
},
{
closed = 1;
nodes = (
"130 500 OFFCURVE",
"12 369 OFFCURVE",
"32 219 CURVE SMOOTH",
"48 93 OFFCURVE",
"154 0 OFFCURVE",
"283 0 CURVE SMOOTH",
"407 0 OFFCURVE",
"507 89 OFFCURVE",
"527 219 CURVE SMOOTH",
"552 367 OFFCURVE",
"437 500 OFFCURVE",
"283 500 CURVE SMOOTH"
);
},
{
closed = 1;
nodes = (
"576 225 OFFCURVE",
"648 201 OFFCURVE",
"727 196 CURVE SMOOTH",
"843 188 OFFCURVE",
"930 232 OFFCURVE",
"951 310 CURVE SMOOTH",
"980 423 OFFCURVE",
"863 520 OFFCURVE",
"726 500 CURVE SMOOTH",
"611 484 OFFCURVE",
"520 397 OFFCURVE",
"505 290 CURVE SMOOTH",
"483 165 OFFCURVE",
"562 45 OFFCURVE",
"689 9 CURVE SMOOTH",
"783 -17 OFFCURVE",
"880 9 OFFCURVE",
"947 78 CURVE",
"925 99 LINE",
"866 37 OFFCURVE",
"782 14 OFFCURVE",
"697 38 CURVE SMOOTH",
"585 69 OFFCURVE",
"515 176 OFFCURVE",
"534 285 CURVE SMOOTH",
"547 379 OFFCURVE",
"628 456 OFFCURVE",
"730 470 CURVE SMOOTH",
"846 488 OFFCURVE",
"945 409 OFFCURVE",
"922 318 CURVE SMOOTH",
"905 255 OFFCURVE",
"831 219 OFFCURVE",
"729 226 CURVE SMOOTH",
"655 231 OFFCURVE",
"588 253 OFFCURVE",
"528 292 CURVE",
"511 267 LINE"
);
}
);
width = 980;
}
);
leftMetricsKey = o;
rightMetricsKey = e;
unicode = 0153;
},
{
glyphname = p;
lastChange = "2023-04-26 08:09:21 +0000";
layers = (
{
layerId = "D49323DB-BA12-4E81-A595-966915BD3B05";
paths = (
{
closed = 1;
nodes = (
"164 -254 OFFCURVE",
"145 -230 OFFCURVE",
"128 -197 CURVE SMOOTH",
"78 -103 OFFCURVE",
"92 -1 OFFCURVE",
"107 111 CURVE SMOOTH",
"118 193 OFFCURVE",
"130 278 OFFCURVE",
"115 361 CURVE SMOOTH",
"105 414 OFFCURVE",
"77 467 OFFCURVE",
"40 501 CURVE",
"20 480 LINE",
"52 449 OFFCURVE",
"77 403 OFFCURVE",
"85 356 CURVE SMOOTH",
"118 171 OFFCURVE",
"9 -38 OFFCURVE",
"101 -211 CURVE SMOOTH",
"120 -248 OFFCURVE",
"142 -276 OFFCURVE",
"162 -290 CURVE",
"179 -265 LINE"
);
},
{
closed = 1;
nodes = (
"136 56 OFFCURVE",
"237 0 OFFCURVE",
"347 0 CURVE SMOOTH",
"482 0 OFFCURVE",
"590 88 OFFCURVE",
"608 214 CURVE SMOOTH",
"630 365 OFFCURVE",
"496 500 OFFCURVE",
"326 500 CURVE SMOOTH",
"228 500 OFFCURVE",
"131 441 OFFCURVE",
"86 354 CURVE",
"113 340 LINE",
"153 417 OFFCURVE",
"239 470 OFFCURVE",
"326 470 CURVE SMOOTH",
"478 470 OFFCURVE",
"598 351 OFFCURVE",
"579 219 CURVE SMOOTH",
"562 107 OFFCURVE",
"467 30 OFFCURVE",
"347 30 CURVE SMOOTH",
"247 30 OFFCURVE",
"158 80 OFFCURVE",
"113 160 CURVE",
"87 146 LINE"
);
}
);
width = 640;
}
);
leftMetricsKey = n;
rightMetricsKey = o;
unicode = 0070;
},
{
glyphname = thorn;
lastChange = "2023-05-01 17:09:01 +0000";
layers = (
{
layerId = "D49323DB-BA12-4E81-A595-966915BD3B05";
paths = (
{
closed = 1;
nodes = (
"163 -259 OFFCURVE",
"146 -238 OFFCURVE",
"128 -205 CURVE SMOOTH",
"58 -82 OFFCURVE",
"81 56 OFFCURVE",
"106 203 CURVE SMOOTH",
"126 321 OFFCURVE",
"146 444 OFFCURVE",
"116 563 CURVE SMOOTH",
"100 621 OFFCURVE",
"76 669 OFFCURVE",
"43 709 CURVE",
"20 690 LINE",
"50 654 OFFCURVE",
"72 609 OFFCURVE",
"87 556 CURVE SMOOTH",
"151 305 OFFCURVE",
"-31 16 OFFCURVE",
"102 -220 CURVE SMOOTH",
"122 -258 OFFCURVE",
"143 -283 OFFCURVE",
"164 -293 CURVE",
"177 -266 LINE"
);
},
{
closed = 1;
nodes = (
"120 51 OFFCURVE",
"223 -2 OFFCURVE",
"344 -1 CURVE SMOOTH",
"479 0 OFFCURVE",
"585 87 OFFCURVE",
"601 209 CURVE SMOOTH",
"621 366 OFFCURVE",
"488 500 OFFCURVE",
"322 490 CURVE SMOOTH",
"232 484 OFFCURVE",
"148 430 OFFCURVE",
"102 347 CURVE",
"128 333 LINE",
"169 407 OFFCURVE",
"243 455 OFFCURVE",
"324 460 CURVE SMOOTH",
"471 469 OFFCURVE",
"589 351 OFFCURVE",
"571 213 CURVE SMOOTH",
"558 106 OFFCURVE",
"464 30 OFFCURVE",
"343 29 CURVE SMOOTH",
"233 28 OFFCURVE",
"141 75 OFFCURVE",
"93 156 CURVE",
"67 141 LINE"
);
}
);
width = 633;
}
);
leftMetricsKey = n;
rightMetricsKey = o;
unicode = 00FE;
},
{
glyphname = q;
lastChange = "2023-04-26 08:09:26 +0000";
layers = (
{
layerId = "D49323DB-BA12-4E81-A595-966915BD3B05";
paths = (
{
closed = 1;
nodes = (
"604 -254 OFFCURVE",
"588 -233 OFFCURVE",
"572 -200 CURVE SMOOTH",
"532 -122 OFFCURVE",
"540 -31 OFFCURVE",
"547 64 CURVE SMOOTH",
"550 91 OFFCURVE",
"552 119 OFFCURVE",
"553 146 CURVE SMOOTH",
"555 190 OFFCURVE",
"554 238 OFFCURVE",
"554 289 CURVE SMOOTH",
"553 311 OFFCURVE",
"553 335 OFFCURVE",
"553 358 CURVE SMOOTH",
"553 412 OFFCURVE",
"577 457 OFFCURVE",
"615 474 CURVE",
"602 501 LINE",
"554 479 OFFCURVE",
"523 423 OFFCURVE",
"523 359 CURVE SMOOTH",
"523 281 OFFCURVE",
"526 210 OFFCURVE",
"523 147 CURVE SMOOTH",
"518 28 OFFCURVE",
"489 -104 OFFCURVE",
"546 -214 CURVE SMOOTH",
"563 -250 OFFCURVE",
"581 -274 OFFCURVE",
"598 -292 CURVE",
"619 -270 LINE"
);
},
{
closed = 1;
nodes = (
"481 80 OFFCURVE",
"391 30 OFFCURVE",
"291 30 CURVE SMOOTH",
"159 30 OFFCURVE",
"60 124 OFFCURVE",
"60 250 CURVE SMOOTH",
"60 373 OFFCURVE",
"162 470 OFFCURVE",
"291 470 CURVE SMOOTH",
"385 470 OFFCURVE",
"479 418 OFFCURVE",
"525 339 CURVE",
"551 355 LINE",
"499 442 OFFCURVE",
"395 500 OFFCURVE",
"291 500 CURVE SMOOTH",
"146 500 OFFCURVE",
"30 389 OFFCURVE",
"30 250 CURVE SMOOTH",
"30 107 OFFCURVE",
"142 0 OFFCURVE",
"291 0 CURVE SMOOTH",
"402 0 OFFCURVE",
"502 56 OFFCURVE",
"551 146 CURVE",
"525 160 LINE"
);
}
);
width = 644;
}
);
leftMetricsKey = o;
rightMetricsKey = n;
unicode = 0071;
},
{
glyphname = r;
lastChange = "2023-05-02 15:24:35 +0000";
layers = (
{
layerId = "D49323DB-BA12-4E81-A595-966915BD3B05";
paths = (
{
closed = 1;
nodes = (
"156 34 OFFCURVE",
"135 52 OFFCURVE",
"126 77 CURVE SMOOTH",
"108 129 OFFCURVE",
"110 182 OFFCURVE",
"114 239 CURVE SMOOTH",
"116 278 OFFCURVE",
"119 319 OFFCURVE",
"113 359 CURVE SMOOTH",
"104 427 OFFCURVE",
"78 477 OFFCURVE",
"35 501 CURVE",
"20 475 LINE",
"54 456 OFFCURVE",
"76 415 OFFCURVE",
"83 355 CURVE SMOOTH",
"97 263 OFFCURVE",
"61 165 OFFCURVE",
"99 65 CURVE SMOOTH",
"111 34 OFFCURVE",
"136 10 OFFCURVE",
"161 -3 CURVE",
"175 24 LINE"
);
},
{
closed = 1;
nodes = (
"446 496 OFFCURVE",
"383 507 OFFCURVE",
"307 500 CURVE SMOOTH",
"223 493 OFFCURVE",
"139 438 OFFCURVE",
"85 355 CURVE",
"111 339 LINE",
"160 415 OFFCURVE",
"234 464 OFFCURVE",
"310 470 CURVE SMOOTH",
"379 477 OFFCURVE",
"435 467 OFFCURVE",
"476 441 CURVE",
"492 467 LINE"
);
}
);
width = 507;
}
);
leftMetricsKey = n;
unicode = 0072;
},
{
glyphname = s;
lastChange = "2023-04-26 08:11:05 +0000";
layers = (
{
layerId = "D49323DB-BA12-4E81-A595-966915BD3B05";
paths = (
{
closed = 1;
nodes = (
"101 14 OFFCURVE",
"212 0 OFFCURVE",
"311 0 CURVE SMOOTH",
"416 0 OFFCURVE",
"495 46 OFFCURVE",
"502 114 CURVE SMOOTH",
"511 194 OFFCURVE",
"434 244 OFFCURVE",
"278 265 CURVE SMOOTH",
"193 276 OFFCURVE",
"92 285 OFFCURVE",
"80 354 CURVE SMOOTH",
"69 418 OFFCURVE",
"141 470 OFFCURVE",
"241 470 CURVE SMOOTH",
"334 470 OFFCURVE",
"397 450 OFFCURVE",
"441 408 CURVE",
"462 430 LINE",
"412 477 OFFCURVE",
"340 500 OFFCURVE",
"241 500 CURVE SMOOTH",
"122 500 OFFCURVE",
"36 432 OFFCURVE",
"50 348 CURVE SMOOTH",
"66 257 OFFCURVE",
"190 246 OFFCURVE",
"274 235 CURVE SMOOTH",
"377 221 OFFCURVE",
"481 192 OFFCURVE",
"472 117 CURVE SMOOTH",
"467 67 OFFCURVE",
"400 30 OFFCURVE",
"311 30 CURVE SMOOTH",
"186 30 OFFCURVE",
"101 54 OFFCURVE",
"40 107 CURVE",
"20 84 LINE"
);
}
);
width = 528;
}
);
unicode = 0073;
},
{
glyphname = germandbls;
lastChange = "2023-05-02 11:27:36 +0000";
layers = (
{
layerId = "D49323DB-BA12-4E81-A595-966915BD3B05";
paths = (
{
closed = 1;
nodes = (
"297 -67 OFFCURVE",
"470 21 OFFCURVE",
"477 175 CURVE",
"477 280 OFFCURVE",
"395 364 OFFCURVE",
"282 391 CURVE",
"358 423 OFFCURVE",
"408 486 OFFCURVE",
"408 560 CURVE SMOOTH",
"408 652 OFFCURVE",
"334 715 OFFCURVE",
"227 715 CURVE SMOOTH",
"106 715 OFFCURVE",
"35 618 OFFCURVE",
"35 455 CURVE SMOOTH",
"35 105 LINE SMOOTH",
"35 53 OFFCURVE",
"70 7 OFFCURVE",
"116 -1 CURVE",
"121 28 LINE",
"89 34 OFFCURVE",
"65 67 OFFCURVE",
"65 105 CURVE SMOOTH",
"65 455 LINE SMOOTH",
"65 602 OFFCURVE",
"124 685 OFFCURVE",
"227 685 CURVE SMOOTH",
"318 685 OFFCURVE",
"378 635 OFFCURVE",
"378 560 CURVE SMOOTH",
"378 476 OFFCURVE",
"296 407 OFFCURVE",
"186 400 CURVE",
"188 370 LINE",
"329 377 OFFCURVE",
"447 289 OFFCURVE",
"447 175 CURVE",
"441 46 OFFCURVE",
"296 -29 OFFCURVE",
"196 47 CURVE",
"178 23 LINE"
);
}
);
width = 494;
}
);
leftMetricsKey = H;
rightMetricsKey = B;
unicode = 00DF;
},
{
glyphname = t;
lastChange = "2023-04-04 17:55:50 +0000";
layers = (
{
layerId = "D49323DB-BA12-4E81-A595-966915BD3B05";
paths = (
{
closed = 1;
nodes = (
"331 22 OFFCURVE",
"275 11 OFFCURVE",
"217 29 CURVE SMOOTH",
"186 39 OFFCURVE",
"157 61 OFFCURVE",
"134 92 CURVE SMOOTH",
"86 161 OFFCURVE",
"95 244 OFFCURVE",
"105 335 CURVE SMOOTH",
"110 389 OFFCURVE",
"117 446 OFFCURVE",
"109 500 CURVE SMOOTH",
"101 549 OFFCURVE",
"81 600 OFFCURVE",
"50 649 CURVE",
"25 633 LINE",
"54 587 OFFCURVE",
"72 540 OFFCURVE",
"79 495 CURVE SMOOTH",
"99 363 OFFCURVE",
"23 198 OFFCURVE",
"109 75 CURVE SMOOTH",
"136 38 OFFCURVE",
"170 12 OFFCURVE",
"208 0 CURVE SMOOTH",
"274 -20 OFFCURVE",
"343 -7 OFFCURVE",
"396 34 CURVE",
"378 58 LINE"
);
},
{
closed = 1;
nodes = (
"94 500 LINE",
"94 470 LINE",
"386 470 LINE",
"386 500 LINE"
);
}
);
width = 416;
}
);
unicode = 0074;
},
{
glyphname = tbar;
lastChange = "2023-05-02 21:49:49 +0000";
layers = (
{
components = (
{
name = t;
}
);
layerId = "D49323DB-BA12-4E81-A595-966915BD3B05";
paths = (
{
closed = 1;
nodes = (
"25 300 LINE",
"25 270 LINE",
"280 270 LINE",
"280 300 LINE"
);
}
);
width = 416;
}
);
unicode = 0167;
},
{
glyphname = u;
lastChange = "2023-04-26 08:09:51 +0000";
layers = (
{
layerId = "D49323DB-BA12-4E81-A595-966915BD3B05";
paths = (
{
closed = 1;
nodes = (
"435 85 OFFCURVE",
"354 30 OFFCURVE",
"279 30 CURVE SMOOTH",
"186 30 OFFCURVE",
"108 81 OFFCURVE",
"82 158 CURVE SMOOTH",
"69 201 OFFCURVE",
"73 244 OFFCURVE",
"78 290 CURVE SMOOTH",
"80 313 OFFCURVE",
"83 337 OFFCURVE",
"83 361 CURVE SMOOTH",
"83 409 OFFCURVE",
"69 461 OFFCURVE",
"46 501 CURVE",
"20 486 LINE",
"40 451 OFFCURVE",
"53 404 OFFCURVE",
"53 361 CURVE SMOOTH",
"53 293 OFFCURVE",
"31 222 OFFCURVE",
"54 149 CURVE SMOOTH",
"84 60 OFFCURVE",
"174 0 OFFCURVE",
"279 0 CURVE SMOOTH",
"365 0 OFFCURVE",
"457 62 OFFCURVE",
"496 146 CURVE",
"469 159 LINE"
);
},
{
closed = 1;
nodes = (
"545 33 OFFCURVE",
"533 46 OFFCURVE",
"517 78 CURVE SMOOTH",
"489 140 OFFCURVE",
"494 207 OFFCURVE",
"500 275 CURVE SMOOTH",
"502 302 OFFCURVE",
"505 330 OFFCURVE",
"505 356 CURVE SMOOTH",
"505 406 OFFCURVE",
"491 460 OFFCURVE",
"468 501 CURVE",
"442 486 LINE",
"462 450 OFFCURVE",
"475 401 OFFCURVE",
"475 356 CURVE SMOOTH",
"475 265 OFFCURVE",
"446 162 OFFCURVE",
"490 65 CURVE SMOOTH",
"509 26 OFFCURVE",
"528 7 OFFCURVE",
"555 -2 CURVE",
"565 26 LINE"
);
}
);
width = 590;
}
);
leftMetricsKey = n;
rightMetricsKey = n;
unicode = 0075;
},
{
glyphname = v;
lastChange = "2023-04-26 08:09:59 +0000";
layers = (
{
layerId = "D49323DB-BA12-4E81-A595-966915BD3B05";
paths = (
{
closed = 1;
nodes = (
"475 476 OFFCURVE",
"445 426 OFFCURVE",
"435 363 CURVE SMOOTH",
"424 297 OFFCURVE",
"427 169 OFFCURVE",
"368 93 CURVE SMOOTH",
"335 52 OFFCURVE",
"287 32 OFFCURVE",
"215 30 CURVE",
"43 500 LINE",
"15 489 LINE",
"194 0 LINE",
"287 -2 OFFCURVE",
"350 22 OFFCURVE",
"392 75 CURVE SMOOTH",
"459 162 OFFCURVE",
"449 269 OFFCURVE",
"464 357 CURVE SMOOTH",
"474 413 OFFCURVE",
"499 455 OFFCURVE",
"529 477 CURVE",
"512 501 LINE"
);
}
);
width = 544;
}
);
unicode = 0076;
},
{
glyphname = w;
lastChange = "2023-04-26 08:10:05 +0000";
layers = (
{
layerId = "D49323DB-BA12-4E81-A595-966915BD3B05";
paths = (
{
closed = 1;
nodes = (
"378 323 OFFCURVE",
"362 267 OFFCURVE",
"346 209 CURVE SMOOTH",
"342 193 OFFCURVE",
"338 177 OFFCURVE",
"333 160 CURVE SMOOTH",
"311 81 OFFCURVE",
"269 36 OFFCURVE",
"216 30 CURVE",
"43 500 LINE",
"15 490 LINE",
"195 0 LINE",
"273 -5 OFFCURVE",
"334 51 OFFCURVE",
"362 152 CURVE SMOOTH",
"384 229 OFFCURVE",
"399 299 OFFCURVE",
"431 360 CURVE",
"405 374 LINE"
);
},
{
closed = 1;
nodes = (
"758 466 OFFCURVE",
"734 422 OFFCURVE",
"722 365 CURVE SMOOTH",
"715 336 OFFCURVE",
"712 306 OFFCURVE",
"709 276 CURVE SMOOTH",
"702 208 OFFCURVE",
"695 143 OFFCURVE",
"654 94 CURVE SMOOTH",
"623 56 OFFCURVE",
"581 34 OFFCURVE",
"535 30 CURVE",
"397 500 LINE",
"368 492 LINE",
"513 0 LINE",
"575 -4 OFFCURVE",
"636 25 OFFCURVE",
"677 75 CURVE SMOOTH",
"744 155 OFFCURVE",
"731 269 OFFCURVE",
"751 358 CURVE SMOOTH",
"762 410 OFFCURVE",
"783 448 OFFCURVE",
"817 479 CURVE",
"797 502 LINE"
);
}
);
width = 832;
}
);
unicode = 0077;
},
{
glyphname = x;
lastChange = "2023-04-04 17:34:17 +0000";
layers = (
{
layerId = "D49323DB-BA12-4E81-A595-966915BD3B05";
paths = (
{
closed = 1;
nodes = (
"402 55 OFFCURVE",
"312 146 OFFCURVE",
"276 268 CURVE",
"246 398 OFFCURVE",
"140 493 OFFCURVE",
"17 500 CURVE",
"15 470 LINE",
"125 464 OFFCURVE",
"220 378 OFFCURVE",
"248 260 CURVE",
"286 128 OFFCURVE",
"385 28 OFFCURVE",
"505 0 CURVE",
"512 29 LINE"
);
},
{
closed = 1;
nodes = (
"158 7 OFFCURVE",
"269 120 OFFCURVE",
"277 263 CURVE",
"290 393 OFFCURVE",
"391 484 OFFCURVE",
"506 470 CURVE",
"510 500 LINE",
"377 515 OFFCURVE",
"262 412 OFFCURVE",
"247 265 CURVE",
"240 137 OFFCURVE",
"141 36 OFFCURVE",
"15 30 CURVE",
"16 0 LINE"
);
}
);
width = 527;
}
);
unicode = 0078;
},
{
glyphname = y;
lastChange = "2023-04-26 08:10:12 +0000";
layers = (
{
layerId = "D49323DB-BA12-4E81-A595-966915BD3B05";
paths = (
{
closed = 1;
nodes = (
"244 6 OFFCURVE",
"147 57 OFFCURVE",
"112 146 CURVE SMOOTH",
"86 216 OFFCURVE",
"84 285 OFFCURVE",
"78 358 CURVE SMOOTH",
"73 419 OFFCURVE",
"61 466 OFFCURVE",
"41 501 CURVE",
"15 486 LINE",
"32 456 OFFCURVE",
"44 412 OFFCURVE",
"48 355 CURVE SMOOTH",
"54 283 OFFCURVE",
"56 210 OFFCURVE",
"84 136 CURVE SMOOTH",
"124 33 OFFCURVE",
"237 -26 OFFCURVE",
"349 -2 CURVE",
"343 27 LINE"
);
},
{
closed = 1;
nodes = (
"265 -220 OFFCURVE",
"331 -116 OFFCURVE",
"360 -3 CURVE SMOOTH",
"403 168 OFFCURVE",
"452 332 OFFCURVE",
"501 491 CURVE",
"473 500 LINE",
"423 340 OFFCURVE",
"374 176 OFFCURVE",
"331 5 CURVE SMOOTH",
"303 -102 OFFCURVE",
"241 -201 OFFCURVE",
"160 -267 CURVE",
"179 -291 LINE"
);
}
);
width = 516;
}
);
unicode = 0079;
},
{
glyphname = z;
lastChange = "2023-04-26 08:10:34 +0000";
layers = (
{
layerId = "D49323DB-BA12-4E81-A595-966915BD3B05";
paths = (
{
closed = 1;
nodes = (
"537 87 OFFCURVE",
"490 30 OFFCURVE",
"429 30 CURVE SMOOTH",
"80 30 LINE",
"147 116 OFFCURVE",
"218 180 OFFCURVE",
"305 237 CURVE SMOOTH",
"414 309 OFFCURVE",
"506 395 OFFCURVE",
"554 500 CURVE",
"127 500 LINE",
"52 354 LINE",
"79 341 LINE",
"145 470 LINE",
"505 470 LINE",
"453 387 OFFCURVE",
"379 324 OFFCURVE",
"291 263 CURVE SMOOTH",
"185 189 OFFCURVE",
"89 111 OFFCURVE",
"25 0 CURVE",
"429 0 LINE SMOOTH",
"508 0 OFFCURVE",
"569 73 OFFCURVE",
"559 154 CURVE",
"529 151 LINE"
);
}
);
width = 580;
}
);
unicode = 007A;
},
{
glyphname = zero;
lastChange = "2023-04-26 08:30:22 +0000";
layers = (
{
layerId = "D49323DB-BA12-4E81-A595-966915BD3B05";
paths = (
{
closed = 1;
nodes = (
"153 700 OFFCURVE",
"45 550 OFFCURVE",
"45 350 CURVE SMOOTH",
"45 153 OFFCURVE",
"155 0 OFFCURVE",
"301 0 CURVE SMOOTH",
"451 0 OFFCURVE",
"557 148 OFFCURVE",
"557 350 CURVE SMOOTH",
"557 556 OFFCURVE",
"453 700 OFFCURVE",
"301 700 CURVE SMOOTH"
);
},
{
closed = 1;
nodes = (
"435 670 OFFCURVE",
"527 539 OFFCURVE",
"527 350 CURVE SMOOTH",
"527 164 OFFCURVE",
"433 30 OFFCURVE",
"301 30 CURVE SMOOTH",
"172 30 OFFCURVE",
"75 169 OFFCURVE",
"75 350 CURVE SMOOTH",
"75 534 OFFCURVE",
"170 670 OFFCURVE",
"301 670 CURVE SMOOTH"
);
}
);
width = 602;
}
);
unicode = 0030;
},
{
glyphname = one;
lastChange = "2023-04-25 20:41:19 +0000";
layers = (
{
layerId = "D49323DB-BA12-4E81-A595-966915BD3B05";
paths = (
{
closed = 1;
nodes = (
"409 0 LINE",
"379 32 OFFCURVE",
"349 54 OFFCURVE",
"332 89 CURVE SMOOTH",
"292 169 OFFCURVE",
"304 256 OFFCURVE",
"316 347 CURVE SMOOTH",
"325 416 OFFCURVE",
"334 488 OFFCURVE",
"319 558 CURVE SMOOTH",
"306 622 OFFCURVE",
"276 676 OFFCURVE",
"236 710 CURVE",
"20 490 LINE",
"41 469 LINE",
"236 668 LINE",
"261 638 OFFCURVE",
"280 598 OFFCURVE",
"290 552 CURVE SMOOTH",
"322 404 OFFCURVE",
"230 228 OFFCURVE",
"305 76 CURVE SMOOTH",
"314 58 OFFCURVE",
"325 43 OFFCURVE",
"338 30 CURVE",
"99 30 LINE",
"99 0 LINE"
);
}
);
width = 434;
}
);
unicode = 0031;
},
{
glyphname = two;
lastChange = "2023-04-26 08:30:41 +0000";
layers = (
{
layerId = "D49323DB-BA12-4E81-A595-966915BD3B05";
paths = (
{
closed = 1;
nodes = (
"550 88 OFFCURVE",
"491 30 OFFCURVE",
"433 30 CURVE SMOOTH",
"79 30 LINE",
"130 120 OFFCURVE",
"204 200 OFFCURVE",
"304 271 CURVE SMOOTH",
"395 335 OFFCURVE",
"510 401 OFFCURVE",
"517 517 CURVE SMOOTH",
"524 617 OFFCURVE",
"421 700 OFFCURVE",
"295 700 CURVE SMOOTH",
"184 700 OFFCURVE",
"90 648 OFFCURVE",
"41 557 CURVE",
"67 543 LINE",
"112 624 OFFCURVE",
"194 670 OFFCURVE",
"295 670 CURVE SMOOTH",
"404 670 OFFCURVE",
"493 601 OFFCURVE",
"487 519 CURVE SMOOTH",
"481 419 OFFCURVE",
"378 361 OFFCURVE",
"287 295 CURVE SMOOTH",
"167 210 OFFCURVE",
"83 113 OFFCURVE",
"30 0 CURVE",
"433 0 LINE SMOOTH",
"507 0 OFFCURVE",
"578 69 OFFCURVE",
"586 148 CURVE",
"556 151 LINE"
);
}
);
width = 611;
}
);
unicode = 0032;
},
{
glyphname = three;
lastChange = "2023-04-26 08:30:54 +0000";
layers = (
{
layerId = "D49323DB-BA12-4E81-A595-966915BD3B05";
paths = (
{
closed = 1;
nodes = (
"89 36 OFFCURVE",
"175 0 OFFCURVE",
"277 0 CURVE SMOOTH",
"394 0 OFFCURVE",
"498 85 OFFCURVE",
"498 183 CURVE SMOOTH",
"498 318 OFFCURVE",
"360 399 OFFCURVE",
"139 399 CURVE",
"139 369 LINE",
"346 369 OFFCURVE",
"470 436 OFFCURVE",
"464 552 CURVE SMOOTH",
"457 647 OFFCURVE",
"364 708 OFFCURVE",
"241 700 CURVE SMOOTH",
"155 693 OFFCURVE",
"82 658 OFFCURVE",
"25 595 CURVE",
"47 575 LINE",
"100 632 OFFCURVE",
"164 664 OFFCURVE",
"243 670 CURVE SMOOTH",
"349 677 OFFCURVE",
"428 627 OFFCURVE",
"434 550 CURVE SMOOTH",
"440 435 OFFCURVE",
"289 399 OFFCURVE",
"139 399 CURVE",
"139 369 LINE",
"344 369 OFFCURVE",
"468 298 OFFCURVE",
"468 183 CURVE SMOOTH",
"468 102 OFFCURVE",
"378 30 OFFCURVE",
"277 30 CURVE SMOOTH",
"183 30 OFFCURVE",
"105 62 OFFCURVE",
"47 125 CURVE",
"25 105 LINE"
);
}
);
width = 533;
}
);
unicode = 0033;
},
{
glyphname = four;
lastChange = "2023-04-26 08:31:05 +0000";
layers = (
{
background = {
paths = (
{
closed = 0;
nodes = (
"176 700 LINE",
"36 210 LINE",
"456 210 LINE"
);
},
{
closed = 0;
nodes = (
"400 350 LINE",
"435 315 OFFCURVE",
"455 266 OFFCURVE",
"456 210 CURVE SMOOTH",
"457 168 OFFCURVE",
"443 119 OFFCURVE",
"456 70 CURVE SMOOTH",
"464 40 OFFCURVE",
"484 14 OFFCURVE",
"512 0 CURVE"
);
}
);
};
layerId = "D49323DB-BA12-4E81-A595-966915BD3B05";
paths = (
{
closed = 1;
nodes = (
"60 227 LINE",
"192 694 LINE",
"163 702 LINE",
"20 197 LINE",
"453 197 LINE",
"453 227 LINE"
);
},
{
closed = 1;
nodes = (
"491 31 OFFCURVE",
"475 48 OFFCURVE",
"468 76 CURVE SMOOTH",
"460 106 OFFCURVE",
"463 136 OFFCURVE",
"466 166 CURVE SMOOTH",
"467 182 OFFCURVE",
"469 197 OFFCURVE",
"468 212 CURVE SMOOTH",
"467 272 OFFCURVE",
"446 325 OFFCURVE",
"409 363 CURVE",
"388 342 LINE",
"420 309 OFFCURVE",
"437 264 OFFCURVE",
"438 212 CURVE SMOOTH",
"439 171 OFFCURVE",
"425 120 OFFCURVE",
"439 68 CURVE SMOOTH",
"449 28 OFFCURVE",
"476 1 OFFCURVE",
"508 0 CURVE",
"509 30 LINE"
);
}
);
width = 529;
}
);
unicode = 0034;
},
{
glyphname = five;
lastChange = "2023-04-26 08:31:18 +0000";
layers = (
{
layerId = "D49323DB-BA12-4E81-A595-966915BD3B05";
paths = (
{
closed = 1;
nodes = (
"91 38 OFFCURVE",
"183 0 OFFCURVE",
"281 0 CURVE SMOOTH",
"417 0 OFFCURVE",
"532 96 OFFCURVE",
"537 215 CURVE SMOOTH",
"543 345 OFFCURVE",
"434 451 OFFCURVE",
"282 465 CURVE SMOOTH",
"201 473 OFFCURVE",
"120 454 OFFCURVE",
"55 412 CURVE",
"55 670 LINE",
"488 670 LINE",
"488 700 LINE",
"25 700 LINE",
"25 351 LINE",
"88 413 OFFCURVE",
"184 444 OFFCURVE",
"280 436 CURVE SMOOTH",
"416 423 OFFCURVE",
"513 330 OFFCURVE",
"507 217 CURVE SMOOTH",
"503 114 OFFCURVE",
"401 30 OFFCURVE",
"281 30 CURVE SMOOTH",
"191 30 OFFCURVE",
"107 64 OFFCURVE",
"51 125 CURVE",
"29 105 LINE"
);
}
);
width = 572;
}
);
unicode = 0035;
},
{
glyphname = six;
lastChange = "2023-04-26 08:32:51 +0000";
layers = (
{
layerId = "D49323DB-BA12-4E81-A595-966915BD3B05";
paths = (
{
closed = 1;
nodes = (
"114 345 OFFCURVE",
"205 411 OFFCURVE",
"301 411 CURVE SMOOTH",
"399 411 OFFCURVE",
"479 345 OFFCURVE",
"492 253 CURVE SMOOTH",
"509 135 OFFCURVE",
"419 30 OFFCURVE",
"301 30 CURVE SMOOTH",
"164 30 OFFCURVE",
"75 158 OFFCURVE",
"75 317 CURVE SMOOTH",
"75 507 OFFCURVE",
"147 639 OFFCURVE",
"270 671 CURVE SMOOTH",
"341 689 OFFCURVE",
"417 665 OFFCURVE",
"461 611 CURVE",
"484 630 LINE",
"433 693 OFFCURVE",
"345 721 OFFCURVE",
"263 700 CURVE SMOOTH",
"126 665 OFFCURVE",
"45 520 OFFCURVE",
"45 317 CURVE SMOOTH",
"45 141 OFFCURVE",
"147 0 OFFCURVE",
"301 0 CURVE SMOOTH",
"437 0 OFFCURVE",
"542 121 OFFCURVE",
"522 257 CURVE SMOOTH",
"507 364 OFFCURVE",
"414 441 OFFCURVE",
"301 441 CURVE SMOOTH",
"192 441 OFFCURVE",
"90 367 OFFCURVE",
"52 260 CURVE",
"81 250 LINE"
);
}
);
width = 554;
}
);
unicode = 0036;
},
{
glyphname = seven;
lastChange = "2023-04-26 08:33:03 +0000";
layers = (
{
layerId = "D49323DB-BA12-4E81-A595-966915BD3B05";
paths = (
{
closed = 1;
nodes = (
"199 118 OFFCURVE",
"235 238 OFFCURVE",
"312 333 CURVE SMOOTH",
"405 449 OFFCURVE",
"466 574 OFFCURVE",
"491 700 CURVE",
"25 700 LINE",
"25 670 LINE",
"453 670 LINE",
"426 561 OFFCURVE",
"370 453 OFFCURVE",
"288 352 CURVE SMOOTH",
"207 251 OFFCURVE",
"168 122 OFFCURVE",
"182 0 CURVE",
"212 3 LINE"
);
},
{
closed = 1;
nodes = (
"94 365 LINE",
"94 335 LINE",
"438 335 LINE",
"438 365 LINE"
);
}
);
width = 521;
}
);
unicode = 0037;
},
{
glyphname = eight;
lastChange = "2023-04-26 08:33:16 +0000";
layers = (
{
layerId = "D49323DB-BA12-4E81-A595-966915BD3B05";
paths = (
{
closed = 1;
nodes = (
"181 710 OFFCURVE",
"62 637 OFFCURVE",
"70 524 CURVE SMOOTH",
"76 431 OFFCURVE",
"182 370 OFFCURVE",
"326 370 CURVE SMOOTH",
"476 370 OFFCURVE",
"577 430 OFFCURVE",
"583 524 CURVE SMOOTH",
"590 639 OFFCURVE",
"475 710 OFFCURVE",
"326 710 CURVE SMOOTH"
);
},
{
closed = 1;
nodes = (
"209 680 OFFCURVE",
"326 680 CURVE SMOOTH",
"459 680 OFFCURVE",
"557 621 OFFCURVE",
"553 526 CURVE SMOOTH",
"550 450 OFFCURVE",
"459 400 OFFCURVE",
"326 400 CURVE SMOOTH",
"198 400 OFFCURVE",
"107 451 OFFCURVE",
"100 526 CURVE SMOOTH",
"91 625 OFFCURVE"
);
},
{
closed = 1;
nodes = (
"156 400 OFFCURVE",
"42 327 OFFCURVE",
"35 211 CURVE SMOOTH",
"28 82 OFFCURVE",
"165 -10 OFFCURVE",
"326 -10 CURVE SMOOTH",
"488 -10 OFFCURVE",
"618 74 OFFCURVE",
"618 203 CURVE SMOOTH",
"618 322 OFFCURVE",
"500 400 OFFCURVE",
"326 400 CURVE SMOOTH"
);
},
{
closed = 1;
nodes = (
"483 370 OFFCURVE",
"588 304 OFFCURVE",
"588 203 CURVE SMOOTH",
"588 86 OFFCURVE",
"455 19 OFFCURVE",
"324 20 CURVE SMOOTH",
"191 22 OFFCURVE",
"58 92 OFFCURVE",
"65 209 CURVE SMOOTH",
"71 308 OFFCURVE",
"172 370 OFFCURVE",
"326 370 CURVE SMOOTH"
);
}
);
width = 653;
}
);
unicode = 0038;
},
{
glyphname = nine;
lastChange = "2023-04-26 08:32:48 +0000";
layers = (
{
layerId = "D49323DB-BA12-4E81-A595-966915BD3B05";
paths = (
{
closed = 1;
nodes = (
"473 355 OFFCURVE",
"388 293 OFFCURVE",
"288 289 CURVE SMOOTH",
"170 284 OFFCURVE",
"78 349 OFFCURVE",
"63 447 CURVE SMOOTH",
"43 571 OFFCURVE",
"155 682 OFFCURVE",
"288 670 CURVE SMOOTH",
"426 658 OFFCURVE",
"515 533 OFFCURVE",
"515 350 CURVE SMOOTH",
"515 176 OFFCURVE",
"422 43 OFFCURVE",
"287 30 CURVE SMOOTH",
"204 22 OFFCURVE",
"139 42 OFFCURVE",
"93 90 CURVE",
"71 70 LINE",
"123 15 OFFCURVE",
"198 -9 OFFCURVE",
"290 0 CURVE SMOOTH",
"441 15 OFFCURVE",
"545 161 OFFCURVE",
"545 350 CURVE SMOOTH",
"545 548 OFFCURVE",
"446 687 OFFCURVE",
"290 700 CURVE SMOOTH",
"139 713 OFFCURVE",
"10 586 OFFCURVE",
"33 443 CURVE SMOOTH",
"51 329 OFFCURVE",
"157 254 OFFCURVE",
"290 259 CURVE SMOOTH",
"401 263 OFFCURVE",
"498 334 OFFCURVE",
"534 440 CURVE",
"505 450 LINE"
);
}
);
width = 590;
}
);
unicode = 0039;
},
{
glyphname = fraction;
lastChange = "2023-05-08 15:35:28 +0000";
layers = (
{
layerId = "D49323DB-BA12-4E81-A595-966915BD3B05";
paths = (
{
closed = 1;
nodes = (
"45 16 LINE",
"70 0 LINE",
"516 684 LINE",
"490 700 LINE"
);
}
);
width = 566;
}
);
unicode = 2044;
},
{
glyphname = period;
lastChange = "2023-04-26 11:16:09 +0000";
layers = (
{
layerId = "D49323DB-BA12-4E81-A595-966915BD3B05";
paths = (
{
closed = 1;
nodes = (
"167 -82 OFFCURVE",
"201 -11 OFFCURVE",
"178 60 CURVE",
"65 60 LINE",
"65 30 LINE",
"155 30 LINE",
"161 -17 OFFCURVE",
"137 -59 OFFCURVE",
"95 -71 CURVE",
"103 -100 LINE"
);
}
);
width = 270;
}
);
unicode = 002E;
},
{
glyphname = comma;
lastChange = "2023-04-26 11:38:49 +0000";
layers = (
{
layerId = "D49323DB-BA12-4E81-A595-966915BD3B05";
paths = (
{
closed = 1;
nodes = (
"179 -160 OFFCURVE",
"203 -50 OFFCURVE",
"179 60 CURVE",
"65 60 LINE",
"65 30 LINE",
"154 30 LINE",
"169 -64 OFFCURVE",
"146 -156 OFFCURVE",
"86 -239 CURVE",
"111 -256 LINE"
);
}
);
width = 253;
}
);
unicode = 002C;
},
{
glyphname = colon;
lastChange = "2023-04-26 11:17:44 +0000";
layers = (
{
layerId = "D49323DB-BA12-4E81-A595-966915BD3B05";
paths = (
{
closed = 1;
nodes = (
"137 358 OFFCURVE",
"171 429 OFFCURVE",
"148 500 CURVE",
"35 500 LINE",
"35 470 LINE",
"125 470 LINE",
"131 423 OFFCURVE",
"107 381 OFFCURVE",
"65 369 CURVE",
"73 340 LINE"
);
},
{
closed = 1;
nodes = (
"137 58 OFFCURVE",
"171 129 OFFCURVE",
"148 200 CURVE",
"35 200 LINE",
"35 170 LINE",
"125 170 LINE",
"131 123 OFFCURVE",
"107 81 OFFCURVE",
"65 69 CURVE",
"73 40 LINE"
);
}
);
width = 245;
}
);
unicode = 003A;
},
{
glyphname = semicolon;
lastChange = "2023-04-26 11:44:09 +0000";
layers = (
{
layerId = "D49323DB-BA12-4E81-A595-966915BD3B05";
paths = (
{
closed = 1;
nodes = (
"179 -160 OFFCURVE",
"203 -50 OFFCURVE",
"179 60 CURVE",
"65 60 LINE",
"65 30 LINE",
"154 30 LINE",
"169 -64 OFFCURVE",
"146 -156 OFFCURVE",
"86 -239 CURVE",
"111 -256 LINE"
);
},
{
closed = 1;
nodes = (
"167 358 OFFCURVE",
"201 429 OFFCURVE",
"178 500 CURVE",
"65 500 LINE",
"65 470 LINE",
"155 470 LINE",
"161 423 OFFCURVE",
"137 381 OFFCURVE",
"95 369 CURVE",
"103 340 LINE"
);
}
);
width = 268;
}
);
unicode = 003B;
},
{
glyphname = exclam;
lastChange = "2023-04-30 18:47:45 +0000";
layers = (
{
layerId = "D49323DB-BA12-4E81-A595-966915BD3B05";
paths = (
{
closed = 1;
nodes = (
"160 246 OFFCURVE",
"140 264 OFFCURVE",
"129 291 CURVE SMOOTH",
"104 354 OFFCURVE",
"110 423 OFFCURVE",
"116 494 CURVE SMOOTH",
"120 545 OFFCURVE",
"125 597 OFFCURVE",
"117 647 CURVE SMOOTH",
"106 709 OFFCURVE",
"79 763 OFFCURVE",
"43 790 CURVE",
"25 766 LINE",
"55 743 OFFCURVE",
"78 697 OFFCURVE",
"87 642 CURVE SMOOTH",
"106 531 OFFCURVE",
"53 399 OFFCURVE",
"102 280 CURVE SMOOTH",
"114 247 OFFCURVE",
"139 224 OFFCURVE",
"159 203 CURVE",
"181 224 LINE"
);
},
{
closed = 1;
nodes = (
"170 18 OFFCURVE",
"204 89 OFFCURVE",
"181 160 CURVE",
"68 160 LINE",
"68 130 LINE",
"158 130 LINE",
"164 83 OFFCURVE",
"140 41 OFFCURVE",
"98 29 CURVE",
"106 0 LINE"
);
}
);
width = 253;
}
);
unicode = 0021;
},
{
glyphname = exclamdown;
lastChange = "2023-04-30 18:48:01 +0000";
layers = (
{
layerId = "D49323DB-BA12-4E81-A595-966915BD3B05";
paths = (
{
closed = 1;
nodes = (
"200 -247 OFFCURVE",
"180 -229 OFFCURVE",
"169 -202 CURVE SMOOTH",
"144 -139 OFFCURVE",
"150 -70 OFFCURVE",
"156 1 CURVE SMOOTH",
"160 52 OFFCURVE",
"165 104 OFFCURVE",
"157 154 CURVE SMOOTH",
"146 216 OFFCURVE",
"119 270 OFFCURVE",
"83 297 CURVE",
"65 273 LINE",
"95 250 OFFCURVE",
"118 204 OFFCURVE",
"127 149 CURVE SMOOTH",
"146 38 OFFCURVE",
"93 -94 OFFCURVE",
"142 -213 CURVE SMOOTH",
"154 -246 OFFCURVE",
"179 -269 OFFCURVE",
"199 -290 CURVE",
"221 -269 LINE"
);
},
{
closed = 1;
nodes = (
"210 358 OFFCURVE",
"244 429 OFFCURVE",
"221 500 CURVE",
"108 500 LINE",
"108 470 LINE",
"198 470 LINE",
"204 423 OFFCURVE",
"180 381 OFFCURVE",
"138 369 CURVE",
"146 340 LINE"
);
}
);
width = 253;
}
);
unicode = 00A1;
},
{
glyphname = question;
lastChange = "2023-04-26 12:03:56 +0000";
layers = (
{
layerId = "D49323DB-BA12-4E81-A595-966915BD3B05";
paths = (
{
closed = 1;
nodes = (
"213 227 OFFCURVE",
"189 250 OFFCURVE",
"185 279 CURVE SMOOTH",
"173 364 OFFCURVE",
"244 392 OFFCURVE",
"324 423 CURVE SMOOTH",
"380 446 OFFCURVE",
"441 470 OFFCURVE",
"466 519 CURVE SMOOTH",
"532 650 OFFCURVE",
"418 790 OFFCURVE",
"248 790 CURVE SMOOTH",
"148 790 OFFCURVE",
"63 736 OFFCURVE",
"15 643 CURVE",
"42 630 LINE",
"85 713 OFFCURVE",
"159 760 OFFCURVE",
"248 760 CURVE SMOOTH",
"396 760 OFFCURVE",
"495 643 OFFCURVE",
"439 533 CURVE SMOOTH",
"392 440 OFFCURVE",
"131 451 OFFCURVE",
"155 275 CURVE SMOOTH",
"161 234 OFFCURVE",
"195 200 OFFCURVE",
"238 191 CURVE",
"244 220 LINE"
);
},
{
closed = 1;
nodes = (
"276 17 OFFCURVE",
"311 88 OFFCURVE",
"287 159 CURVE",
"170 159 LINE",
"170 129 LINE",
"264 129 LINE",
"270 82 OFFCURVE",
"245 40 OFFCURVE",
"201 28 CURVE",
"209 -1 LINE"
);
}
);
width = 550;
}
);
unicode = 003F;
},
{
glyphname = questiondown;
lastChange = "2023-04-30 18:50:04 +0000";
layers = (
{
layerId = "D49323DB-BA12-4E81-A595-966915BD3B05";
paths = (
{
closed = 1;
nodes = (
"337 273 OFFCURVE",
"361 250 OFFCURVE",
"365 221 CURVE SMOOTH",
"377 136 OFFCURVE",
"306 108 OFFCURVE",
"226 77 CURVE SMOOTH",
"170 54 OFFCURVE",
"109 30 OFFCURVE",
"84 -19 CURVE SMOOTH",
"18 -150 OFFCURVE",
"132 -290 OFFCURVE",
"302 -290 CURVE SMOOTH",
"402 -290 OFFCURVE",
"487 -236 OFFCURVE",
"535 -143 CURVE",
"508 -130 LINE",
"465 -213 OFFCURVE",
"391 -260 OFFCURVE",
"302 -260 CURVE SMOOTH",
"155 -260 OFFCURVE",
"55 -143 OFFCURVE",
"111 -33 CURVE SMOOTH",
"158 60 OFFCURVE",
"419 49 OFFCURVE",
"395 225 CURVE SMOOTH",
"389 266 OFFCURVE",
"355 300 OFFCURVE",
"312 309 CURVE",
"306 280 LINE"
);
},
{
closed = 1;
nodes = (
"350 358 OFFCURVE",
"385 429 OFFCURVE",
"361 500 CURVE",
"244 500 LINE",
"244 470 LINE",
"338 470 LINE",
"344 423 OFFCURVE",
"319 381 OFFCURVE",
"275 369 CURVE",
"283 340 LINE"
);
}
);
width = 550;
}
);
unicode = 00BF;
},
{
glyphname = periodcentered;
lastChange = "2023-04-26 11:18:40 +0000";
layers = (
{
layerId = "D49323DB-BA12-4E81-A595-966915BD3B05";
paths = (
{
closed = 1;
nodes = (
"182 188 OFFCURVE",
"216 259 OFFCURVE",
"193 330 CURVE",
"80 330 LINE",
"80 300 LINE",
"170 300 LINE",
"176 253 OFFCURVE",
"152 211 OFFCURVE",
"110 199 CURVE",
"118 170 LINE"
);
}
);
width = 280;
}
);
unicode = 00B7;
},
{
glyphname = bullet;
lastChange = "2023-05-02 13:09:35 +0000";
layers = (
{
layerId = "D49323DB-BA12-4E81-A595-966915BD3B05";
paths = (
{
closed = 1;
nodes = (
"217 244 OFFCURVE",
"261 341 OFFCURVE",
"240 435 CURVE",
"60 435 LINE",
"60 405 LINE",
"214 405 LINE",
"221 331 OFFCURVE",
"184 260 OFFCURVE",
"119 223 CURVE",
"134 197 LINE"
);
}
);
width = 325;
}
);
unicode = 2022;
},
{
glyphname = asterisk;
lastChange = "2023-05-02 13:50:52 +0000";
layers = (
{
layerId = "D49323DB-BA12-4E81-A595-966915BD3B05";
paths = (
{
closed = 1;
nodes = (
"88 660 OFFCURVE",
"139 633 OFFCURVE",
"194 616 CURVE",
"77 397 LINE",
"98 377 LINE",
"314 511 LINE",
"338 427 OFFCURVE",
"377 347 OFFCURVE",
"429 277 CURVE",
"453 295 LINE",
"401 365 OFFCURVE",
"363 444 OFFCURVE",
"340 528 CURVE",
"516 637 LINE",
"518 638 LINE",
"519 639 LINE",
"505 666 LINE",
"446 639 OFFCURVE",
"383 626 OFFCURVE",
"320 627 CURVE",
"313 678 OFFCURVE",
"312 730 OFFCURVE",
"316 782 CURVE",
"287 790 LINE",
"208 643 LINE",
"156 658 OFFCURVE",
"106 684 OFFCURVE",
"65 720 CURVE",
"45 697 LINE"
);
},
{
closed = 1;
nodes = (
"224 608 LINE",
"247 603 OFFCURVE",
"270 599 OFFCURVE",
"294 598 CURVE",
"297 579 OFFCURVE",
"301 560 OFFCURVE",
"306 542 CURVE",
"130 433 LINE"
);
},
{
closed = 1;
nodes = (
"284 720 LINE",
"284 689 OFFCURVE",
"286 658 OFFCURVE",
"290 628 CURVE",
"273 629 OFFCURVE",
"255 632 OFFCURVE",
"238 635 CURVE"
);
},
{
closed = 1;
nodes = (
"351 596 OFFCURVE",
"377 599 OFFCURVE",
"403 603 CURVE",
"332 559 LINE",
"329 571 OFFCURVE",
"327 584 OFFCURVE",
"325 597 CURVE"
);
}
);
width = 559;
}
);
unicode = 002A;
},
{
glyphname = numbersign;
lastChange = "2023-04-30 19:19:48 +0000";
layers = (
{
layerId = "D49323DB-BA12-4E81-A595-966915BD3B05";
paths = (
{
closed = 1;
nodes = (
"239 695 LINE",
"210 700 LINE",
"96 5 LINE",
"125 0 LINE"
);
},
{
closed = 1;
nodes = (
"525 695 LINE",
"495 700 LINE",
"381 5 LINE",
"411 0 LINE"
);
},
{
closed = 1;
nodes = (
"70 497 LINE",
"70 467 LINE",
"601 467 LINE",
"601 497 LINE"
);
},
{
closed = 1;
nodes = (
"25 223 LINE",
"25 193 LINE",
"556 193 LINE",
"556 223 LINE"
);
}
);
width = 646;
}
);
unicode = 0023;
},
{
glyphname = slash;
lastChange = "2023-04-30 19:07:10 +0000";
layers = (
{
layerId = "D49323DB-BA12-4E81-A595-966915BD3B05";
paths = (
{
closed = 1;
nodes = (
"305 784 LINE",
"276 790 LINE",
"85 -194 LINE",
"114 -200 LINE"
);
}
);
width = 370;
}
);
unicode = 002F;
},
{
glyphname = backslash;
lastChange = "2023-04-30 19:07:34 +0000";
layers = (
{
layerId = "D49323DB-BA12-4E81-A595-966915BD3B05";
paths = (
{
closed = 1;
nodes = (
"285 -194 LINE",
"94 790 LINE",
"65 784 LINE",
"256 -200 LINE"
);
}
);
width = 370;
}
);
unicode = 005C;
},
{
glyphname = parenleft;
lastChange = "2023-04-30 18:45:17 +0000";
layers = (
{
layerId = "D49323DB-BA12-4E81-A595-966915BD3B05";
paths = (
{
closed = 1;
nodes = (
"169 -125 OFFCURVE",
"110 58 OFFCURVE",
"110 246 CURVE SMOOTH",
"110 440 OFFCURVE",
"168 623 OFFCURVE",
"278 772 CURVE",
"254 790 LINE",
"141 636 OFFCURVE",
"80 446 OFFCURVE",
"80 246 CURVE SMOOTH",
"80 52 OFFCURVE",
"141 -138 OFFCURVE",
"254 -290 CURVE",
"278 -273 LINE"
);
}
);
width = 378;
}
);
unicode = 0028;
},
{
glyphname = parenright;
lastChange = "2023-04-30 18:45:51 +0000";
layers = (
{
layerId = "D49323DB-BA12-4E81-A595-966915BD3B05";
paths = (
{
closed = 1;
nodes = (
"124 -290 LINE",
"237 -138 OFFCURVE",
"298 52 OFFCURVE",
"298 246 CURVE SMOOTH",
"298 446 OFFCURVE",
"237 636 OFFCURVE",
"124 790 CURVE",
"100 772 LINE",
"210 623 OFFCURVE",
"268 440 OFFCURVE",
"268 246 CURVE SMOOTH",
"268 58 OFFCURVE",
"209 -125 OFFCURVE",
"100 -273 CURVE"
);
}
);
width = 378;
}
);
unicode = 0029;
},
{
glyphname = braceleft;
lastChange = "2023-05-02 10:00:49 +0000";
layers = (
{
layerId = "D49323DB-BA12-4E81-A595-966915BD3B05";
paths = (
{
closed = 1;
nodes = (
"256 -260 LINE SMOOTH",
"224 -260 OFFCURVE",
"201 -234 OFFCURVE",
"201 -198 CURVE SMOOTH",
"201 184 LINE SMOOTH",
"201 227 OFFCURVE",
"176 265 OFFCURVE",
"137 286 CURVE",
"176 306 OFFCURVE",
"201 345 OFFCURVE",
"201 393 CURVE SMOOTH",
"201 706 LINE SMOOTH",
"201 736 OFFCURVE",
"226 760 OFFCURVE",
"256 760 CURVE SMOOTH",
"360 760 LINE",
"360 790 LINE",
"256 790 LINE SMOOTH",
"209 790 OFFCURVE",
"171 752 OFFCURVE",
"171 706 CURVE SMOOTH",
"171 393 LINE SMOOTH",
"171 342 OFFCURVE",
"133 303 OFFCURVE",
"82 303 CURVE",
"80 274 LINE",
"133 267 OFFCURVE",
"171 229 OFFCURVE",
"171 184 CURVE SMOOTH",
"171 -198 LINE SMOOTH",
"171 -250 OFFCURVE",
"208 -290 OFFCURVE",
"256 -290 CURVE SMOOTH",
"360 -290 LINE",
"360 -260 LINE"
);
}
);
width = 460;
}
);
unicode = 007B;
},
{
glyphname = braceright;
lastChange = "2023-05-02 10:01:03 +0000";
layers = (
{
layerId = "D49323DB-BA12-4E81-A595-966915BD3B05";
paths = (
{
closed = 1;
nodes = (
"100 -290 LINE",
"204 -290 LINE SMOOTH",
"252 -290 OFFCURVE",
"289 -250 OFFCURVE",
"289 -198 CURVE SMOOTH",
"289 184 LINE SMOOTH",
"289 229 OFFCURVE",
"327 267 OFFCURVE",
"380 274 CURVE",
"378 303 LINE",
"327 303 OFFCURVE",
"289 342 OFFCURVE",
"289 393 CURVE SMOOTH",
"289 706 LINE SMOOTH",
"289 752 OFFCURVE",
"251 790 OFFCURVE",
"204 790 CURVE SMOOTH",
"100 790 LINE",
"100 760 LINE",
"204 760 LINE SMOOTH",
"234 760 OFFCURVE",
"259 736 OFFCURVE",
"259 706 CURVE SMOOTH",
"259 393 LINE SMOOTH",
"259 345 OFFCURVE",
"284 306 OFFCURVE",
"323 286 CURVE",
"284 265 OFFCURVE",
"259 227 OFFCURVE",
"259 184 CURVE SMOOTH",
"259 -198 LINE SMOOTH",
"259 -234 OFFCURVE",
"236 -260 OFFCURVE",
"204 -260 CURVE SMOOTH",
"100 -260 LINE"
);
}
);
width = 460;
}
);
unicode = 007D;
},
{
glyphname = bracketleft;
lastChange = "2023-04-30 17:03:08 +0000";
layers = (
{
layerId = "D49323DB-BA12-4E81-A595-966915BD3B05";
paths = (
{
closed = 1;
nodes = (
"164 -260 LINE SMOOTH",
"134 -260 OFFCURVE",
"110 -235 OFFCURVE",
"110 -205 CURVE SMOOTH",
"110 704 LINE SMOOTH",
"113 734 OFFCURVE",
"136 757 OFFCURVE",
"165 760 CURVE SMOOTH",
"267 760 LINE",
"267 790 LINE",
"163 790 LINE SMOOTH",
"119 786 OFFCURVE",
"84 750 OFFCURVE",
"80 706 CURVE SMOOTH",
"80 -205 LINE SMOOTH",
"80 -252 OFFCURVE",
"118 -290 OFFCURVE",
"164 -290 CURVE SMOOTH",
"267 -290 LINE",
"267 -260 LINE"
);
}
);
width = 367;
}
);
unicode = 005B;
},
{
glyphname = bracketright;
lastChange = "2023-04-30 17:03:56 +0000";
layers = (
{
layerId = "D49323DB-BA12-4E81-A595-966915BD3B05";
paths = (
{
closed = 1;
nodes = (
"100 -290 LINE",
"203 -290 LINE SMOOTH",
"249 -290 OFFCURVE",
"287 -252 OFFCURVE",
"287 -205 CURVE SMOOTH",
"287 706 LINE SMOOTH",
"283 750 OFFCURVE",
"248 786 OFFCURVE",
"204 790 CURVE SMOOTH",
"100 790 LINE",
"100 760 LINE",
"202 760 LINE SMOOTH",
"231 757 OFFCURVE",
"254 734 OFFCURVE",
"257 704 CURVE SMOOTH",
"257 -205 LINE SMOOTH",
"257 -235 OFFCURVE",
"233 -260 OFFCURVE",
"203 -260 CURVE SMOOTH",
"100 -260 LINE"
);
}
);
width = 367;
}
);
unicode = 005D;
},
{
glyphname = hyphen;
lastChange = "2023-04-30 18:56:05 +0000";
layers = (
{
layerId = "D49323DB-BA12-4E81-A595-966915BD3B05";
paths = (
{
closed = 1;
nodes = (
"60 280 LINE",
"60 250 LINE",
"310 250 LINE",
"310 280 LINE"
);
}
);
width = 370;
}
);
unicode = 002D;
},
{
glyphname = endash;
lastChange = "2023-04-30 18:57:54 +0000";
layers = (
{
layerId = "D49323DB-BA12-4E81-A595-966915BD3B05";
paths = (
{
closed = 1;
nodes = (
"60 280 LINE",
"60 250 LINE",
"435 250 LINE",
"435 280 LINE"
);
}
);
width = 495;
}
);
unicode = 2013;
},
{
glyphname = emdash;
lastChange = "2023-04-30 18:55:23 +0000";
layers = (
{
layerId = "D49323DB-BA12-4E81-A595-966915BD3B05";
paths = (
{
closed = 1;
nodes = (
"60 280 LINE",
"60 250 LINE",
"560 250 LINE",
"560 280 LINE"
);
}
);
width = 620;
}
);
unicode = 2014;
},
{
glyphname = underscore;
lastChange = "2023-04-30 18:58:25 +0000";
layers = (
{
layerId = "D49323DB-BA12-4E81-A595-966915BD3B05";
paths = (
{
closed = 1;
nodes = (
"60 -30 LINE",
"60 -60 LINE",
"435 -60 LINE",
"435 -30 LINE"
);
}
);
width = 495;
}
);
unicode = 005F;
},
{
glyphname = quotedblleft;
lastChange = "2023-04-26 11:46:00 +0000";
layers = (
{
layerId = "D49323DB-BA12-4E81-A595-966915BD3B05";
paths = (
{
closed = 1;
nodes = (
"89 694 OFFCURVE",
"65 584 OFFCURVE",
"89 474 CURVE",
"203 474 LINE",
"203 504 LINE",
"114 504 LINE",
"99 598 OFFCURVE",
"122 690 OFFCURVE",
"182 773 CURVE",
"157 790 LINE"
);
},
{
closed = 1;
nodes = (
"253 694 OFFCURVE",
"229 584 OFFCURVE",
"253 474 CURVE",
"367 474 LINE",
"367 504 LINE",
"278 504 LINE",
"263 598 OFFCURVE",
"286 690 OFFCURVE",
"346 773 CURVE",
"321 790 LINE"
);
}
);
width = 452;
}
);
unicode = 201C;
},
{
glyphname = quotedblright;
lastChange = "2023-04-26 11:42:22 +0000";
layers = (
{
layerId = "D49323DB-BA12-4E81-A595-966915BD3B05";
paths = (
{
closed = 1;
nodes = (
"199 570 OFFCURVE",
"223 680 OFFCURVE",
"199 790 CURVE",
"85 790 LINE",
"85 760 LINE",
"174 760 LINE",
"189 666 OFFCURVE",
"166 574 OFFCURVE",
"106 491 CURVE",
"131 474 LINE"
);
},
{
closed = 1;
nodes = (
"363 570 OFFCURVE",
"387 680 OFFCURVE",
"363 790 CURVE",
"249 790 LINE",
"249 760 LINE",
"338 760 LINE",
"353 666 OFFCURVE",
"330 574 OFFCURVE",
"270 491 CURVE",
"295 474 LINE"
);
}
);
width = 452;
}
);
unicode = 201D;
},
{
glyphname = quoteleft;
lastChange = "2023-04-26 11:45:03 +0000";
layers = (
{
layerId = "D49323DB-BA12-4E81-A595-966915BD3B05";
paths = (
{
closed = 1;
nodes = (
"89 694 OFFCURVE",
"65 584 OFFCURVE",
"89 474 CURVE",
"203 474 LINE",
"203 504 LINE",
"114 504 LINE",
"99 598 OFFCURVE",
"122 690 OFFCURVE",
"182 773 CURVE",
"157 790 LINE"
);
}
);
width = 288;
}
);
unicode = 2018;
},
{
glyphname = quoteright;
lastChange = "2023-04-26 11:41:57 +0000";
layers = (
{
layerId = "D49323DB-BA12-4E81-A595-966915BD3B05";
paths = (
{
closed = 1;
nodes = (
"199 570 OFFCURVE",
"223 680 OFFCURVE",
"199 790 CURVE",
"85 790 LINE",
"85 760 LINE",
"174 760 LINE",
"189 666 OFFCURVE",
"166 574 OFFCURVE",
"106 491 CURVE",
"131 474 LINE"
);
}
);
width = 288;
}
);
unicode = 2019;
},
{
glyphname = guillemetleft;
lastChange = "2023-05-01 13:35:12 +0000";
layers = (
{
layerId = "D49323DB-BA12-4E81-A595-966915BD3B05";
paths = (
{
closed = 1;
nodes = (
"68 250 LINE",
"300 479 LINE",
"279 500 LINE",
"25 250 LINE",
"279 0 LINE",
"300 21 LINE"
);
},
{
closed = 1;
nodes = (
"271 250 LINE",
"503 479 LINE",
"482 500 LINE",
"228 250 LINE",
"482 0 LINE",
"503 21 LINE"
);
}
);
width = 568;
}
);
unicode = 00AB;
},
{
glyphname = guillemetright;
lastChange = "2023-05-01 13:35:25 +0000";
layers = (
{
layerId = "D49323DB-BA12-4E81-A595-966915BD3B05";
paths = (
{
closed = 1;
nodes = (
"289 0 LINE",
"543 250 LINE",
"289 500 LINE",
"268 479 LINE",
"500 250 LINE",
"268 21 LINE"
);
},
{
closed = 1;
nodes = (
"86 0 LINE",
"340 250 LINE",
"86 500 LINE",
"65 479 LINE",
"297 250 LINE",
"65 21 LINE"
);
}
);
width = 568;
}
);
unicode = 00BB;
},
{
glyphname = guilsinglleft;
lastChange = "2023-05-01 13:33:47 +0000";
layers = (
{
layerId = "D49323DB-BA12-4E81-A595-966915BD3B05";
paths = (
{
closed = 1;
nodes = (
"68 250 LINE",
"300 479 LINE",
"279 500 LINE",
"25 250 LINE",
"279 0 LINE",
"300 21 LINE"
);
}
);
width = 365;
}
);
unicode = 2039;
},
{
glyphname = guilsinglright;
lastChange = "2023-05-01 13:34:17 +0000";
layers = (
{
layerId = "D49323DB-BA12-4E81-A595-966915BD3B05";
paths = (
{
closed = 1;
nodes = (
"86 0 LINE",
"340 250 LINE",
"86 500 LINE",
"65 479 LINE",
"297 250 LINE",
"65 21 LINE"
);
}
);
width = 365;
}
);
unicode = 203A;
},
{
glyphname = quotedbl;
lastChange = "2023-04-26 11:42:53 +0000";
layers = (
{
layerId = "D49323DB-BA12-4E81-A595-966915BD3B05";
paths = (
{
closed = 1;
nodes = (
"129 570 OFFCURVE",
"153 680 OFFCURVE",
"129 790 CURVE",
"15 790 LINE",
"15 760 LINE",
"104 760 LINE",
"119 666 OFFCURVE",
"96 574 OFFCURVE",
"36 491 CURVE",
"61 474 LINE"
);
},
{
closed = 1;
nodes = (
"293 570 OFFCURVE",
"317 680 OFFCURVE",
"293 790 CURVE",
"179 790 LINE",
"179 760 LINE",
"268 760 LINE",
"283 666 OFFCURVE",
"260 574 OFFCURVE",
"200 491 CURVE",
"225 474 LINE"
);
}
);
width = 367;
}
);
unicode = 0022;
},
{
glyphname = quotesingle;
lastChange = "2023-04-26 11:41:16 +0000";
layers = (
{
layerId = "D49323DB-BA12-4E81-A595-966915BD3B05";
paths = (
{
closed = 1;
nodes = (
"129 570 OFFCURVE",
"153 680 OFFCURVE",
"129 790 CURVE",
"15 790 LINE",
"15 760 LINE",
"104 760 LINE",
"119 666 OFFCURVE",
"96 574 OFFCURVE",
"36 491 CURVE",
"61 474 LINE"
);
}
);
width = 203;
}
);
unicode = 0027;
},
{
glyphname = cent;
lastChange = "2023-05-08 14:22:28 +0000";
layers = (
{
layerId = "D49323DB-BA12-4E81-A595-966915BD3B05";
paths = (
{
closed = 1;
nodes = (
"435 113 OFFCURVE",
"351 88 OFFCURVE",
"260 104 CURVE SMOOTH",
"136 125 OFFCURVE",
"48 244 OFFCURVE",
"61 375 CURVE SMOOTH",
"70 473 OFFCURVE",
"157 561 OFFCURVE",
"260 576 CURVE SMOOTH",
"345 589 OFFCURVE",
"432 564 OFFCURVE",
"495 509 CURVE",
"515 531 LINE",
"446 592 OFFCURVE",
"348 620 OFFCURVE",
"255 606 CURVE SMOOTH",
"139 588 OFFCURVE",
"41 489 OFFCURVE",
"31 377 CURVE SMOOTH",
"17 231 OFFCURVE",
"115 98 OFFCURVE",
"255 74 CURVE SMOOTH",
"354 57 OFFCURVE",
"450 85 OFFCURVE",
"516 150 CURVE",
"495 172 LINE"
);
},
{
closed = 1;
nodes = (
"309 700 LINE",
"279 700 LINE",
"279 -61 LINE",
"309 -61 LINE"
);
}
);
width = 541;
}
);
leftMetricsKey = c;
rightMetricsKey = c;
unicode = 00A2;
},
{
glyphname = currency;
lastChange = "2023-05-08 14:24:59 +0000";
layers = (
{
layerId = "D49323DB-BA12-4E81-A595-966915BD3B05";
paths = (
{
closed = 1;
nodes = (
"158 500 OFFCURVE",
"89 444 OFFCURVE",
"89 352 CURVE SMOOTH",
"89 263 OFFCURVE",
"158 195 OFFCURVE",
"246 195 CURVE SMOOTH",
"333 195 OFFCURVE",
"402 263 OFFCURVE",
"402 352 CURVE SMOOTH",
"402 444 OFFCURVE",
"333 500 OFFCURVE",
"246 500 CURVE SMOOTH"
);
},
{
closed = 1;
nodes = (
"319 471 OFFCURVE",
"372 425 OFFCURVE",
"372 352 CURVE SMOOTH",
"372 279 OFFCURVE",
"317 225 OFFCURVE",
"246 225 CURVE SMOOTH",
"175 225 OFFCURVE",
"119 279 OFFCURVE",
"119 352 CURVE SMOOTH",
"119 425 OFFCURVE",
"173 469 OFFCURVE",
"246 470 CURVE SMOOTH"
);
},
{
closed = 1;
nodes = (
"132 445 LINE",
"154 465 LINE",
"87 538 LINE",
"65 518 LINE"
);
},
{
closed = 1;
nodes = (
"154 240 LINE",
"133 262 LINE",
"65 194 LINE",
"86 172 LINE"
);
},
{
closed = 1;
nodes = (
"337 465 LINE",
"359 445 LINE",
"425 518 LINE",
"403 538 LINE"
);
},
{
closed = 1;
nodes = (
"358 261 LINE",
"337 241 LINE",
"404 173 LINE",
"425 193 LINE"
);
}
);
width = 490;
}
);
unicode = 00A4;
},
{
glyphname = dollar;
lastChange = "2023-05-08 14:26:19 +0000";
layers = (
{
layerId = "D49323DB-BA12-4E81-A595-966915BD3B05";
paths = (
{
closed = 1;
nodes = (
"125 58 OFFCURVE",
"217 13 OFFCURVE",
"319 0 CURVE SMOOTH",
"516 -26 OFFCURVE",
"663 61 OFFCURVE",
"647 199 CURVE SMOOTH",
"631 334 OFFCURVE",
"461 353 OFFCURVE",
"323 368 CURVE SMOOTH",
"214 379 OFFCURVE",
"102 413 OFFCURVE",
"94 503 CURVE SMOOTH",
"86 596 OFFCURVE",
"188 671 OFFCURVE",
"321 670 CURVE SMOOTH",
"414 669 OFFCURVE",
"508 635 OFFCURVE",
"589 574 CURVE",
"607 598 LINE",
"522 663 OFFCURVE",
"421 699 OFFCURVE",
"321 700 CURVE SMOOTH",
"170 701 OFFCURVE",
"54 613 OFFCURVE",
"64 500 CURVE SMOOTH",
"72 410 OFFCURVE",
"162 354 OFFCURVE",
"320 338 CURVE SMOOTH",
"458 323 OFFCURVE",
"604 307 OFFCURVE",
"617 195 CURVE SMOOTH",
"631 80 OFFCURVE",
"500 6 OFFCURVE",
"323 30 CURVE SMOOTH",
"227 42 OFFCURVE",
"140 84 OFFCURVE",
"55 161 CURVE",
"35 139 LINE"
);
},
{
closed = 1;
nodes = (
"371 805 LINE",
"341 805 LINE",
"341 -147 LINE",
"371 -147 LINE"
);
}
);
width = 688;
}
);
unicode = 0024;
},
{
glyphname = euro;
lastChange = "2023-05-08 14:26:43 +0000";
layers = (
{
layerId = "D49323DB-BA12-4E81-A595-966915BD3B05";
paths = (
{
closed = 1;
nodes = (
"521 47 OFFCURVE",
"449 24 OFFCURVE",
"387 30 CURVE SMOOTH",
"238 45 OFFCURVE",
"124 185 OFFCURVE",
"124 350 CURVE SMOOTH",
"124 519 OFFCURVE",
"238 660 OFFCURVE",
"386 670 CURVE SMOOTH",
"460 675 OFFCURVE",
"529 653 OFFCURVE",
"583 609 CURVE",
"602 632 LINE",
"543 681 OFFCURVE",
"465 705 OFFCURVE",
"384 700 CURVE SMOOTH",
"220 689 OFFCURVE",
"94 535 OFFCURVE",
"94 350 CURVE SMOOTH",
"94 170 OFFCURVE",
"220 17 OFFCURVE",
"384 0 CURVE SMOOTH",
"454 -7 OFFCURVE",
"534 18 OFFCURVE",
"601 68 CURVE",
"583 92 LINE"
);
},
{
closed = 1;
nodes = (
"40 470 LINE",
"40 440 LINE",
"523 440 LINE",
"523 470 LINE"
);
},
{
closed = 1;
nodes = (
"40 295 LINE",
"40 265 LINE",
"523 265 LINE",
"523 295 LINE"
);
}
);
width = 619;
}
);
leftMetricsKey = O;
unicode = 20AC;
},
{
glyphname = sterling;
lastChange = "2023-05-08 14:27:02 +0000";
layers = (
{
layerId = "D49323DB-BA12-4E81-A595-966915BD3B05";
paths = (
{
closed = 1;
nodes = (
"96 30 LINE",
"108 44 OFFCURVE",
"117 56 OFFCURVE",
"125 70 CURVE SMOOTH",
"176 163 OFFCURVE",
"163 268 OFFCURVE",
"151 370 CURVE SMOOTH",
"145 417 OFFCURVE",
"139 463 OFFCURVE",
"139 509 CURVE SMOOTH",
"139 582 OFFCURVE",
"186 649 OFFCURVE",
"254 672 CURVE SMOOTH",
"315 691 OFFCURVE",
"383 681 OFFCURVE",
"427 647 CURVE",
"445 671 LINE",
"393 710 OFFCURVE",
"314 722 OFFCURVE",
"244 700 CURVE SMOOTH",
"165 673 OFFCURVE",
"109 594 OFFCURVE",
"109 509 CURVE SMOOTH",
"109 462 OFFCURVE",
"115 414 OFFCURVE",
"121 367 CURVE SMOOTH",
"134 264 OFFCURVE",
"145 169 OFFCURVE",
"99 84 CURVE SMOOTH",
"80 51 OFFCURVE",
"54 28 OFFCURVE",
"25 0 CURVE",
"436 0 LINE",
"436 30 LINE"
);
},
{
closed = 1;
nodes = (
"322 314 OFFCURVE",
"270 321 OFFCURVE",
"221 333 CURVE SMOOTH",
"171 345 OFFCURVE",
"110 360 OFFCURVE",
"55 331 CURVE",
"69 305 LINE",
"114 328 OFFCURVE",
"164 315 OFFCURVE",
"214 303 CURVE SMOOTH",
"265 291 OFFCURVE",
"325 284 OFFCURVE",
"379 304 CURVE",
"368 332 LINE"
);
}
);
width = 460;
}
);
unicode = 00A3;
},
{
glyphname = yen;
lastChange = "2023-05-08 14:27:23 +0000";
layers = (
{
layerId = "D49323DB-BA12-4E81-A595-966915BD3B05";
paths = (
{
closed = 1;
nodes = (
"462 676 OFFCURVE",
"434 624 OFFCURVE",
"423 563 CURVE SMOOTH",
"416 527 OFFCURVE",
"414 491 OFFCURVE",
"412 456 CURVE SMOOTH",
"410 421 OFFCURVE",
"408 387 OFFCURVE",
"402 353 CURVE SMOOTH",
"388 278 OFFCURVE",
"331 225 OFFCURVE",
"265 225 CURVE SMOOTH",
"203 225 OFFCURVE",
"150 274 OFFCURVE",
"128 354 CURVE SMOOTH",
"117 392 OFFCURVE",
"116 429 OFFCURVE",
"115 468 CURVE SMOOTH",
"114 499 OFFCURVE",
"113 531 OFFCURVE",
"107 563 CURVE SMOOTH",
"95 626 OFFCURVE",
"68 676 OFFCURVE",
"32 702 CURVE",
"15 677 LINE",
"45 656 OFFCURVE",
"67 614 OFFCURVE",
"78 557 CURVE SMOOTH",
"83 528 OFFCURVE",
"84 498 OFFCURVE",
"85 467 CURVE SMOOTH",
"86 428 OFFCURVE",
"87 387 OFFCURVE",
"99 346 CURVE SMOOTH",
"125 254 OFFCURVE",
"189 195 OFFCURVE",
"265 195 CURVE SMOOTH",
"345 195 OFFCURVE",
"415 259 OFFCURVE",
"431 347 CURVE SMOOTH",
"438 383 OFFCURVE",
"440 419 OFFCURVE",
"442 454 CURVE SMOOTH",
"444 489 OFFCURVE",
"446 523 OFFCURVE",
"452 557 CURVE SMOOTH",
"462 612 OFFCURVE",
"485 656 OFFCURVE",
"515 677 CURVE",
"498 702 LINE"
);
},
{
closed = 1;
nodes = (
"280 210 LINE",
"250 210 LINE",
"250 0 LINE",
"280 0 LINE"
);
},
{
closed = 1;
nodes = (
"93 225 LINE",
"93 195 LINE",
"437 195 LINE",
"437 225 LINE"
);
},
{
closed = 1;
nodes = (
"93 120 LINE",
"93 90 LINE",
"437 90 LINE",
"437 120 LINE"
);
}
);
width = 530;
}
);
unicode = 00A5;
},
{
glyphname = plus;
lastChange = "2023-05-08 14:27:41 +0000";
layers = (
{
layerId = "D49323DB-BA12-4E81-A595-966915BD3B05";
paths = (
{
closed = 1;
nodes = (
"270 464 LINE",
"240 464 LINE",
"240 36 LINE",
"270 36 LINE"
);
},
{
closed = 1;
nodes = (
"45 265 LINE",
"45 235 LINE",
"465 235 LINE",
"465 265 LINE"
);
}
);
width = 520;
}
);
unicode = 002B;
},
{
glyphname = minus;
lastChange = "2023-05-08 14:28:01 +0000";
layers = (
{
layerId = "D49323DB-BA12-4E81-A595-966915BD3B05";
paths = (
{
closed = 1;
nodes = (
"45 265 LINE",
"45 235 LINE",
"465 235 LINE",
"465 265 LINE"
);
}
);
width = 520;
}
);
unicode = 2212;
},
{
glyphname = multiply;
lastChange = "2023-05-08 14:28:19 +0000";
layers = (
{
layerId = "D49323DB-BA12-4E81-A595-966915BD3B05";
paths = (
{
closed = 1;
nodes = (
"76 500 LINE",
"55 479 LINE",
"476 60 LINE",
"497 82 LINE"
);
},
{
closed = 1;
nodes = (
"497 479 LINE",
"476 500 LINE",
"55 82 LINE",
"76 60 LINE"
);
}
);
width = 552;
}
);
unicode = 00D7;
},
{
glyphname = divide;
lastChange = "2023-05-08 14:28:49 +0000";
layers = (
{
layerId = "D49323DB-BA12-4E81-A595-966915BD3B05";
paths = (
{
closed = 1;
nodes = (
"45 265 LINE",
"45 235 LINE",
"465 235 LINE",
"465 265 LINE"
);
},
{
closed = 1;
nodes = (
"301 376 OFFCURVE",
"333 444 OFFCURVE",
"310 510 CURVE",
"193 510 LINE",
"193 480 LINE",
"287 480 LINE",
"293 435 OFFCURVE",
"268 393 OFFCURVE",
"222 370 CURVE",
"235 343 LINE"
);
},
{
closed = 1;
nodes = (
"301 -19 OFFCURVE",
"333 51 OFFCURVE",
"311 119 CURVE",
"193 119 LINE",
"193 89 LINE",
"287 89 LINE",
"293 42 OFFCURVE",
"268 -3 OFFCURVE",
"222 -27 CURVE",
"235 -53 LINE"
);
}
);
width = 520;
}
);
unicode = 00F7;
},
{
glyphname = equal;
lastChange = "2023-05-08 14:29:07 +0000";
layers = (
{
layerId = "D49323DB-BA12-4E81-A595-966915BD3B05";
paths = (
{
closed = 1;
nodes = (
"55 443 LINE",
"55 413 LINE",
"475 413 LINE",
"475 443 LINE"
);
},
{
closed = 1;
nodes = (
"55 158 LINE",
"55 128 LINE",
"475 128 LINE",
"475 158 LINE"
);
}
);
width = 550;
}
);
unicode = 003D;
},
{
glyphname = notequal;
lastChange = "2023-05-08 14:29:24 +0000";
layers = (
{
layerId = "D49323DB-BA12-4E81-A595-966915BD3B05";
paths = (
{
closed = 1;
nodes = (
"55 443 LINE",
"55 413 LINE",
"475 413 LINE",
"475 443 LINE"
);
},
{
closed = 1;
nodes = (
"55 158 LINE",
"55 128 LINE",
"475 128 LINE",
"475 158 LINE"
);
},
{
closed = 1;
nodes = (
"111 13 LINE",
"138 0 LINE",
"419 564 LINE",
"392 578 LINE"
);
}
);
width = 550;
}
);
unicode = 2260;
},
{
glyphname = greater;
lastChange = "2023-05-08 15:49:19 +0000";
layers = (
{
layerId = "D49323DB-BA12-4E81-A595-966915BD3B05";
paths = (
{
closed = 1;
nodes = (
"68 500 LINE",
"55 473 LINE",
"448 286 LINE",
"55 84 LINE",
"69 58 LINE",
"485 270 LINE",
"485 301 LINE"
);
}
);
width = 520;
}
);
unicode = 003E;
},
{
glyphname = less;
lastChange = "2023-05-08 15:49:33 +0000";
layers = (
{
layerId = "D49323DB-BA12-4E81-A595-966915BD3B05";
paths = (
{
closed = 1;
nodes = (
"35 270 LINE",
"451 58 LINE",
"465 84 LINE",
"72 286 LINE",
"465 473 LINE",
"452 500 LINE",
"35 301 LINE"
);
}
);
width = 520;
}
);
unicode = 003C;
},
{
glyphname = greaterequal;
lastChange = "2023-05-08 15:50:19 +0000";
layers = (
{
layerId = "D49323DB-BA12-4E81-A595-966915BD3B05";
paths = (
{
closed = 1;
nodes = (
"68 500 LINE",
"55 473 LINE",
"448 286 LINE",
"55 84 LINE",
"69 58 LINE",
"485 270 LINE",
"485 301 LINE"
);
},
{
closed = 1;
nodes = (
"55 0 LINE",
"55 -30 LINE",
"475 -30 LINE",
"475 0 LINE"
);
}
);
width = 520;
}
);
unicode = 2265;
},
{
glyphname = lessequal;
lastChange = "2023-05-08 15:50:30 +0000";
layers = (
{
layerId = "D49323DB-BA12-4E81-A595-966915BD3B05";
paths = (
{
closed = 1;
nodes = (
"35 270 LINE",
"451 58 LINE",
"465 84 LINE",
"72 286 LINE",
"465 473 LINE",
"452 500 LINE",
"35 301 LINE"
);
},
{
closed = 1;
nodes = (
"45 -30 LINE",
"465 -30 LINE",
"465 0 LINE",
"45 0 LINE"
);
}
);
width = 520;
}
);
unicode = 2264;
},
{
glyphname = plusminus;
lastChange = "2023-05-08 14:29:43 +0000";
layers = (
{
layerId = "D49323DB-BA12-4E81-A595-966915BD3B05";
paths = (
{
closed = 1;
nodes = (
"270 600 LINE",
"240 600 LINE",
"240 172 LINE",
"270 172 LINE"
);
},
{
closed = 1;
nodes = (
"45 401 LINE",
"45 371 LINE",
"465 371 LINE",
"465 401 LINE"
);
},
{
closed = 1;
nodes = (
"45 95 LINE",
"45 65 LINE",
"465 65 LINE",
"465 95 LINE"
);
}
);
width = 530;
}
);
unicode = 00B1;
},
{
glyphname = approxequal;
lastChange = "2023-05-08 15:51:01 +0000";
layers = (
{
layerId = "D49323DB-BA12-4E81-A595-966915BD3B05";
paths = (
{
closed = 1;
nodes = (
"413 414 OFFCURVE",
"342 417 OFFCURVE",
"278 443 CURVE SMOOTH",
"207 472 OFFCURVE",
"125 477 OFFCURVE",
"55 445 CURVE",
"68 417 LINE",
"130 446 OFFCURVE",
"201 441 OFFCURVE",
"266 415 CURVE SMOOTH",
"336 387 OFFCURVE",
"419 384 OFFCURVE",
"490 417 CURVE",
"477 445 LINE"
);
},
{
closed = 1;
nodes = (
"416 126 OFFCURVE",
"345 131 OFFCURVE",
"278 158 CURVE SMOOTH",
"208 186 OFFCURVE",
"126 189 OFFCURVE",
"55 156 CURVE",
"68 128 LINE",
"132 159 OFFCURVE",
"203 156 OFFCURVE",
"266 130 CURVE SMOOTH",
"341 99 OFFCURVE",
"422 96 OFFCURVE",
"490 128 CURVE",
"477 156 LINE"
);
}
);
width = 565;
}
);
unicode = 2248;
},
{
glyphname = asciitilde;
lastChange = "2023-05-08 15:51:23 +0000";
layers = (
{
layerId = "D49323DB-BA12-4E81-A595-966915BD3B05";
paths = (
{
closed = 1;
nodes = (
"406 234 OFFCURVE",
"335 239 OFFCURVE",
"268 266 CURVE SMOOTH",
"198 294 OFFCURVE",
"116 297 OFFCURVE",
"45 264 CURVE",
"58 236 LINE",
"122 267 OFFCURVE",
"193 264 OFFCURVE",
"256 238 CURVE SMOOTH",
"331 207 OFFCURVE",
"412 204 OFFCURVE",
"480 236 CURVE",
"467 264 LINE"
);
}
);
width = 535;
}
);
unicode = 007E;
},
{
glyphname = logicalnot;
lastChange = "2023-05-08 14:30:05 +0000";
layers = (
{
layerId = "D49323DB-BA12-4E81-A595-966915BD3B05";
paths = (
{
closed = 1;
nodes = (
"567 280 LINE",
"60 280 LINE",
"60 250 LINE",
"537 250 LINE",
"537 115 LINE",
"567 115 LINE"
);
}
);
width = 627;
}
);
unicode = 00AC;
},
{
glyphname = emptyset;
lastChange = "2023-05-08 14:30:36 +0000";
layers = (
{
layerId = "D49323DB-BA12-4E81-A595-966915BD3B05";
paths = (
{
closed = 1;
nodes = (
"435 471 OFFCURVE",
"543 359 OFFCURVE",
"524 223 CURVE SMOOTH",
"510 119 OFFCURVE",
"407 30 OFFCURVE",
"293 30 CURVE SMOOTH",
"175 30 OFFCURVE",
"77 115 OFFCURVE",
"62 223 CURVE SMOOTH",
"43 354 OFFCURVE",
"153 469 OFFCURVE",
"293 470 CURVE SMOOTH"
);
},
{
closed = 1;
nodes = (
"135 499 OFFCURVE",
"11 368 OFFCURVE",
"32 219 CURVE SMOOTH",
"49 96 OFFCURVE",
"160 0 OFFCURVE",
"293 0 CURVE SMOOTH",
"422 0 OFFCURVE",
"538 99 OFFCURVE",
"554 219 CURVE SMOOTH",
"575 373 OFFCURVE",
"453 501 OFFCURVE",
"293 500 CURVE SMOOTH"
);
},
{
closed = 1;
nodes = (
"36 21 LINE",
"57 0 LINE",
"550 479 LINE",
"529 500 LINE"
);
}
);
width = 586;
}
);
unicode = 2205;
},
{
glyphname = infinity;
lastChange = "2023-05-08 14:30:54 +0000";
layers = (
{
layerId = "D49323DB-BA12-4E81-A595-966915BD3B05";
paths = (
{
closed = 1;
nodes = (
"158 467 OFFCURVE",
"45 372 OFFCURVE",
"45 250 CURVE SMOOTH",
"45 135 OFFCURVE",
"158 39 OFFCURVE",
"274 56 CURVE SMOOTH",
"380 72 OFFCURVE",
"440 162 OFFCURVE",
"496 241 CURVE SMOOTH",
"554 327 OFFCURVE",
"613 400 OFFCURVE",
"700 413 CURVE SMOOTH",
"802 433 OFFCURVE",
"894 356 OFFCURVE",
"894 250 CURVE SMOOTH",
"894 151 OFFCURVE",
"802 73 OFFCURVE",
"699 86 CURVE SMOOTH",
"613 100 OFFCURVE",
"554 180 OFFCURVE",
"496 259 CURVE",
"440 345 OFFCURVE",
"378 422 OFFCURVE",
"275 443 CURVE SMOOTH"
);
},
{
closed = 1;
nodes = (
"362 394 OFFCURVE",
"415 327 OFFCURVE",
"472 241 CURVE SMOOTH",
"529 162 OFFCURVE",
"597 72 OFFCURVE",
"695 56 CURVE SMOOTH",
"816 41 OFFCURVE",
"924 133 OFFCURVE",
"924 250 CURVE SMOOTH",
"924 375 OFFCURVE",
"815 466 OFFCURVE",
"695 443 CURVE SMOOTH",
"597 428 OFFCURVE",
"529 345 OFFCURVE",
"472 259 CURVE SMOOTH",
"415 180 OFFCURVE",
"362 100 OFFCURVE",
"270 86 CURVE SMOOTH",
"172 71 OFFCURVE",
"75 153 OFFCURVE",
"75 250 CURVE SMOOTH",
"75 353 OFFCURVE",
"171 434 OFFCURVE",
"269 413 CURVE SMOOTH"
);
}
);
width = 979;
}
);
unicode = 221E;
},
{
glyphname = integral;
lastChange = "2023-05-08 16:23:06 +0000";
layers = (
{
layerId = "D49323DB-BA12-4E81-A595-966915BD3B05";
paths = (
{
closed = 1;
nodes = (
"43 -96 OFFCURVE",
"60 -82 OFFCURVE",
"71 -70 CURVE SMOOTH",
"167 39 OFFCURVE",
"161 186 OFFCURVE",
"155 329 CURVE SMOOTH",
"152 392 OFFCURVE",
"149 455 OFFCURVE",
"155 516 CURVE SMOOTH",
"161 570 OFFCURVE",
"167 624 OFFCURVE",
"208 657 CURVE SMOOTH",
"224 671 OFFCURVE",
"241 676 OFFCURVE",
"252 672 CURVE",
"263 700 LINE",
"242 708 OFFCURVE",
"213 701 OFFCURVE",
"189 681 CURVE SMOOTH",
"138 640 OFFCURVE",
"131 574 OFFCURVE",
"125 518 CURVE SMOOTH",
"119 456 OFFCURVE",
"122 391 OFFCURVE",
"125 328 CURVE SMOOTH",
"131 184 OFFCURVE",
"137 50 OFFCURVE",
"48 -50 CURVE SMOOTH",
"39 -60 OFFCURVE",
"25 -71 OFFCURVE",
"15 -77 CURVE",
"29 -103 LINE"
);
}
);
width = 258;
}
);
unicode = 222B;
},
{
glyphname = product;
lastChange = "2023-05-08 15:46:31 +0000";
layers = (
{
layerId = "D49323DB-BA12-4E81-A595-966915BD3B05";
paths = (
{
closed = 1;
nodes = (
"153 -90 LINE",
"183 -90 LINE",
"183 700 LINE",
"153 700 LINE"
);
},
{
closed = 1;
nodes = (
"389 -90 LINE",
"419 -90 LINE",
"419 700 LINE",
"389 700 LINE"
);
},
{
closed = 1;
nodes = (
"40 700 LINE",
"40 670 LINE",
"532 670 LINE",
"532 700 LINE"
);
}
);
width = 572;
}
);
unicode = 220F;
},
{
glyphname = summation;
lastChange = "2023-05-08 15:46:50 +0000";
layers = (
{
layerId = "D49323DB-BA12-4E81-A595-966915BD3B05";
paths = (
{
closed = 1;
nodes = (
"40 700 LINE",
"244 293 LINE",
"40 -115 LINE",
"457 -115 LINE",
"457 -85 LINE",
"89 -85 LINE",
"278 293 LINE",
"89 670 LINE",
"457 670 LINE",
"457 700 LINE"
);
}
);
width = 512;
}
);
unicode = 2211;
},
{
glyphname = radical;
lastChange = "2023-05-08 15:47:20 +0000";
layers = (
{
layerId = "D49323DB-BA12-4E81-A595-966915BD3B05";
paths = (
{
closed = 1;
nodes = (
"394 760 LINE",
"529 760 LINE",
"529 790 LINE",
"369 790 LINE",
"180 -237 LINE",
"52 14 LINE",
"25 0 LINE",
"173 -290 LINE",
"200 -290 LINE"
);
}
);
width = 544;
}
);
unicode = 221A;
},
{
glyphname = partialdiff;
lastChange = "2023-05-08 15:47:39 +0000";
layers = (
{
layerId = "D49323DB-BA12-4E81-A595-966915BD3B05";
paths = (
{
closed = 1;
nodes = (
"217 697 OFFCURVE",
"295 708 OFFCURVE",
"365 679 CURVE SMOOTH",
"481 630 OFFCURVE",
"528 482 OFFCURVE",
"494 282 CURVE SMOOTH",
"464 119 OFFCURVE",
"344 7 OFFCURVE",
"220 30 CURVE SMOOTH",
"103 49 OFFCURVE",
"32 168 OFFCURVE",
"70 280 CURVE SMOOTH",
"98 369 OFFCURVE",
"189 420 OFFCURVE",
"286 404 CURVE SMOOTH",
"390 385 OFFCURVE",
"466 305 OFFCURVE",
"474 208 CURVE",
"504 210 LINE",
"494 321 OFFCURVE",
"408 412 OFFCURVE",
"291 433 CURVE SMOOTH",
"179 452 OFFCURVE",
"74 393 OFFCURVE",
"41 289 CURVE SMOOTH",
"-2 159 OFFCURVE",
"80 22 OFFCURVE",
"214 0 CURVE SMOOTH",
"356 -26 OFFCURVE",
"491 97 OFFCURVE",
"523 277 CURVE SMOOTH",
"560 491 OFFCURVE",
"507 651 OFFCURVE",
"376 706 CURVE SMOOTH",
"296 740 OFFCURVE",
"206 727 OFFCURVE",
"145 672 CURVE",
"165 650 LINE"
);
}
);
width = 580;
}
);
unicode = 2202;
},
{
glyphname = percent;
lastChange = "2023-05-08 15:35:14 +0000";
layers = (
{
layerId = "D49323DB-BA12-4E81-A595-966915BD3B05";
paths = (
{
closed = 1;
nodes = (
"47 16 LINE",
"72 0 LINE",
"518 684 LINE",
"492 700 LINE"
);
},
{
closed = 1;
nodes = (
"98 700 OFFCURVE",
"45 645 OFFCURVE",
"45 545 CURVE SMOOTH",
"45 448 OFFCURVE",
"97 374 OFFCURVE",
"168 374 CURVE SMOOTH",
"240 374 OFFCURVE",
"290 446 OFFCURVE",
"290 545 CURVE SMOOTH",
"290 647 OFFCURVE",
"240 700 OFFCURVE",
"168 700 CURVE SMOOTH"
);
},
{
closed = 1;
nodes = (
"222 670 OFFCURVE",
"260 627 OFFCURVE",
"260 545 CURVE SMOOTH",
"260 463 OFFCURVE",
"222 404 OFFCURVE",
"168 404 CURVE SMOOTH",
"115 404 OFFCURVE",
"75 465 OFFCURVE",
"75 545 CURVE SMOOTH",
"75 627 OFFCURVE",
"115 670 OFFCURVE",
"168 670 CURVE SMOOTH"
);
},
{
closed = 1;
nodes = (
"326 326 OFFCURVE",
"273 271 OFFCURVE",
"273 171 CURVE SMOOTH",
"273 74 OFFCURVE",
"325 0 OFFCURVE",
"396 0 CURVE SMOOTH",
"468 0 OFFCURVE",
"518 72 OFFCURVE",
"518 171 CURVE SMOOTH",
"518 273 OFFCURVE",
"468 326 OFFCURVE",
"396 326 CURVE SMOOTH"
);
},
{
closed = 1;
nodes = (
"450 296 OFFCURVE",
"488 253 OFFCURVE",
"488 171 CURVE SMOOTH",
"488 89 OFFCURVE",
"450 30 OFFCURVE",
"396 30 CURVE SMOOTH",
"343 30 OFFCURVE",
"303 91 OFFCURVE",
"303 171 CURVE SMOOTH",
"303 253 OFFCURVE",
"343 296 OFFCURVE",
"396 296 CURVE SMOOTH"
);
}
);
width = 568;
}
);
unicode = 0025;
},
{
glyphname = perthousand;
lastChange = "2023-05-08 15:34:59 +0000";
layers = (
{
layerId = "D49323DB-BA12-4E81-A595-966915BD3B05";
paths = (
{
closed = 1;
nodes = (
"47 16 LINE",
"72 0 LINE",
"518 684 LINE",
"492 700 LINE"
);
},
{
closed = 1;
nodes = (
"98 700 OFFCURVE",
"45 645 OFFCURVE",
"45 545 CURVE SMOOTH",
"45 448 OFFCURVE",
"97 374 OFFCURVE",
"168 374 CURVE SMOOTH",
"240 374 OFFCURVE",
"290 446 OFFCURVE",
"290 545 CURVE SMOOTH",
"290 647 OFFCURVE",
"240 700 OFFCURVE",
"168 700 CURVE SMOOTH"
);
},
{
closed = 1;
nodes = (
"222 670 OFFCURVE",
"260 627 OFFCURVE",
"260 545 CURVE SMOOTH",
"260 463 OFFCURVE",
"222 404 OFFCURVE",
"168 404 CURVE SMOOTH",
"115 404 OFFCURVE",
"75 465 OFFCURVE",
"75 545 CURVE SMOOTH",
"75 627 OFFCURVE",
"115 670 OFFCURVE",
"168 670 CURVE SMOOTH"
);
},
{
closed = 1;
nodes = (
"326 326 OFFCURVE",
"273 271 OFFCURVE",
"273 171 CURVE SMOOTH",
"273 74 OFFCURVE",
"325 0 OFFCURVE",
"396 0 CURVE SMOOTH",
"468 0 OFFCURVE",
"518 72 OFFCURVE",
"518 171 CURVE SMOOTH",
"518 273 OFFCURVE",
"468 326 OFFCURVE",
"396 326 CURVE SMOOTH"
);
},
{
closed = 1;
nodes = (
"450 296 OFFCURVE",
"488 253 OFFCURVE",
"488 171 CURVE SMOOTH",
"488 89 OFFCURVE",
"450 30 OFFCURVE",
"396 30 CURVE SMOOTH",
"343 30 OFFCURVE",
"303 91 OFFCURVE",
"303 171 CURVE SMOOTH",
"303 253 OFFCURVE",
"343 296 OFFCURVE",
"396 296 CURVE SMOOTH"
);
},
{
closed = 1;
nodes = (
"606 326 OFFCURVE",
"553 271 OFFCURVE",
"553 171 CURVE SMOOTH",
"553 74 OFFCURVE",
"605 0 OFFCURVE",
"676 0 CURVE SMOOTH",
"748 0 OFFCURVE",
"798 72 OFFCURVE",
"798 171 CURVE SMOOTH",
"798 273 OFFCURVE",
"748 326 OFFCURVE",
"676 326 CURVE SMOOTH"
);
},
{
closed = 1;
nodes = (
"730 296 OFFCURVE",
"768 253 OFFCURVE",
"768 171 CURVE SMOOTH",
"768 89 OFFCURVE",
"730 30 OFFCURVE",
"676 30 CURVE SMOOTH",
"623 30 OFFCURVE",
"583 91 OFFCURVE",
"583 171 CURVE SMOOTH",
"583 253 OFFCURVE",
"623 296 OFFCURVE",
"676 296 CURVE SMOOTH"
);
}
);
width = 848;
}
);
unicode = 2030;
},
{
glyphname = upArrow;
lastChange = "2023-05-08 14:31:32 +0000";
layers = (
{
layerId = "D49323DB-BA12-4E81-A595-966915BD3B05";
paths = (
{
closed = 1;
nodes = (
"310 700 LINE",
"280 700 LINE",
"250 551 OFFCURVE",
"164 422 OFFCURVE",
"35 328 CURVE",
"53 304 LINE",
"188 402 OFFCURVE",
"277 538 OFFCURVE",
"310 694 CURVE",
"280 697 LINE",
"280 0 LINE",
"310 0 LINE"
);
},
{
closed = 1;
nodes = (
"319 540 OFFCURVE",
"409 404 OFFCURVE",
"536 306 CURVE",
"554 330 LINE",
"432 424 OFFCURVE",
"346 553 OFFCURVE",
"310 700 CURVE",
"280 693 LINE"
);
}
);
width = 599;
}
);
unicode = 2191;
},
{
glyphname = northEastArrow;
lastChange = "2023-05-08 14:32:43 +0000";
layers = (
{
layerId = "D49323DB-BA12-4E81-A595-966915BD3B05";
paths = (
{
closed = 1;
nodes = (
"556 582 LINE",
"534 602 LINE",
"414 523 OFFCURVE",
"267 488 OFFCURVE",
"101 500 CURVE",
"99 470 LINE",
"270 457 OFFCURVE",
"426 494 OFFCURVE",
"552 578 CURVE",
"533 601 LINE",
"45 106 LINE",
"66 84 LINE"
);
},
{
closed = 1;
nodes = (
"449 460 OFFCURVE",
"418 300 OFFCURVE",
"440 138 CURVE",
"469 142 LINE",
"448 297 OFFCURVE",
"478 451 OFFCURVE",
"556 582 CURVE",
"530 598 LINE"
);
}
);
width = 616;
}
);
unicode = 2197;
},
{
glyphname = rightArrow;
lastChange = "2023-05-08 14:33:15 +0000";
layers = (
{
layerId = "D49323DB-BA12-4E81-A595-966915BD3B05";
paths = (
{
closed = 1;
nodes = (
"730 335 LINE",
"730 365 LINE",
"583 396 OFFCURVE",
"455 482 OFFCURVE",
"362 614 CURVE",
"337 596 LINE",
"434 459 OFFCURVE",
"570 368 OFFCURVE",
"724 335 CURVE",
"727 365 LINE",
"35 365 LINE",
"35 335 LINE"
);
},
{
closed = 1;
nodes = (
"570 326 OFFCURVE",
"435 235 OFFCURVE",
"337 105 CURVE",
"361 87 LINE",
"455 212 OFFCURVE",
"582 298 OFFCURVE",
"730 335 CURVE",
"724 365 LINE"
);
}
);
width = 775;
}
);
unicode = 2192;
},
{
glyphname = southEastArrow;
lastChange = "2023-05-08 14:33:37 +0000";
layers = (
{
layerId = "D49323DB-BA12-4E81-A595-966915BD3B05";
paths = (
{
closed = 1;
nodes = (
"535 36 LINE",
"556 57 LINE",
"474 185 OFFCURVE",
"444 337 OFFCURVE",
"469 495 CURVE",
"440 500 LINE",
"414 335 OFFCURVE",
"445 174 OFFCURVE",
"531 41 CURVE",
"554 60 LINE",
"66 555 LINE",
"45 533 LINE"
);
},
{
closed = 1;
nodes = (
"416 145 OFFCURVE",
"258 177 OFFCURVE",
"99 155 CURVE",
"103 125 LINE",
"256 147 OFFCURVE",
"406 116 OFFCURVE",
"535 36 CURVE",
"551 62 LINE"
);
}
);
width = 616;
}
);
unicode = 2198;
},
{
glyphname = downArrow;
lastChange = "2023-05-08 14:33:57 +0000";
layers = (
{
layerId = "D49323DB-BA12-4E81-A595-966915BD3B05";
paths = (
{
closed = 1;
nodes = (
"164 278 OFFCURVE",
"250 149 OFFCURVE",
"280 0 CURVE",
"310 0 LINE",
"310 700 LINE",
"280 700 LINE",
"280 3 LINE",
"310 6 LINE",
"277 162 OFFCURVE",
"188 298 OFFCURVE",
"53 396 CURVE",
"35 372 LINE"
);
},
{
closed = 1;
nodes = (
"409 296 OFFCURVE",
"319 160 OFFCURVE",
"280 7 CURVE",
"310 0 LINE",
"346 147 OFFCURVE",
"432 276 OFFCURVE",
"554 370 CURVE",
"536 394 LINE"
);
}
);
width = 599;
}
);
unicode = 2193;
},
{
glyphname = southWestArrow;
lastChange = "2023-05-08 14:34:20 +0000";
layers = (
{
layerId = "D49323DB-BA12-4E81-A595-966915BD3B05";
paths = (
{
closed = 1;
nodes = (
"157 337 OFFCURVE",
"127 185 OFFCURVE",
"45 57 CURVE",
"66 36 LINE",
"556 533 LINE",
"535 555 LINE",
"47 60 LINE",
"70 41 LINE",
"156 174 OFFCURVE",
"187 335 OFFCURVE",
"161 500 CURVE",
"132 495 LINE"
);
},
{
closed = 1;
nodes = (
"343 177 OFFCURVE",
"185 145 OFFCURVE",
"50 62 CURVE",
"66 36 LINE",
"195 116 OFFCURVE",
"345 147 OFFCURVE",
"498 125 CURVE",
"502 155 LINE"
);
}
);
width = 591;
}
);
unicode = 2199;
},
{
glyphname = leftArrow;
lastChange = "2023-05-08 14:34:42 +0000";
layers = (
{
layerId = "D49323DB-BA12-4E81-A595-966915BD3B05";
paths = (
{
closed = 1;
nodes = (
"321 482 OFFCURVE",
"192 396 OFFCURVE",
"45 365 CURVE",
"45 335 LINE",
"741 335 LINE",
"741 365 LINE",
"49 365 LINE",
"52 335 LINE",
"206 368 OFFCURVE",
"342 459 OFFCURVE",
"439 596 CURVE",
"414 614 LINE"
);
},
{
closed = 1;
nodes = (
"341 235 OFFCURVE",
"206 326 OFFCURVE",
"52 365 CURVE",
"45 335 LINE",
"193 298 OFFCURVE",
"321 212 OFFCURVE",
"415 87 CURVE",
"439 105 LINE"
);
}
);
width = 776;
}
);
unicode = 2190;
},
{
glyphname = northWestArrow;
lastChange = "2023-05-08 14:35:09 +0000";
layers = (
{
layerId = "D49323DB-BA12-4E81-A595-966915BD3B05";
paths = (
{
closed = 1;
nodes = (
"349 488 OFFCURVE",
"201 523 OFFCURVE",
"81 602 CURVE",
"60 582 LINE",
"550 84 LINE",
"571 106 LINE",
"81 602 LINE",
"64 578 LINE",
"190 494 OFFCURVE",
"346 457 OFFCURVE",
"517 470 CURVE",
"515 500 LINE"
);
},
{
closed = 1;
nodes = (
"198 300 OFFCURVE",
"167 460 OFFCURVE",
"86 598 CURVE",
"60 582 LINE",
"138 451 OFFCURVE",
"168 297 OFFCURVE",
"147 142 CURVE",
"176 138 LINE"
);
}
);
width = 616;
}
);
unicode = 2196;
},
{
glyphname = leftRightArrow;
lastChange = "2023-05-08 14:36:42 +0000";
layers = (
{
layerId = "D49323DB-BA12-4E81-A595-966915BD3B05";
paths = (
{
closed = 1;
nodes = (
"236 507 OFFCURVE",
"149 421 OFFCURVE",
"45 364 CURVE",
"45 336 LINE",
"753 336 LINE",
"753 363 LINE",
"654 420 OFFCURVE",
"568 507 OFFCURVE",
"506 613 CURVE",
"480 597 LINE",
"545 487 OFFCURVE",
"635 396 OFFCURVE",
"738 337 CURVE",
"745 366 LINE",
"53 366 LINE",
"60 337 LINE",
"169 396 OFFCURVE",
"260 487 OFFCURVE",
"318 598 CURVE",
"292 612 LINE"
);
},
{
closed = 1;
nodes = (
"635 299 OFFCURVE",
"545 208 OFFCURVE",
"480 104 CURVE",
"506 88 LINE",
"568 189 OFFCURVE",
"655 275 OFFCURVE",
"753 336 CURVE",
"737 363 LINE"
);
},
{
closed = 1;
nodes = (
"149 275 OFFCURVE",
"236 189 OFFCURVE",
"292 89 CURVE",
"318 103 LINE",
"259 208 OFFCURVE",
"169 299 OFFCURVE",
"60 363 CURVE",
"45 336 LINE"
);
}
);
width = 798;
}
);
unicode = 2194;
},
{
glyphname = upDownArrow;
lastChange = "2023-05-08 14:37:11 +0000";
layers = (
{
layerId = "D49323DB-BA12-4E81-A595-966915BD3B05";
paths = (
{
closed = 1;
nodes = (
"150 190 OFFCURVE",
"235 104 OFFCURVE",
"291 0 CURVE",
"317 0 LINE",
"317 700 LINE",
"291 700 LINE",
"235 601 OFFCURVE",
"149 515 OFFCURVE",
"45 453 CURVE",
"60 427 LINE",
"169 492 OFFCURVE",
"259 582 OFFCURVE",
"317 685 CURVE",
"289 693 LINE",
"289 7 LINE",
"317 14 LINE",
"259 124 OFFCURVE",
"169 214 OFFCURVE",
"60 273 CURVE",
"46 246 LINE"
);
},
{
closed = 1;
nodes = (
"357 584 OFFCURVE",
"447 495 OFFCURVE",
"546 432 CURVE",
"562 458 LINE",
"467 518 OFFCURVE",
"380 604 OFFCURVE",
"317 700 CURVE",
"291 684 LINE"
);
},
{
closed = 1;
nodes = (
"379 101 OFFCURVE",
"466 187 OFFCURVE",
"562 242 CURVE",
"547 268 LINE",
"447 210 OFFCURVE",
"356 121 OFFCURVE",
"291 15 CURVE",
"317 0 LINE"
);
}
);
width = 607;
}
);
unicode = 2195;
},
{
glyphname = lozenge;
lastChange = "2023-05-08 14:37:44 +0000";
layers = (
{
layerId = "D49323DB-BA12-4E81-A595-966915BD3B05";
paths = (
{
closed = 1;
nodes = (
"472 350 LINE",
"272 36 LINE",
"71 350 LINE",
"272 664 LINE"
);
},
{
closed = 1;
nodes = (
"35 350 LINE",
"272 -20 LINE",
"508 350 LINE",
"272 720 LINE"
);
}
);
width = 543;
}
);
unicode = 25CA;
},
{
glyphname = at;
lastChange = "2023-05-08 16:16:23 +0000";
layers = (
{
layerId = "D49323DB-BA12-4E81-A595-966915BD3B05";
paths = (
{
closed = 1;
nodes = (
"567 -26 OFFCURVE",
"495 -49 OFFCURVE",
"422 -49 CURVE SMOOTH",
"212 -49 OFFCURVE",
"75 92 OFFCURVE",
"75 308 CURVE SMOOTH",
"75 514 OFFCURVE",
"230 670 OFFCURVE",
"437 670 CURVE SMOOTH",
"623 670 OFFCURVE",
"768 525 OFFCURVE",
"768 341 CURVE SMOOTH",
"768 193 OFFCURVE",
"748 115 OFFCURVE",
"712 115 CURVE SMOOTH",
"694 115 OFFCURVE",
"676 138 OFFCURVE",
"669 171 CURVE SMOOTH",
"662 207 OFFCURVE",
"664 245 OFFCURVE",
"667 285 CURVE SMOOTH",
"670 335 OFFCURVE",
"674 389 OFFCURVE",
"655 440 CURVE SMOOTH",
"625 524 OFFCURVE",
"529 584 OFFCURVE",
"427 584 CURVE SMOOTH",
"357 584 OFFCURVE",
"289 555 OFFCURVE",
"237 502 CURVE",
"258 481 LINE",
"305 528 OFFCURVE",
"364 554 OFFCURVE",
"427 554 CURVE SMOOTH",
"516 554 OFFCURVE",
"601 501 OFFCURVE",
"627 430 CURVE SMOOTH",
"643 385 OFFCURVE",
"640 337 OFFCURVE",
"637 287 CURVE SMOOTH",
"634 247 OFFCURVE",
"632 205 OFFCURVE",
"640 165 CURVE SMOOTH",
"650 118 OFFCURVE",
"678 85 OFFCURVE",
"712 85 CURVE SMOOTH",
"773 85 OFFCURVE",
"798 170 OFFCURVE",
"798 341 CURVE SMOOTH",
"798 542 OFFCURVE",
"639 700 OFFCURVE",
"437 700 CURVE SMOOTH",
"214 700 OFFCURVE",
"45 531 OFFCURVE",
"45 308 CURVE SMOOTH",
"45 75 OFFCURVE",
"195 -79 OFFCURVE",
"422 -79 CURVE SMOOTH",
"500 -79 OFFCURVE",
"579 -54 OFFCURVE",
"652 -6 CURVE",
"635 19 LINE"
);
},
{
closed = 1;
nodes = (
"581 109 OFFCURVE",
"507 85 OFFCURVE",
"427 85 CURVE SMOOTH",
"306 85 OFFCURVE",
"227 136 OFFCURVE",
"227 215 CURVE SMOOTH",
"227 290 OFFCURVE",
"312 345 OFFCURVE",
"427 344 CURVE SMOOTH",
"500 343 OFFCURVE",
"580 317 OFFCURVE",
"644 275 CURVE",
"661 299 LINE",
"592 345 OFFCURVE",
"506 373 OFFCURVE",
"427 374 CURVE SMOOTH",
"296 375 OFFCURVE",
"197 308 OFFCURVE",
"197 215 CURVE SMOOTH",
"197 118 OFFCURVE",
"289 55 OFFCURVE",
"427 55 CURVE SMOOTH",
"513 55 OFFCURVE",
"593 81 OFFCURVE",
"663 131 CURVE",
"646 155 LINE"
);
}
);
width = 848;
}
);
unicode = 0040;
},
{
glyphname = ampersand;
lastChange = "2023-05-08 16:46:56 +0000";
layers = (
{
layerId = "D49323DB-BA12-4E81-A595-966915BD3B05";
paths = (
{
closed = 1;
nodes = (
"647 15 OFFCURVE",
"605 95 OFFCURVE",
"605 260 CURVE",
"575 262 LINE",
"557 107 OFFCURVE",
"450 15 OFFCURVE",
"288 15 CURVE SMOOTH",
"163 15 OFFCURVE",
"65 92 OFFCURVE",
"65 189 CURVE SMOOTH",
"65 281 OFFCURVE",
"150 338 OFFCURVE",
"333 370 CURVE SMOOTH",
"497 399 OFFCURVE",
"580 455 OFFCURVE",
"580 540 CURVE SMOOTH",
"580 646 OFFCURVE",
"481 715 OFFCURVE",
"330 715 CURVE SMOOTH",
"177 715 OFFCURVE",
"70 641 OFFCURVE",
"70 532 CURVE SMOOTH",
"70 438 OFFCURVE",
"183 370 OFFCURVE",
"330 370 CURVE",
"330 400 LINE",
"201 400 OFFCURVE",
"100 457 OFFCURVE",
"100 532 CURVE SMOOTH",
"100 623 OFFCURVE",
"194 685 OFFCURVE",
"330 685 CURVE SMOOTH",
"464 685 OFFCURVE",
"550 628 OFFCURVE",
"550 540 CURVE SMOOTH",
"550 473 OFFCURVE",
"477 426 OFFCURVE",
"327 400 CURVE SMOOTH",
"131 365 OFFCURVE",
"35 299 OFFCURVE",
"35 189 CURVE SMOOTH",
"35 74 OFFCURVE",
"147 -15 OFFCURVE",
"288 -15 CURVE SMOOTH",
"430 -15 OFFCURVE",
"534 51 OFFCURVE",
"581 164 CURVE",
"597 46 OFFCURVE",
"647 -15 OFFCURVE",
"730 -15 CURVE",
"730 15 LINE"
);
}
);
width = 735;
}
);
unicode = 0026;
},
{
glyphname = paragraph;
lastChange = "2023-05-08 15:48:02 +0000";
layers = (
{
layerId = "D49323DB-BA12-4E81-A595-966915BD3B05";
paths = (
{
closed = 1;
nodes = (
"90 500 LINE",
"97 624 OFFCURVE",
"180 746 OFFCURVE",
"264 759 CURVE",
"264 0 LINE",
"294 0 LINE",
"294 789 LINE",
"175 804 OFFCURVE",
"52 634 OFFCURVE",
"60 470 CURVE",
"169 470 LINE",
"169 500 LINE"
);
},
{
closed = 1;
nodes = (
"332 0 LINE",
"362 0 LINE",
"362 790 LINE",
"332 790 LINE"
);
}
);
width = 437;
}
);
unicode = 00B6;
},
{
glyphname = section;
lastChange = "2023-05-08 17:16:13 +0000";
layers = (
{
background = {
paths = (
{
closed = 0;
nodes = (
"331 0 LINE SMOOTH",
"427 0 OFFCURVE",
"546 53 OFFCURVE",
"546 133 CURVE SMOOTH",
"546 218 OFFCURVE",
"413 239 OFFCURVE",
"297 266 CURVE",
"413 266 OFFCURVE",
"522 327 OFFCURVE",
"522 402 CURVE SMOOTH",
"522 491 OFFCURVE",
"393 517 OFFCURVE",
"297 538 CURVE"
);
}
);
};
layerId = "D49323DB-BA12-4E81-A595-966915BD3B05";
paths = (
{
closed = 1;
nodes = (
"103 -59 OFFCURVE",
"217 -105 OFFCURVE",
"331 -105 CURVE SMOOTH",
"453 -105 OFFCURVE",
"561 -43 OFFCURVE",
"561 38 CURVE SMOOTH",
"561 136 OFFCURVE",
"416 164 OFFCURVE",
"300 191 CURVE SMOOTH",
"204 213 OFFCURVE",
"94 228 OFFCURVE",
"94 298 CURVE SMOOTH",
"94 361 OFFCURVE",
"193 419 OFFCURVE",
"304 419 CURVE",
"304 449 LINE",
"175 449 OFFCURVE",
"64 380 OFFCURVE",
"64 298 CURVE SMOOTH",
"64 202 OFFCURVE",
"198 183 OFFCURVE",
"294 161 CURVE SMOOTH",
"410 134 OFFCURVE",
"531 110 OFFCURVE",
"531 38 CURVE SMOOTH",
"531 -24 OFFCURVE",
"436 -75 OFFCURVE",
"331 -75 CURVE SMOOTH",
"225 -75 OFFCURVE",
"120 -32 OFFCURVE",
"57 36 CURVE",
"35 16 LINE"
);
},
{
closed = 1;
nodes = (
"499 669 OFFCURVE",
"385 715 OFFCURVE",
"270 715 CURVE SMOOTH",
"149 715 OFFCURVE",
"40 652 OFFCURVE",
"40 572 CURVE SMOOTH",
"40 474 OFFCURVE",
"185 446 OFFCURVE",
"301 419 CURVE SMOOTH",
"443 389 OFFCURVE",
"507 352 OFFCURVE",
"507 297 CURVE SMOOTH",
"507 238 OFFCURVE",
"416 191 OFFCURVE",
"297 191 CURVE",
"297 161 LINE",
"433 161 OFFCURVE",
"537 218 OFFCURVE",
"537 297 CURVE SMOOTH",
"537 393 OFFCURVE",
"402 429 OFFCURVE",
"307 449 CURVE SMOOTH",
"191 476 OFFCURVE",
"70 500 OFFCURVE",
"70 572 CURVE SMOOTH",
"70 634 OFFCURVE",
"166 685 OFFCURVE",
"270 685 CURVE SMOOTH",
"377 685 OFFCURVE",
"482 643 OFFCURVE",
"545 574 CURVE",
"567 594 LINE"
);
}
);
width = 612;
}
);
unicode = 00A7;
},
{
glyphname = copyright;
lastChange = "2023-05-08 14:38:13 +0000";
layers = (
{
layerId = "D49323DB-BA12-4E81-A595-966915BD3B05";
paths = (
{
closed = 1;
nodes = (
"505 166 OFFCURVE",
"438 146 OFFCURVE",
"371 161 CURVE SMOOTH",
"264 184 OFFCURVE",
"195 278 OFFCURVE",
"209 379 CURVE SMOOTH",
"220 460 OFFCURVE",
"285 525 OFFCURVE",
"370 540 CURVE SMOOTH",
"436 552 OFFCURVE",
"506 528 OFFCURVE",
"559 475 CURVE",
"580 496 LINE",
"521 555 OFFCURVE",
"441 583 OFFCURVE",
"365 570 CURVE SMOOTH",
"267 553 OFFCURVE",
"192 477 OFFCURVE",
"179 383 CURVE SMOOTH",
"163 266 OFFCURVE",
"243 158 OFFCURVE",
"364 131 CURVE SMOOTH",
"440 115 OFFCURVE",
"519 138 OFFCURVE",
"579 194 CURVE",
"559 216 LINE"
);
},
{
closed = 1;
nodes = (
"585 686 OFFCURVE",
"755 522 OFFCURVE",
"739 324 CURVE SMOOTH",
"725 149 OFFCURVE",
"564 17 OFFCURVE",
"380 30 CURVE SMOOTH",
"214 42 OFFCURVE",
"90 162 OFFCURVE",
"76 325 CURVE SMOOTH",
"60 502 OFFCURVE",
"198 658 OFFCURVE",
"380 671 CURVE SMOOTH"
);
},
{
closed = 1;
nodes = (
"180 687 OFFCURVE",
"29 516 OFFCURVE",
"46 322 CURVE SMOOTH",
"61 145 OFFCURVE",
"198 13 OFFCURVE",
"378 0 CURVE SMOOTH",
"579 -14 OFFCURVE",
"754 130 OFFCURVE",
"769 322 CURVE SMOOTH",
"787 538 OFFCURVE",
"602 717 OFFCURVE",
"378 701 CURVE SMOOTH"
);
}
);
width = 815;
}
);
unicode = 00A9;
},
{
glyphname = registered;
lastChange = "2023-05-08 15:46:03 +0000";
layers = (
{
layerId = "D49323DB-BA12-4E81-A595-966915BD3B05";
paths = (
{
closed = 1;
nodes = (
"196 467 OFFCURVE",
"204 465 OFFCURVE",
"213 463 CURVE SMOOTH",
"225 461 OFFCURVE",
"239 458 OFFCURVE",
"254 458 CURVE SMOOTH",
"311 458 OFFCURVE",
"355 495 OFFCURVE",
"355 543 CURVE SMOOTH",
"355 586 OFFCURVE",
"316 619 OFFCURVE",
"266 619 CURVE SMOOTH",
"174 619 LINE",
"174 418 LINE SMOOTH",
"174 399 OFFCURVE",
"187 379 OFFCURVE",
"206 371 CURVE",
"218 399 LINE",
"210 402 OFFCURVE",
"204 410 OFFCURVE",
"204 418 CURVE SMOOTH",
"204 589 LINE",
"266 589 LINE SMOOTH",
"300 589 OFFCURVE",
"325 569 OFFCURVE",
"325 543 CURVE SMOOTH",
"325 512 OFFCURVE",
"295 488 OFFCURVE",
"254 488 CURVE SMOOTH",
"242 488 OFFCURVE",
"231 490 OFFCURVE",
"219 493 CURVE SMOOTH",
"210 495 OFFCURVE",
"200 497 OFFCURVE",
"191 498 CURVE",
"188 468 LINE"
);
},
{
closed = 1;
nodes = (
"311 413 OFFCURVE",
"282 443 OFFCURVE",
"268 479 CURVE",
"240 467 LINE",
"257 425 OFFCURVE",
"293 389 OFFCURVE",
"335 371 CURVE",
"346 399 LINE"
);
},
{
closed = 1;
nodes = (
"376 287 OFFCURVE",
"470 383 OFFCURVE",
"470 500 CURVE SMOOTH",
"470 611 OFFCURVE",
"377 700 OFFCURVE",
"261 700 CURVE SMOOTH",
"144 700 OFFCURVE",
"50 611 OFFCURVE",
"50 500 CURVE SMOOTH",
"50 382 OFFCURVE",
"144 287 OFFCURVE",
"261 287 CURVE SMOOTH"
);
},
{
closed = 1;
nodes = (
"161 317 OFFCURVE",
"80 399 OFFCURVE",
"80 500 CURVE SMOOTH",
"80 594 OFFCURVE",
"160 670 OFFCURVE",
"261 670 CURVE SMOOTH",
"360 670 OFFCURVE",
"440 594 OFFCURVE",
"440 500 CURVE SMOOTH",
"440 399 OFFCURVE",
"360 317 OFFCURVE",
"261 317 CURVE SMOOTH"
);
}
);
width = 525;
}
);
unicode = 00AE;
},
{
glyphname = degree;
lastChange = "2023-05-08 14:38:33 +0000";
layers = (
{
layerId = "D49323DB-BA12-4E81-A595-966915BD3B05";
paths = (
{
closed = 1;
nodes = (
"84 790 OFFCURVE",
"15 719 OFFCURVE",
"15 630 CURVE SMOOTH",
"15 540 OFFCURVE",
"83 470 OFFCURVE",
"171 470 CURVE SMOOTH",
"259 470 OFFCURVE",
"327 540 OFFCURVE",
"327 630 CURVE SMOOTH",
"327 720 OFFCURVE",
"259 790 OFFCURVE",
"171 790 CURVE SMOOTH"
);
},
{
closed = 1;
nodes = (
"242 760 OFFCURVE",
"297 703 OFFCURVE",
"297 630 CURVE SMOOTH",
"297 556 OFFCURVE",
"243 500 OFFCURVE",
"171 500 CURVE SMOOTH",
"100 500 OFFCURVE",
"45 557 OFFCURVE",
"45 630 CURVE SMOOTH",
"45 703 OFFCURVE",
"100 760 OFFCURVE",
"171 760 CURVE SMOOTH"
);
}
);
width = 362;
}
);
unicode = 00B0;
},
{
glyphname = bar;
lastChange = "2023-05-08 14:38:47 +0000";
layers = (
{
layerId = "D49323DB-BA12-4E81-A595-966915BD3B05";
paths = (
{
closed = 1;
nodes = (
"130 700 LINE",
"100 700 LINE",
"100 -90 LINE",
"130 -90 LINE"
);
}
);
width = 230;
}
);
unicode = 007C;
},
{
glyphname = brokenbar;
lastChange = "2023-05-08 14:39:04 +0000";
layers = (
{
layerId = "D49323DB-BA12-4E81-A595-966915BD3B05";
paths = (
{
closed = 1;
nodes = (
"130 240 LINE",
"100 240 LINE",
"100 -90 LINE",
"130 -90 LINE"
);
},
{
closed = 1;
nodes = (
"130 700 LINE",
"100 700 LINE",
"100 370 LINE",
"130 370 LINE"
);
}
);
width = 230;
}
);
unicode = 00A6;
},
{
glyphname = dagger;
lastChange = "2023-05-08 15:48:22 +0000";
layers = (
{
layerId = "D49323DB-BA12-4E81-A595-966915BD3B05";
paths = (
{
closed = 1;
nodes = (
"220 790 LINE",
"190 790 LINE",
"190 362 LINE",
"220 362 LINE"
);
},
{
closed = 1;
nodes = (
"45 655 LINE",
"45 625 LINE",
"365 625 LINE",
"365 655 LINE"
);
}
);
width = 410;
}
);
unicode = 2020;
},
{
glyphname = daggerdbl;
lastChange = "2023-05-08 15:48:37 +0000";
layers = (
{
layerId = "D49323DB-BA12-4E81-A595-966915BD3B05";
paths = (
{
closed = 1;
nodes = (
"220 790 LINE",
"190 790 LINE",
"190 362 LINE",
"220 362 LINE"
);
},
{
closed = 1;
nodes = (
"45 655 LINE",
"45 625 LINE",
"365 625 LINE",
"365 655 LINE"
);
},
{
closed = 1;
nodes = (
"45 512 LINE",
"45 482 LINE",
"365 482 LINE",
"365 512 LINE"
);
}
);
width = 410;
}
);
unicode = 2021;
},
{
glyphname = dieresiscomb;
lastChange = "2023-05-01 13:55:19 +0000";
layers = (
{
layerId = "D49323DB-BA12-4E81-A595-966915BD3B05";
paths = (
{
closed = 1;
nodes = (
"119 605 OFFCURVE",
"134 659 OFFCURVE",
"120 700 CURVE",
"40 700 LINE",
"40 670 LINE",
"95 670 LINE",
"96 643 OFFCURVE",
"84 614 OFFCURVE",
"63 594 CURVE",
"84 572 LINE"
);
},
{
closed = 1;
nodes = (
"292 605 OFFCURVE",
"308 659 OFFCURVE",
"294 700 CURVE",
"212 700 LINE",
"213 670 LINE",
"269 670 LINE",
"270 643 OFFCURVE",
"258 614 OFFCURVE",
"237 594 CURVE",
"258 572 LINE"
);
}
);
width = 339;
}
);
unicode = 0308;
},
{
glyphname = dotaccentcomb;
lastChange = "2023-05-01 13:55:28 +0000";
layers = (
{
layerId = "D49323DB-BA12-4E81-A595-966915BD3B05";
paths = (
{
closed = 1;
nodes = (
"119 605 OFFCURVE",
"134 659 OFFCURVE",
"120 700 CURVE",
"40 700 LINE",
"40 670 LINE",
"95 670 LINE",
"96 643 OFFCURVE",
"84 614 OFFCURVE",
"63 594 CURVE",
"84 572 LINE"
);
}
);
width = 165;
}
);
unicode = 0307;
},
{
glyphname = gravecomb;
lastChange = "2023-05-01 14:14:53 +0000";
layers = (
{
layerId = "D49323DB-BA12-4E81-A595-966915BD3B05";
paths = (
{
closed = 1;
nodes = (
"153 597 LINE",
"108 592 OFFCURVE",
"72 624 OFFCURVE",
"70 669 CURVE",
"88 669 LINE",
"88 700 LINE",
"43 700 LINE",
"26 622 OFFCURVE",
"83 559 OFFCURVE",
"157 567 CURVE"
);
}
);
width = 197;
}
);
unicode = 0300;
},
{
glyphname = acutecomb;
lastChange = "2023-05-01 14:14:36 +0000";
layers = (
{
layerId = "D49323DB-BA12-4E81-A595-966915BD3B05";
paths = (
{
closed = 1;
nodes = (
"114 559 OFFCURVE",
"171 622 OFFCURVE",
"154 700 CURVE",
"109 700 LINE",
"109 669 LINE",
"127 669 LINE",
"125 624 OFFCURVE",
"89 592 OFFCURVE",
"44 597 CURVE",
"40 567 LINE"
);
}
);
width = 197;
}
);
unicode = 0301;
},
{
glyphname = hungarumlautcomb;
lastChange = "2023-05-01 14:16:29 +0000";
layers = (
{
layerId = "D49323DB-BA12-4E81-A595-966915BD3B05";
paths = (
{
closed = 1;
nodes = (
"114 559 OFFCURVE",
"171 622 OFFCURVE",
"154 700 CURVE",
"109 700 LINE",
"109 669 LINE",
"127 669 LINE",
"125 624 OFFCURVE",
"89 592 OFFCURVE",
"44 597 CURVE",
"40 567 LINE"
);
},
{
closed = 1;
nodes = (
"239 559 OFFCURVE",
"296 622 OFFCURVE",
"279 700 CURVE",
"234 700 LINE",
"234 669 LINE",
"252 669 LINE",
"250 624 OFFCURVE",
"214 592 OFFCURVE",
"169 597 CURVE",
"165 567 LINE"
);
}
);
width = 322;
}
);
unicode = 030B;
},
{
glyphname = circumflexcomb;
lastChange = "2023-05-01 14:25:22 +0000";
layers = (
{
layerId = "D49323DB-BA12-4E81-A595-966915BD3B05";
paths = (
{
closed = 1;
nodes = (
"40 596 LINE",
"61 575 LINE",
"146 662 LINE",
"163 620 OFFCURVE",
"203 584 OFFCURVE",
"253 571 CURVE",
"261 600 LINE",
"208 614 OFFCURVE",
"172 655 OFFCURVE",
"170 700 CURVE",
"141 700 LINE"
);
}
);
width = 301;
}
);
unicode = 0302;
},
{
glyphname = caroncomb;
lastChange = "2023-05-01 14:43:12 +0000";
layers = (
{
layerId = "D49323DB-BA12-4E81-A595-966915BD3B05";
paths = (
{
closed = 1;
nodes = (
"170 571 LINE",
"172 616 OFFCURVE",
"208 657 OFFCURVE",
"261 671 CURVE",
"253 700 LINE",
"203 687 OFFCURVE",
"163 651 OFFCURVE",
"146 609 CURVE",
"61 696 LINE",
"40 675 LINE",
"141 571 LINE"
);
}
);
width = 301;
}
);
unicode = 030C;
},
{
glyphname = brevecomb;
lastChange = "2023-05-01 14:54:08 +0000";
layers = (
{
layerId = "D49323DB-BA12-4E81-A595-966915BD3B05";
paths = (
{
closed = 1;
nodes = (
"246 651 OFFCURVE",
"205 608 OFFCURVE",
"158 608 CURVE SMOOTH",
"111 608 OFFCURVE",
"70 651 OFFCURVE",
"70 700 CURVE",
"40 700 LINE",
"40 635 OFFCURVE",
"95 578 OFFCURVE",
"158 578 CURVE SMOOTH",
"222 578 OFFCURVE",
"276 634 OFFCURVE",
"276 700 CURVE",
"246 700 LINE"
);
}
);
width = 316;
}
);
unicode = 0306;
},
{
glyphname = ringcomb;
lastChange = "2023-05-01 16:49:44 +0000";
layers = (
{
layerId = "D49323DB-BA12-4E81-A595-966915BD3B05";
paths = (
{
closed = 1;
nodes = (
"68 700 OFFCURVE",
"40 670 OFFCURVE",
"40 631 CURVE SMOOTH",
"40 592 OFFCURVE",
"68 562 OFFCURVE",
"105 562 CURVE SMOOTH",
"142 562 OFFCURVE",
"170 592 OFFCURVE",
"170 631 CURVE SMOOTH",
"170 670 OFFCURVE",
"142 700 OFFCURVE",
"105 700 CURVE SMOOTH"
);
},
{
closed = 1;
nodes = (
"125 670 OFFCURVE",
"140 653 OFFCURVE",
"140 631 CURVE SMOOTH",
"140 609 OFFCURVE",
"125 592 OFFCURVE",
"105 592 CURVE SMOOTH",
"85 592 OFFCURVE",
"70 609 OFFCURVE",
"70 631 CURVE SMOOTH",
"70 653 OFFCURVE",
"85 670 OFFCURVE",
"105 670 CURVE SMOOTH"
);
}
);
width = 210;
}
);
unicode = 030A;
},
{
glyphname = tildecomb;
lastChange = "2023-05-01 16:56:53 +0000";
layers = (
{
layerId = "D49323DB-BA12-4E81-A595-966915BD3B05";
paths = (
{
closed = 1;
nodes = (
"247 637 OFFCURVE",
"225 616 OFFCURVE",
"200 621 CURVE SMOOTH",
"192 623 OFFCURVE",
"185 629 OFFCURVE",
"169 647 CURVE SMOOTH",
"158 659 OFFCURVE",
"145 674 OFFCURVE",
"128 679 CURVE SMOOTH",
"83 692 OFFCURVE",
"40 658 OFFCURVE",
"40 607 CURVE",
"70 607 LINE",
"70 637 OFFCURVE",
"94 658 OFFCURVE",
"120 650 CURVE SMOOTH",
"139 645 OFFCURVE",
"157 598 OFFCURVE",
"195 591 CURVE SMOOTH",
"237 583 OFFCURVE",
"277 618 OFFCURVE",
"277 665 CURVE",
"247 665 LINE"
);
}
);
width = 317;
}
);
unicode = 0303;
},
{
glyphname = macroncomb;
lastChange = "2023-05-01 15:09:21 +0000";
layers = (
{
layerId = "D49323DB-BA12-4E81-A595-966915BD3B05";
paths = (
{
closed = 1;
nodes = (
"40 622 LINE",
"40 592 LINE",
"246 592 LINE",
"246 622 LINE"
);
}
);
width = 286;
}
);
unicode = 0304;
},
{
glyphname = commaturnedabovecomb;
lastChange = "2023-05-02 07:47:51 +0000";
layers = (
{
layerId = "D49323DB-BA12-4E81-A595-966915BD3B05";
paths = (
{
closed = 1;
nodes = (
"45 674 OFFCURVE",
"34 615 OFFCURVE",
"44 560 CURVE",
"121 560 LINE",
"121 590 LINE",
"71 590 LINE",
"69 630 OFFCURVE",
"79 672 OFFCURVE",
"102 710 CURVE",
"76 725 LINE"
);
}
);
width = 161;
}
);
unicode = 0312;
},
{
glyphname = commaaccentcomb;
lastChange = "2023-05-02 07:43:52 +0000";
layers = (
{
layerId = "D49323DB-BA12-4E81-A595-966915BD3B05";
paths = (
{
closed = 1;
nodes = (
"116 -170 OFFCURVE",
"127 -111 OFFCURVE",
"117 -56 CURVE",
"40 -56 LINE",
"40 -86 LINE",
"90 -86 LINE",
"92 -126 OFFCURVE",
"82 -168 OFFCURVE",
"59 -206 CURVE",
"85 -221 LINE"
);
}
);
width = 161;
}
);
unicode = 0326;
},
{
glyphname = cedillacomb;
lastChange = "2023-05-01 17:23:42 +0000";
layers = (
{
layerId = "D49323DB-BA12-4E81-A595-966915BD3B05";
paths = (
{
closed = 1;
nodes = (
"80 -73 OFFCURVE",
"103 -77 OFFCURVE",
"114 -84 CURVE SMOOTH",
"133 -95 OFFCURVE",
"142 -115 OFFCURVE",
"139 -140 CURVE SMOOTH",
"135 -181 OFFCURVE",
"96 -206 OFFCURVE",
"60 -198 CURVE",
"51 -227 LINE",
"105 -241 OFFCURVE",
"163 -203 OFFCURVE",
"169 -143 CURVE SMOOTH",
"173 -107 OFFCURVE",
"159 -76 OFFCURVE",
"129 -58 CURVE SMOOTH",
"115 -50 OFFCURVE",
"98 -47 OFFCURVE",
"81 -48 CURVE",
"102 1 LINE",
"74 12 LINE",
"40 -67 LINE",
"57 -86 LINE"
);
}
);
width = 210;
}
);
unicode = 0327;
},
{
glyphname = ogonekcomb;
lastChange = "2023-05-01 17:49:18 +0000";
layers = (
{
layerId = "D49323DB-BA12-4E81-A595-966915BD3B05";
paths = (
{
closed = 1;
nodes = (
"183 -193 OFFCURVE",
"140 -224 OFFCURVE",
"99 -202 CURVE SMOOTH",
"75 -189 OFFCURVE",
"65 -155 OFFCURVE",
"73 -113 CURVE SMOOTH",
"80 -78 OFFCURVE",
"97 -49 OFFCURVE",
"137 -2 CURVE",
"114 17 LINE",
"80 -23 OFFCURVE",
"53 -60 OFFCURVE",
"44 -107 CURVE SMOOTH",
"33 -162 OFFCURVE",
"48 -208 OFFCURVE",
"85 -228 CURVE SMOOTH",
"147 -262 OFFCURVE",
"215 -213 OFFCURVE",
"207 -143 CURVE",
"177 -147 LINE"
);
}
);
width = 248;
}
);
unicode = 0328;
},
{
glyphname = dieresis;
lastChange = "2023-05-01 13:53:35 +0000";
layers = (
{
layerId = "D49323DB-BA12-4E81-A595-966915BD3B05";
paths = (
{
closed = 1;
nodes = (
"119 605 OFFCURVE",
"134 659 OFFCURVE",
"120 700 CURVE",
"40 700 LINE",
"40 670 LINE",
"95 670 LINE",
"96 643 OFFCURVE",
"84 614 OFFCURVE",
"63 594 CURVE",
"84 572 LINE"
);
},
{
closed = 1;
nodes = (
"292 605 OFFCURVE",
"308 659 OFFCURVE",
"294 700 CURVE",
"212 700 LINE",
"213 670 LINE",
"269 670 LINE",
"270 643 OFFCURVE",
"258 614 OFFCURVE",
"237 594 CURVE",
"258 572 LINE"
);
}
);
width = 339;
}
);
unicode = 00A8;
},
{
glyphname = dotaccent;
lastChange = "2023-05-01 13:53:45 +0000";
layers = (
{
layerId = "D49323DB-BA12-4E81-A595-966915BD3B05";
paths = (
{
closed = 1;
nodes = (
"119 605 OFFCURVE",
"134 659 OFFCURVE",
"120 700 CURVE",
"40 700 LINE",
"40 670 LINE",
"95 670 LINE",
"96 643 OFFCURVE",
"84 614 OFFCURVE",
"63 594 CURVE",
"84 572 LINE"
);
}
);
width = 165;
}
);
unicode = 02D9;
},
{
glyphname = grave;
lastChange = "2023-05-01 14:13:55 +0000";
layers = (
{
layerId = "D49323DB-BA12-4E81-A595-966915BD3B05";
paths = (
{
closed = 1;
nodes = (
"153 597 LINE",
"108 592 OFFCURVE",
"72 624 OFFCURVE",
"70 669 CURVE",
"88 669 LINE",
"88 700 LINE",
"43 700 LINE",
"26 622 OFFCURVE",
"83 559 OFFCURVE",
"157 567 CURVE"
);
}
);
width = 197;
}
);
unicode = 0060;
},
{
glyphname = acute;
lastChange = "2023-05-01 14:13:48 +0000";
layers = (
{
layerId = "D49323DB-BA12-4E81-A595-966915BD3B05";
paths = (
{
closed = 1;
nodes = (
"114 559 OFFCURVE",
"171 622 OFFCURVE",
"154 700 CURVE",
"109 700 LINE",
"109 669 LINE",
"127 669 LINE",
"125 624 OFFCURVE",
"89 592 OFFCURVE",
"44 597 CURVE",
"40 567 LINE"
);
}
);
width = 197;
}
);
unicode = 00B4;
},
{
glyphname = hungarumlaut;
lastChange = "2023-05-01 14:15:41 +0000";
layers = (
{
layerId = "D49323DB-BA12-4E81-A595-966915BD3B05";
paths = (
{
closed = 1;
nodes = (
"114 559 OFFCURVE",
"171 622 OFFCURVE",
"154 700 CURVE",
"109 700 LINE",
"109 669 LINE",
"127 669 LINE",
"125 624 OFFCURVE",
"89 592 OFFCURVE",
"44 597 CURVE",
"40 567 LINE"
);
},
{
closed = 1;
nodes = (
"239 559 OFFCURVE",
"296 622 OFFCURVE",
"279 700 CURVE",
"234 700 LINE",
"234 669 LINE",
"252 669 LINE",
"250 624 OFFCURVE",
"214 592 OFFCURVE",
"169 597 CURVE",
"165 567 LINE"
);
}
);
width = 322;
}
);
unicode = 02DD;
},
{
glyphname = circumflex;
lastChange = "2023-05-01 14:24:59 +0000";
layers = (
{
layerId = "D49323DB-BA12-4E81-A595-966915BD3B05";
paths = (
{
closed = 1;
nodes = (
"40 596 LINE",
"61 575 LINE",
"146 662 LINE",
"163 620 OFFCURVE",
"203 584 OFFCURVE",
"253 571 CURVE",
"261 600 LINE",
"208 614 OFFCURVE",
"172 655 OFFCURVE",
"170 700 CURVE",
"141 700 LINE"
);
}
);
width = 301;
}
);
unicode = 02C6;
},
{
glyphname = caron;
lastChange = "2023-05-01 14:42:47 +0000";
layers = (
{
layerId = "D49323DB-BA12-4E81-A595-966915BD3B05";
paths = (
{
closed = 1;
nodes = (
"170 571 LINE",
"172 616 OFFCURVE",
"208 657 OFFCURVE",
"261 671 CURVE",
"253 700 LINE",
"203 687 OFFCURVE",
"163 651 OFFCURVE",
"146 609 CURVE",
"61 696 LINE",
"40 675 LINE",
"141 571 LINE"
);
}
);
width = 301;
}
);
unicode = 02C7;
},
{
glyphname = breve;
lastChange = "2023-05-01 14:53:33 +0000";
layers = (
{
layerId = "D49323DB-BA12-4E81-A595-966915BD3B05";
paths = (
{
closed = 1;
nodes = (
"246 651 OFFCURVE",
"205 608 OFFCURVE",
"158 608 CURVE SMOOTH",
"111 608 OFFCURVE",
"70 651 OFFCURVE",
"70 700 CURVE",
"40 700 LINE",
"40 635 OFFCURVE",
"95 578 OFFCURVE",
"158 578 CURVE SMOOTH",
"222 578 OFFCURVE",
"276 634 OFFCURVE",
"276 700 CURVE",
"246 700 LINE"
);
}
);
width = 316;
}
);
unicode = 02D8;
},
{
glyphname = ring;
lastChange = "2023-05-01 16:49:25 +0000";
layers = (
{
layerId = "D49323DB-BA12-4E81-A595-966915BD3B05";
paths = (
{
closed = 1;
nodes = (
"68 700 OFFCURVE",
"40 670 OFFCURVE",
"40 631 CURVE SMOOTH",
"40 592 OFFCURVE",
"68 562 OFFCURVE",
"105 562 CURVE SMOOTH",
"142 562 OFFCURVE",
"170 592 OFFCURVE",
"170 631 CURVE SMOOTH",
"170 670 OFFCURVE",
"142 700 OFFCURVE",
"105 700 CURVE SMOOTH"
);
},
{
closed = 1;
nodes = (
"125 670 OFFCURVE",
"140 653 OFFCURVE",
"140 631 CURVE SMOOTH",
"140 609 OFFCURVE",
"125 592 OFFCURVE",
"105 592 CURVE SMOOTH",
"85 592 OFFCURVE",
"70 609 OFFCURVE",
"70 631 CURVE SMOOTH",
"70 653 OFFCURVE",
"85 670 OFFCURVE",
"105 670 CURVE SMOOTH"
);
}
);
width = 210;
}
);
unicode = 02DA;
},
{
glyphname = tilde;
lastChange = "2023-05-01 16:56:20 +0000";
layers = (
{
layerId = "D49323DB-BA12-4E81-A595-966915BD3B05";
paths = (
{
closed = 1;
nodes = (
"247 637 OFFCURVE",
"225 616 OFFCURVE",
"200 621 CURVE SMOOTH",
"192 623 OFFCURVE",
"185 629 OFFCURVE",
"169 647 CURVE SMOOTH",
"158 659 OFFCURVE",
"145 674 OFFCURVE",
"128 679 CURVE SMOOTH",
"83 692 OFFCURVE",
"40 658 OFFCURVE",
"40 607 CURVE",
"70 607 LINE",
"70 637 OFFCURVE",
"94 658 OFFCURVE",
"120 650 CURVE SMOOTH",
"139 645 OFFCURVE",
"157 598 OFFCURVE",
"195 591 CURVE SMOOTH",
"237 583 OFFCURVE",
"277 618 OFFCURVE",
"277 665 CURVE",
"247 665 LINE"
);
}
);
width = 317;
}
);
unicode = 02DC;
},
{
glyphname = macron;
lastChange = "2023-05-01 15:08:55 +0000";
layers = (
{
layerId = "D49323DB-BA12-4E81-A595-966915BD3B05";
paths = (
{
closed = 1;
nodes = (
"40 622 LINE",
"40 592 LINE",
"246 592 LINE",
"246 622 LINE"
);
}
);
width = 286;
}
);
unicode = 00AF;
},
{
glyphname = cedilla;
lastChange = "2023-05-01 17:23:21 +0000";
layers = (
{
layerId = "D49323DB-BA12-4E81-A595-966915BD3B05";
paths = (
{
closed = 1;
nodes = (
"80 -73 OFFCURVE",
"103 -77 OFFCURVE",
"114 -84 CURVE SMOOTH",
"133 -95 OFFCURVE",
"142 -115 OFFCURVE",
"139 -140 CURVE SMOOTH",
"135 -181 OFFCURVE",
"96 -206 OFFCURVE",
"60 -198 CURVE",
"51 -227 LINE",
"105 -241 OFFCURVE",
"163 -203 OFFCURVE",
"169 -143 CURVE SMOOTH",
"173 -107 OFFCURVE",
"159 -76 OFFCURVE",
"129 -58 CURVE SMOOTH",
"115 -50 OFFCURVE",
"98 -47 OFFCURVE",
"81 -48 CURVE",
"102 1 LINE",
"74 12 LINE",
"40 -67 LINE",
"57 -86 LINE"
);
}
);
width = 210;
}
);
unicode = 00B8;
},
{
glyphname = ogonek;
lastChange = "2023-05-01 17:49:26 +0000";
layers = (
{
layerId = "D49323DB-BA12-4E81-A595-966915BD3B05";
paths = (
{
closed = 1;
nodes = (
"183 -193 OFFCURVE",
"140 -224 OFFCURVE",
"99 -202 CURVE SMOOTH",
"75 -189 OFFCURVE",
"65 -155 OFFCURVE",
"73 -113 CURVE SMOOTH",
"80 -78 OFFCURVE",
"97 -49 OFFCURVE",
"137 -2 CURVE",
"114 17 LINE",
"80 -23 OFFCURVE",
"53 -60 OFFCURVE",
"44 -107 CURVE SMOOTH",
"33 -162 OFFCURVE",
"48 -208 OFFCURVE",
"85 -228 CURVE SMOOTH",
"147 -262 OFFCURVE",
"215 -213 OFFCURVE",
"207 -143 CURVE",
"177 -147 LINE"
);
}
